<svg xmlns="http://www.w3.org/2000/svg" xml:space="preserve" viewBox="0 0 63 27.6">
  <path fill="red" d="M1.5 15.4c-.1-.1.5 1.7.2.8.2.5.6 1.4.9 1.8.1.2 1.2 1.4.7.9l.4.4-.1-.1c.2.3.8.7.8.8.8.5 1 .8 1.6 1.1.4.4 2.1 1.2 2.2 1.3.1.1.2.1.3.2 0 0-.2 0-.2-.1.4.1 1.3.5 1.1.5.5.2 1.5.7 1.7.8.1 0 .3.1.5.2h-.1c.9.2 1.7.6 2.7.8h-.1c.7.2.7.2 1.2.3h-.1l.5.1h-.1c.4 0 1 .3.8.2 1.1.1 1.6.4 2.7.5H19c4.1.6 8.2 1.2 12.4 1h-.1c.8 0 1.8-.1 2.6-.1h.7-.2c.7 0 2.2-.2 2.5-.2l1.5-.1c-.6 0 .1-.1.4-.1-.3.2.6-.1 1-.1h-.2c7.4-1.4 21.1-2.9 21.8-12.6v.1c0-.2-.2-1.1-.3-1.1.1.2.2.7.2.8-.6-2.1-2.3-3.6-4-4.8.1 0 .1 0 .2.1C44.8 1.1 28.1 0 13.9 1.5c-.7 0-.7 0-.3.2-.6.1-.2 0 0 0 .7-.2.7-.1 1.6-.2H15h.4-.1.4c-1.2.1-.1 0 .4 0h5.1c-.1 0-.1.1-.4.1 1.3.1 4.8.2 4.3.3 2.4.1 4.1.3 6.6.5h-.4.5c-.2 0-.5.1-.4.1-.6 0-.6 0-.3.1-.5 0-.1 0 0 0 .6-.1.6-.1 1.4-.1h-.1c.4 0 .3.1.4.1h-.1.4c-1.2-.1 2.9.3 4.2.5-.3 0 .4.1.5.1h-.3c1.6.2 2.6.5 4 .7h-.2c2.9.5 5.8 1.5 8.6 2.5 2.4.9 9.1 3.5 9.3 7.9.3 3.6-4.7 6.6-7.8 7.8-.4.2-.7.3-1.1.4h.1c-.3.1-3 .9-2.4.8-.5.2-1.1.3-1.6.4l.2-.1c-.3.2-1.4.3-.3 0-.3.1-1.1.3-.8.2-.4.1-1.8.4-2.5.4-2.9.4-8.8 1.2-10.1.9h-5.5.1c-.6 0-1 0 0 0-1.8.1-3.5-.3-5.3-.5h.3c-.2 0-1.6-.2-.7-.1-.3-.1-.5-.1-.6-.1.9.2-1.2-.1-.2 0-.6-.1-.3 0-.9-.1-.2-.1-.9-.2-1.5-.3h.1c-.2 0-.4 0-.5-.1.6.2-2.2-.3 0-.1-1.1-.2-1.2-.1-2.2-.4h.2c-2.6-.9-4.4-1.6-5.5-2.1-.1.1-2.1-1-.8-.3.1 0-3.3-1.8-3.2-1.9.1.3-.3-.1-.2-.1-.4-.3-.7-.4-1.3-1.2.1 0 0-.1.2.1-.3-.3-.6-.7-.7-.8l-.2-.4c.3.5-1-2-.5-2.1-.1-.2-.1-.3-.1-.5 0 .2.1-.5.1-.2.4-1.3 0-1.1.8-2.6l-.1.2c.2-.3.2-.3.3-.5 0 .1.4-.3 1-.9-.6.4.1-.3 0-.1.4-.4.8-.7 1.2-.9-.4.2 1.2-1 1.4-.9-.5 0 1.2-.6 1.3-.8v.1c1.4-1 3.7-1.4 5.1-2.1 0 0 .9-.4.9-.3.2-.1.1 0 .2 0 .1-.2.9-.5 1.7-.6-.3.1-.6.3.1.1-.4.1-.5.2-.7.2.1 0 .2 0 0 0 .7-.3.3-.1 1.3-.3 0 0-.5.1-.3 0-.5.1.3-.2.4-.2.8-.4 1.1-.3 1.8-.4h-.1c.3-.1 1.3-.3.5 0 .3-.1 1.1-.2.8-.2h.3c-1.3.1 1.8-.4 1.7-.3 1-.1 4.2-.4 4.3-.4 1.1-.1-.1 0 .2.1.6-.1 2.3-.2 1.2-.1.8 0 .6-.1 1-.1-.5-.1.8 0 1.1 0-1.5 0 .3 0 .6-.1-1.2.2-2 .2-3.1.2h-.2c.2 0-.1 0 .5-.1-.5 0-.9.1-1.4.1.2-.1-.1-.1.5-.1-.6-.1-1 .1-1.5.1h.1-.4.3c-.2 0-1.4.2-.6 0h-.6c.1 0-.5 0-.1-.1-.1.1-1.4.1-.8.1-1.3.2-1.5.1-2.7.3.6-.1-.7 0-.1-.1-.3 0-1.3.3-.6 0-.5.1-.9.1-1.3.2.1 0-.5.1-.6.1.3-.1-.3 0-.1 0-.8.2-1.8.4-2.7.6-.7 0-4 1-5.4 1.5h.1c-.4.2-1 .4-1.4.6l.2-.1-.6.3c.5-.3-.9.4-.2 0-.7.4-.5.2-1 .5.6-.3 0 .2 0 .1-.3.1-1.2.6-1 .4-.4.2-.9.6-1.4.8H6c-.2.1-.3.2-.6.4l.1-.1c-.3.2-1.2.9-1.1.8-.4.5-.4.3-.8.8-1.3 1.2-2.2 3.2-2.1 5.1-.1-.1 0 .1 0 .2zm9.6 7.4c.1 0 0 0 0 0zm1 .4c-.3-.1-.5-.2-.8-.3.3.1.6.2.8.3zm-1.8-.8c.1 0 .2.1.2.1-.1 0-.2-.1-.2-.1zM27.2 3.1zm.3.1h.2-.2zm1.6-.2s-.1 0 0 0c-.1 0 0 0 0 0z"/>
</svg>
