<svg xmlns="http://www.w3.org/2000/svg" xml:space="preserve" viewBox="0 0 24 25">
  <path fill="#444ce7" d="M12 24c-.2 0-.3 0-.5-.1-.4-.1-.7-.2-1-.4l-7-4c-.5-.3-.8-.6-1.1-1.1-.3-.5-.4-1-.4-1.5v-8c0-.5.1-.9.3-1.4 0-.1.1-.1.1-.2s.1-.1.2-.2c.2-.3.6-.6.9-.8l7-4c.9-.5 2.1-.5 3 0l7 4c.4.2.7.5.9.8l.2.2c0 .1.1.1.1.2.2.5.3.9.3 1.4v8c0 .5-.1 1-.4 1.5-.3.5-.6.8-1.1 1.1l-7 4c-.3.2-.7.3-1 .4-.2 0-.3.1-.5.1zm1-10.5v8l6.5-3.7c.1-.1.3-.2.4-.4.1-.2.1-.3.1-.5V9.4l-7 4.1zM5 7.7l7 4 7-4L12.5 4c-.3-.2-.7-.2-1 0L5 7.7z"/>
</svg>
