<svg xmlns="http://www.w3.org/2000/svg" fill="none" viewBox="0 0 168 41">
	<path fill="var(--wp--preset--color--neutral--200, #404968)" d="M49.278 28.952H61.23v-3.6h-7.704v-13.56h-4.248v17.16Zm19.032-2.4c-1.703 0-2.591-1.488-2.591-3.72s.888-3.744 2.592-3.744c1.704 0 2.616 1.512 2.616 3.744s-.912 3.72-2.616 3.72Zm.025 2.784c3.96 0 6.552-2.808 6.552-6.504 0-3.696-2.592-6.504-6.552-6.504-3.936 0-6.576 2.808-6.576 6.504 0 3.696 2.64 6.504 6.576 6.504ZM81.741 33.2c1.824 0 3.432-.408 4.512-1.368.984-.888 1.632-2.232 1.632-4.08V16.664h-3.744v1.32h-.048c-.72-1.032-1.824-1.68-3.456-1.68-3.048 0-5.16 2.544-5.16 6.144 0 3.768 2.568 5.832 5.328 5.832 1.488 0 2.424-.6 3.144-1.416h.096v1.224c0 1.488-.696 2.352-2.352 2.352-1.296 0-1.944-.552-2.16-1.2h-3.792c.384 2.568 2.616 3.96 6 3.96Zm-.024-7.824c-1.464 0-2.424-1.2-2.424-3.048 0-1.872.96-3.072 2.424-3.072 1.632 0 2.496 1.392 2.496 3.048 0 1.728-.792 3.072-2.496 3.072Zm13.867 1.176c-1.705 0-2.593-1.488-2.593-3.72s.888-3.744 2.593-3.744c1.703 0 2.615 1.512 2.615 3.744s-.912 3.72-2.615 3.72Zm.023 2.784c3.96 0 6.552-2.808 6.552-6.504 0-3.696-2.592-6.504-6.552-6.504-3.936 0-6.576 2.808-6.576 6.504 0 3.696 2.64 6.504 6.576 6.504Zm7.695-.384h3.912V16.664h-3.912v12.288Zm0-13.992h3.912v-3.168h-3.912v3.168Zm5.609 18.048h3.912V27.68h.048c.768 1.032 1.896 1.656 3.48 1.656 3.216 0 5.352-2.544 5.352-6.528 0-3.696-1.992-6.504-5.256-6.504-1.68 0-2.88.744-3.72 1.848h-.072v-1.488h-3.744v16.344Zm6.432-6.696c-1.68 0-2.64-1.368-2.64-3.36 0-1.992.864-3.504 2.568-3.504 1.68 0 2.472 1.392 2.472 3.504 0 2.088-.912 3.36-2.4 3.36Zm12.729 3.024c3.216 0 5.592-1.392 5.592-4.08 0-3.144-2.544-3.696-4.704-4.056-1.56-.288-2.952-.408-2.952-1.272 0-.768.744-1.128 1.704-1.128 1.08 0 1.824.336 1.968 1.44h3.6c-.192-2.424-2.064-3.936-5.544-3.936-2.904 0-5.304 1.344-5.304 3.936 0 2.88 2.28 3.456 4.416 3.816 1.632.288 3.12.408 3.12 1.512 0 .792-.744 1.224-1.92 1.224-1.296 0-2.112-.6-2.256-1.824h-3.696c.12 2.712 2.376 4.368 5.976 4.368Zm10.906-.024c1.704 0 2.784-.672 3.672-1.872h.072v1.512h3.744V16.664h-3.912v6.864c0 1.464-.816 2.472-2.16 2.472-1.248 0-1.848-.744-1.848-2.088v-7.248h-3.888v8.064c0 2.736 1.488 4.584 4.32 4.584Zm9.19-.36h3.912v-6.888c0-1.464.72-2.496 1.944-2.496 1.176 0 1.728.768 1.728 2.088v7.296h3.912v-6.888c0-1.464.696-2.496 1.944-2.496 1.176 0 1.728.768 1.728 2.088v7.296h3.912V20.96c0-2.76-1.392-4.656-4.176-4.656-1.584 0-2.904.672-3.864 2.16h-.048c-.624-1.32-1.848-2.16-3.456-2.16-1.776 0-2.952.84-3.72 2.112h-.072v-1.752h-3.744v12.288Z" class="cneutral"/>
	<path fill="var(--wp--preset--color--neutral--200, #404968)" d="M25.41 1.977 21.477.923l-3.314 12.37L15.17 2.125 11.237 3.18l3.233 12.066-8.053-8.053-2.879 2.88 8.833 8.832-11-2.947L.317 19.89l12.019 3.22a8.144 8.144 0 1 1 15.869-.011l10.923 2.926 1.053-3.933-12.066-3.233 11-2.948-1.053-3.932-12.066 3.232 8.052-8.052-2.879-2.88-8.71 8.711 2.95-11.013Z"  stop-color="#3a4148"/>
	<path fill="var(--wp--preset--color--neutral--200, #404968)" d="M28.194 23.144a8.127 8.127 0 0 1-2.026 3.733l7.913 7.913 2.88-2.88-8.767-8.766Zm-2.106 3.816a8.137 8.137 0 0 1-3.639 2.151l2.88 10.746 3.933-1.054-3.174-11.843Zm-3.785 2.19a8.157 8.157 0 0 1-2.034.256 8.15 8.15 0 0 1-2.172-.293L15.215 39.87l3.933 1.054 3.155-11.773Zm-4.345-.076a8.142 8.142 0 0 1-3.575-2.184l-7.932 7.933 2.879 2.88 8.628-8.63Zm-3.641-2.254a8.125 8.125 0 0 1-1.975-3.686L1.383 26.07l1.054 3.933 11.88-3.183Z"  stop-color="#3a4148"/>
</svg>
