<svg xmlns="http://www.w3.org/2000/svg" fill="none" viewBox="0 0 167 41">
	<path fill="var(--wp--preset--color--neutral--200, #404968)" d="M48.63 28.794h11.953v-3.6h-7.704v-13.56H48.63v17.16Zm19.034-2.4c-1.704 0-2.592-1.488-2.592-3.72s.888-3.744 2.592-3.744c1.704 0 2.616 1.512 2.616 3.744s-.912 3.72-2.616 3.72Zm.024 2.784c3.96 0 6.552-2.808 6.552-6.504 0-3.696-2.592-6.504-6.552-6.504-3.936 0-6.576 2.808-6.576 6.504 0 3.696 2.64 6.504 6.576 6.504Zm13.406 3.864c1.824 0 3.432-.408 4.512-1.368.984-.888 1.632-2.232 1.632-4.08V16.506h-3.744v1.32h-.048c-.72-1.032-1.824-1.68-3.456-1.68-3.048 0-5.16 2.544-5.16 6.144 0 3.768 2.568 5.832 5.328 5.832 1.488 0 2.424-.6 3.144-1.416h.096v1.224c0 1.488-.696 2.352-2.352 2.352-1.296 0-1.944-.552-2.16-1.2h-3.792c.384 2.568 2.616 3.96 6 3.96Zm-.024-7.824c-1.464 0-2.424-1.2-2.424-3.048 0-1.872.96-3.072 2.424-3.072 1.632 0 2.496 1.392 2.496 3.048 0 1.728-.792 3.072-2.496 3.072Zm13.867 1.176c-1.704 0-2.592-1.488-2.592-3.72s.888-3.744 2.592-3.744c1.704 0 2.616 1.512 2.616 3.744s-.912 3.72-2.616 3.72Zm.024 2.784c3.96 0 6.552-2.808 6.552-6.504 0-3.696-2.592-6.504-6.552-6.504-3.936 0-6.576 2.808-6.576 6.504 0 3.696 2.64 6.504 6.576 6.504Zm7.694-.384h3.912V16.506h-3.912v12.288Zm0-13.992h3.912v-3.168h-3.912v3.168Zm5.609 18.048h3.912v-5.328h.048c.768 1.032 1.896 1.656 3.48 1.656 3.216 0 5.352-2.544 5.352-6.528 0-3.696-1.992-6.504-5.256-6.504-1.68 0-2.88.744-3.72 1.848h-.072v-1.488h-3.744V32.85Zm6.432-6.696c-1.68 0-2.64-1.368-2.64-3.36 0-1.992.864-3.504 2.568-3.504 1.68 0 2.472 1.392 2.472 3.504 0 2.088-.912 3.36-2.4 3.36Zm12.73 3.024c3.216 0 5.592-1.392 5.592-4.08 0-3.144-2.544-3.696-4.704-4.056-1.56-.288-2.952-.408-2.952-1.272 0-.768.744-1.128 1.704-1.128 1.08 0 1.824.336 1.968 1.44h3.6c-.192-2.424-2.064-3.936-5.544-3.936-2.904 0-5.304 1.344-5.304 3.936 0 2.88 2.28 3.456 4.416 3.816 1.632.288 3.12.408 3.12 1.512 0 .792-.744 1.224-1.92 1.224-1.296 0-2.112-.6-2.256-1.824h-3.696c.12 2.712 2.376 4.368 5.976 4.368Zm10.905-.024c1.704 0 2.784-.672 3.672-1.872h.072v1.512h3.744V16.506h-3.912v6.864c0 1.464-.816 2.472-2.16 2.472-1.248 0-1.848-.744-1.848-2.088v-7.248h-3.888v8.064c0 2.736 1.488 4.584 4.32 4.584Zm9.19-.36h3.912v-6.888c0-1.464.72-2.496 1.944-2.496 1.176 0 1.728.768 1.728 2.088v7.296h3.912v-6.888c0-1.464.696-2.496 1.944-2.496 1.176 0 1.728.768 1.728 2.088v7.296h3.912v-7.992c0-2.76-1.392-4.656-4.176-4.656-1.584 0-2.904.672-3.864 2.16h-.048c-.624-1.32-1.848-2.16-3.456-2.16-1.776 0-2.952.84-3.72 2.112h-.072v-1.752h-3.744v12.288Z" class="cneutral"/>
	<path fill="var(--wp--preset--color--neutral--200, #404968)" fill-rule="evenodd" d="M8.654 3.891c-1.43 1-2.724 2.184-3.847 3.515 4.59-.426 10.42.27 17.189 3.654 7.228 3.614 13.05 3.737 17.1 2.955a19.888 19.888 0 0 0-1.378-3.199c-4.638.49-10.583-.158-17.511-3.622-4.4-2.2-8.278-3.106-11.553-3.303Zm26.355 3.07A19.95 19.95 0 0 0 20.1.293c-1.74 0-3.427.222-5.036.64 2.18.594 4.494 1.464 6.93 2.682 5.073 2.536 9.453 3.353 13.014 3.344Zm4.953 10.96c-4.894.967-11.652.769-19.755-3.283-7.576-3.788-13.605-3.74-17.672-2.836-.21.046-.415.095-.615.146a19.85 19.85 0 0 0-1.262 3.64c.326-.087.662-.17 1.01-.247 4.933-1.096 11.904-1.048 20.328 3.164 7.576 3.788 13.605 3.74 17.672 2.836a15.5 15.5 0 0 0 .411-.096 20.296 20.296 0 0 0-.117-3.323Zm-.536 7.545c-4.846.847-11.408.522-19.219-3.384-7.576-3.787-13.605-3.74-17.672-2.836-.902.2-1.714.445-2.43.703-.003.114-.004.23-.004.345 0 11.045 8.955 20 20 20 9.258 0 17.046-6.29 19.325-14.828Z"  clip-rule="evenodd" stop-color="#3a4148"/>
</svg>
