<?xml version="1.0" encoding="utf-8"?>
<!-- Generator: Adobe Illustrator 26.2.1, SVG Export Plug-In . SVG Version: 6.00 Build 0)  -->
<svg version="1.1" id="_x2014_ÎÓÈ_x5F_1" xmlns="http://www.w3.org/2000/svg" xmlns:xlink="http://www.w3.org/1999/xlink"
	 x="0px" y="0px" viewBox="0 0 64.568 27.627" style="enable-background:new 0 0 64.568 27.627;" xml:space="preserve">
<style type="text/css">
	.st0{fill-rule:evenodd;clip-rule:evenodd;}
</style>
<path class="st0" d="M63.542,1.881c-0.202-0.285-0.465-0.527-0.727-0.818c-0.475,0.219-0.931,0.35-1.293,0.611
	c-1.164,0.838-2.459,1.392-3.782,1.91c-0.667,0.262-1.274,0.71-1.955,0.901c-1.895,0.531-3.809,1.01-5.73,1.437
	c-1.475,0.327-2.966,0.622-4.466,0.787c-1.564,0.173-3.15,0.145-4.722,0.27c-0.385,0.03-0.814,0.241-1.103,0.501
	c-0.251,0.225,0.008,0.989,0.429,1.296c0.274,0.2,0.643,0.368,0.972,0.373c0.905,0.013,1.794-0.452,2.721-0.111
	c0.038,0.014,0.104-0.072,0.164-0.091c0.332-0.102,0.662-0.235,1.002-0.289c0.973-0.152,2.008-0.112,2.911-0.44
	c1.159-0.422,2.374-0.422,3.546-0.69c1.29-0.296,2.609-0.468,3.865-0.937c0.225-0.084,0.498-0.037,0.75-0.05
	c0.014,0.07,0.027,0.14,0.041,0.21c-0.149,0.12-0.295,0.245-0.448,0.36c-2.19,1.642-4.716,2.667-7.14,3.88
	c-0.058,0.029-0.126,0.038-0.187,0.062c-0.61,0.241-1.25,0.427-1.823,0.735c-1.53,0.822-3.126,1.487-4.735,2.131
	c-2.518,1.008-5.021,2.055-7.537,3.066c-0.512,0.205-1.066,0.3-1.585,0.488c-0.905,0.33-1.775,0.792-2.704,1.018
	c-1.225,0.298-2.336,0.933-3.593,1.117c-0.239,0.035-0.445,0.259-0.683,0.361c-0.295,0.127-0.612,0.32-0.908,0.303
	c-0.766-0.045-1.398,0.273-2.057,0.564c-0.263,0.116-0.545,0.207-0.826,0.26c-0.451,0.085-0.915,0.101-1.363,0.197
	c-2.116,0.455-4.157,1.212-6.332,1.453c-1.163,0.129-2.294,0.527-3.45,0.744c-1.159,0.217-2.33,0.371-3.498,0.535
	c-1.817,0.256-3.611,0.728-5.469,0.599c-0.517-0.036-0.864,0.172-1.102,0.606c0.56,0.565,0.644,0.681,1.385,0.659
	C3.221,25.856,4.34,25.76,5.44,25.59c2.175-0.335,4.34-0.731,6.506-1.116c1.39-0.247,2.777-0.503,4.16-0.785
	c1.549-0.316,3.099-0.632,4.633-1.01c1.29-0.318,2.56-0.716,3.835-1.095c0.721-0.214,1.428-0.471,2.146-0.69
	c1.154-0.354,2.315-0.69,3.47-1.043c0.315-0.096,0.625-0.213,0.927-0.344c0.507-0.22,0.992-0.501,1.511-0.685
	c1.546-0.546,3.104-1.054,4.655-1.585c0.246-0.084,0.503-0.177,0.711-0.326c1.089-0.778,2.33-1.139,3.609-1.454
	c0.594-0.146,1.229-0.231,1.756-0.636c0.276-0.212,0.646-0.307,0.982-0.435c0.533-0.205,1.114-0.321,1.599-0.606
	c0.729-0.429,1.442-0.797,2.273-1.056c1.125-0.35,2.143-1.042,3.208-1.584c0.243-0.124,0.493-0.233,0.791-0.373
	c0.137,0.548-0.189,0.728-0.422,0.919c-1.04,0.857-2.101,1.689-3.146,2.541c-1.066,0.867-2.123,1.745-3.157,2.597
	c0.074,0.337,0.105,0.566,0.177,0.783c0.316,0.96,0.853,1.181,1.713,0.614c0.427-0.281,0.727-0.747,1.121-1.087
	c1.447-1.246,2.878-2.516,4.376-3.701c3.239-2.562,6.317-5.294,9.118-8.333c0.354-0.385,0.747-0.734,1.119-1.104
	C63.792,3.317,64.093,2.653,63.542,1.881z"/>
</svg>
