<?xml version="1.0" encoding="utf-8"?>
<!-- Generator: Adobe Illustrator 26.2.1, SVG Export Plug-In . SVG Version: 6.00 Build 0)  -->
<svg version="1.1" id="_x2014_ÎÓÈ_x5F_1" xmlns="http://www.w3.org/2000/svg" xmlns:xlink="http://www.w3.org/1999/xlink"
	 x="0px" y="0px" viewBox="0 0 38.907 18.86" style="enable-background:new 0 0 38.907 18.86;" xml:space="preserve">
<style type="text/css">
	.st0{fill-rule:evenodd;clip-rule:evenodd;}
</style>
<g>
	<path class="st0" d="M16.885,7.081c1.689,0.849,3.405,1.641,5.102,2.472c0.675,0.331,1.402,0.615,1.974,1.081
		c0.563,0.459,1.149,0.615,1.826,0.693c0.911,0.104,1.814,0.27,2.721,0.408c-0.691,0.64-1.528,0.677-2.329,0.772
		c-1.032,0.121-2.074,0.151-3.113,0.205c-0.532,0.028-1.066,0.049-1.597,0.025c-0.455-0.021-0.906-0.113-1.359-0.169
		c-0.282-0.035-0.578-0.017-0.843-0.101c-1.277-0.405-1.781-0.019-1.697,1.331c0.002,0.042,0.043,0.082,0.081,0.153
		c0.133,0.052,0.288,0.163,0.446,0.167c1.282,0.028,2.566,0.063,3.847,0.04c0.937-0.016,1.82-0.429,2.792-0.361
		c0.634,0.045,1.287-0.174,1.932-0.273c0.258-0.04,0.517-0.077,0.772-0.114c-0.018-0.182-0.031-0.313-0.047-0.474
		c0.183,0.006,0.439-0.021,0.451,0.02c0.096,0.341,0.358,0.281,0.579,0.253c0.601-0.075,1.216-0.116,1.794-0.281
		c1.477-0.423,2.965-0.724,4.505-0.77c0.202-0.006,0.415-0.118,0.597-0.225c0.476-0.276,0.177-0.678,0.145-1.038
		c-0.029-0.332-0.279-0.372-0.52-0.365c-0.388,0.01-0.774,0.076-1.162,0.087c-0.179,0.005-0.429-0.003-0.527-0.113
		c-0.25-0.278-0.546-0.27-0.864-0.281c-0.191-0.006-0.424,0.001-0.563-0.101c-0.47-0.347-1.012-0.28-1.534-0.352
		c-1.248-0.174-2.519-0.262-3.734-0.568c-2.753-0.693-5.45-1.578-8-2.851c-0.911-0.455-1.811-0.929-2.515-1.706
		c-0.375-0.414-0.826-0.747-1.482-0.637c-0.05,0.089-0.112,0.19-0.165,0.297c-0.39,0.784-0.322,1.064,0.434,1.546
		C15.506,6.279,16.174,6.725,16.885,7.081z"/>
	<path class="st0" d="M10.527,8.21c1.077,0.432,2.21,0.679,3.313,1.029c0.481,0.153,0.956,0.326,1.444,0.451
		c1.028,0.264,2.06,0.518,3.096,0.746c0.551,0.121,1.117,0.338,1.67-0.009c-0.285-0.099-0.572-0.191-0.854-0.297
		c-0.201-0.076-0.388-0.205-0.594-0.249c-1.226-0.264-2.449-0.523-3.644-0.926c-0.552-0.186-1.182-0.132-1.766-0.241
		c-0.231-0.043-0.606,0.057-0.648-0.382c-0.006-0.063-0.187-0.148-0.291-0.153c-0.213-0.011-0.429,0.024-0.666,0.042
		c-0.486-0.475-1.084-0.842-1.784-0.755C9.413,7.513,9.187,7.398,8.892,7.219c-0.38-0.23-0.799-0.477-1.224-0.528
		C7.39,6.658,7.118,6.687,6.855,6.539C6.585,6.386,6.3,6.258,6.017,6.13c-0.898-0.408-1.795-0.817-2.699-1.21
		C3.147,4.845,2.946,4.838,2.758,4.8C2.746,4.853,2.733,4.906,2.72,4.959C3.485,5.311,4.239,5.691,5.018,6.01
		C6.848,6.758,8.692,7.473,10.527,8.21z"/>
</g>
</svg>
