<svg xmlns="http://www.w3.org/2000/svg"
	 viewBox="0 0 62.961 27.627" fill="currentColor">
	<path d="M1.494,15.386c0.038,0.132,0.077,0.265,0.077,0.265c0.018,0.297-0.072-0.167-0.078-0.072
	c0.066,0.29,0.096,0.345,0.136,0.409c0.036,0.066,0.074,0.143,0.183,0.462c0.042,0.168,0.029,0.141-0.014,0.058
	c-0.035-0.087-0.088-0.237-0.12-0.312c0.093,0.307,0.27,0.657,0.431,0.986c0.185,0.315,0.35,0.615,0.475,0.795
	c0.012,0.004,0.033,0.022,0.022,0.002c0.128,0.163,0.261,0.364,0.421,0.547c0.155,0.188,0.307,0.387,0.471,0.542
	c-0.023,0.007-0.104-0.071-0.186-0.149c0.111,0.118,0.255,0.288,0.367,0.372l-0.146-0.094c0.227,0.268,0.756,0.674,0.781,0.763
	c-0.018-0.044,0.012-0.049,0.242,0.137c0.041,0.078,0.205,0.198,0.401,0.338c0.049,0.035,0.1,0.071,0.151,0.108
	c0.054,0.035,0.107,0.07,0.162,0.106c0.107,0.072,0.212,0.147,0.304,0.223c-0.056-0.018-0.343-0.216-0.263-0.159
	c0.185,0.151,0.377,0.25,0.562,0.348l-0.069-0.011c0,0,0.238,0.14,0.477,0.279c0.119,0.069,0.238,0.138,0.327,0.19
	c0.091,0.048,0.151,0.08,0.151,0.08c0.105,0.143,0.905,0.502,0.818,0.504c0.347,0.181-0.277-0.178,0.166,0.041
	c0.104,0.087,0.404,0.192,0.365,0.224L8.06,22.348c0,0,0.076,0.039,0.154,0.078C8.29,22.465,8.369,22.5,8.369,22.5
	s-0.055-0.012-0.108-0.027c-0.053-0.015-0.106-0.03-0.106-0.03c0.271,0.127,0.489,0.172,0.517,0.149
	c0.245,0.141,0.613,0.295,0.717,0.378L9.287,22.94c0.367,0.146,0.655,0.304,0.93,0.443c0.276,0.132,0.537,0.25,0.841,0.326
	c0.041,0.022,0.031,0.032-0.059-0.004c0,0,0.113,0.044,0.227,0.088c0.114,0.041,0.23,0.082,0.23,0.082l-0.121-0.006l0.778,0.217
	l-0.017,0.018c0.502,0.178,1.298,0.423,1.959,0.599l-0.102-0.018c0.727,0.174,0.689,0.217,1.223,0.331
	c-0.019,0.001-0.038-0.001-0.058-0.005l0.476,0.123l-0.11-0.005c0.363,0.046,0.997,0.302,0.787,0.213
	c0.206,0.025,0.557,0.08,0.622,0.066c0.524,0.109,0.121,0.057,0.441,0.144c0.379,0.08,0.453,0.058,0.963,0.181l-0.015,0.021
	c0.241,0.04,0.395,0.051,0.731,0.109l-0.102-0.007c0.556,0.054,0.672,0.192,1.12,0.16c0.228,0.055,0.667,0.111,0.64,0.153
	c0.345,0.04,0.652,0.065,0.958,0.1c0.306,0.032,0.61,0.068,0.953,0.096c0.1,0.088,0.147,0.012,0.557,0.102l-0.026-0.044
	c0.967,0.107,2.071,0.301,3.144,0.357l0.027,0.043l0.217-0.03c1.152,0.084,2.646,0.161,3.567,0.162
	c0.303-0.021,0.76-0.056,1.239-0.05l-0.051,0.006c0.417-0.014,0.846-0.027,1.284-0.042c0.437-0.018,0.885-0.03,1.34-0.032
	c-0.047,0.016,0.009,0.025-0.033,0.036c0.213-0.042,0.509-0.022,0.694-0.029l-0.229-0.019c0.257-0.052,0.629-0.034,0.762-0.011
	c0,0,0.101-0.016,0.203-0.032c0.102-0.017,0.203-0.034,0.203-0.034c0.027,0.003,0.069,0.005,0.075,0.012l0.071-0.027l0.221,0.038
	c0.1-0.018,0.639-0.071,0.804-0.134c0.041,0.016,0.423,0,0.129,0.032l1.49-0.122l-0.234,0.003c-0.033-0.036,0.411-0.106,0.644-0.117
	c-0.3,0.067-0.02,0.06,0.114,0.075c0.199-0.045-0.18-0.016-0.076-0.05c0.251-0.057,0.786-0.132,0.923-0.129l-0.15,0.034
	c0.343-0.055,0.51-0.011,0.849-0.06c0.3-0.074,0.529-0.075,0.456-0.135c0.438-0.075,0.177,0.022,0.32,0.009
	c0.201-0.066,0.816-0.143,0.901-0.12c0.224-0.132,1.185-0.173,1.259-0.272l0.368-0.018c0.007-0.024,0.068-0.09,0.357-0.159
	c0.277-0.032,0.221,0.021,0.308,0.027l0.166-0.122c1.592-0.239,3.636-0.823,5.332-1.331c0.185-0.07,0.382-0.145,0.587-0.223
	c0.205-0.076,0.416-0.161,0.63-0.251c0.085-0.035,0.172-0.07,0.258-0.105c0.172-0.042,0.332-0.07,0.55-0.159
	c0.3-0.149,0.538-0.214,0.477-0.253c0.062-0.024,0.153-0.06,0.253-0.1c0.076-0.014-0.011,0.052,0.093,0.015
	c0.205-0.124,0.862-0.377,0.959-0.382c0.104-0.106,0.416-0.241,0.709-0.365c0.294-0.123,0.561-0.256,0.588-0.315l0.392-0.147
	c0.002-0.025,0.051-0.108,0.339-0.285c0.288-0.135,0.242-0.063,0.339-0.09l0.143-0.18c0.808-0.435,1.704-1.03,2.531-1.767
	c0.828-0.734,1.583-1.618,2.104-2.562c0.091-0.224,0.201-0.456,0.285-0.71c0.038-0.129,0.076-0.261,0.115-0.395
	c0.018-0.067,0.042-0.133,0.054-0.203c0.012-0.07,0.024-0.14,0.036-0.21c0.023-0.141,0.047-0.283,0.07-0.425
	c0.008-0.145,0.016-0.291,0.023-0.436l0.012-0.218l-0.011-0.229c-0.002-0.153-0.032-0.3-0.05-0.448l0.03,0.129
	c0,0-0.008-0.074-0.024-0.184c-0.024-0.107-0.05-0.253-0.089-0.394c-0.076-0.282-0.187-0.546-0.187-0.546s0.018,0.049,0.044,0.123
	c0.014,0.037,0.028,0.079,0.045,0.126c0.013,0.047,0.027,0.098,0.041,0.149c0.062,0.201,0.095,0.412,0.095,0.412
	c-0.032-0.124-0.065-0.231-0.108-0.334c-0.039-0.104-0.073-0.208-0.121-0.318c-0.213-0.587-0.574-1.211-1.037-1.774
	c-0.461-0.566-1.01-1.087-1.577-1.519c-0.39-0.249-0.499-0.356-0.603-0.463c-0.104-0.109-0.202-0.218-0.584-0.438
	c0.067,0.036,0.098,0.04,0.159,0.071c-0.321-0.204-0.585-0.365-0.841-0.512c0-0.001,0-0.003,0.001-0.004
	c-0.006-0.002-0.013-0.003-0.021-0.007c-0.033-0.019-0.066-0.038-0.099-0.056c-0.066-0.044-0.146-0.104-0.224-0.167
	c-0.163-0.125-0.321-0.249-0.321-0.249S55.806,7.741,55.68,7.66c-0.126-0.082-0.312-0.204-0.557-0.341
	c-0.245-0.139-0.538-0.321-0.892-0.499c-0.175-0.092-0.362-0.189-0.559-0.293c-0.201-0.096-0.413-0.196-0.636-0.302
	c-0.891-0.412-1.958-0.862-3.151-1.264c-1.191-0.409-2.502-0.791-3.861-1.121c-0.608-0.146-1.226-0.28-1.849-0.405
	c-0.233-0.059-0.463-0.114-0.695-0.142c-0.372-0.091-0.732-0.193-0.715-0.226c-0.07,0.008-0.259-0.04-0.443-0.091
	c-0.217-0.06-0.426-0.129-0.426-0.129s-0.34-0.079-0.947-0.205c-0.607-0.129-1.483-0.302-2.555-0.489
	c-2.142-0.379-5.074-0.78-8.189-1.017c-3.114-0.242-6.409-0.32-9.258-0.247c-1.424,0.036-2.736,0.105-3.861,0.187
	c-1.124,0.087-2.059,0.188-2.731,0.287c-0.179,0.053-0.679,0.114-0.483,0.148c-0.387,0.043-0.57-0.015-0.643,0.03
	c0.529-0.011-0.155,0.114,0.363,0.127l-0.329,0.033c-0.065,0.033,0.446-0.064,0.369-0.007l0.088-0.081
	c0.269-0.008,0.417-0.003,0.513,0.016c0.249-0.047,0.403-0.158,1.007-0.15l-0.165,0.014c0.489-0.032,0.303,0.03,0.405,0.036
	L15.37,1.536l0.414,0.013c-0.313-0.006-0.825,0.084-0.556,0.064c0.585-0.014-0.152-0.009,0.284-0.044
	c0.271-0.02,0.197,0.024,0.188,0.048l0.487-0.028c-0.015,0.035-0.323,0.014-0.124,0.04l0.613-0.067c0.118,0.081,0.667-0.074,0.951,0
	C17.187,1.6,17.669,1.59,17.6,1.622l1.083-0.042c0.102,0.01-0.284,0.035-0.12,0.026c0.205,0.019,0.335-0.03,0.444-0.033
	c0.095,0.021,0.809-0.022,0.78,0.039c0.735,0.027,0.308-0.079,0.993-0.056c0.09,0.034-0.544,0.017-0.239,0.048l0.71-0.019
	c-0.065,0.017-0.138,0.058-0.404,0.051c1.92,0.033,2.951,0.232,4.701,0.238c0.246,0.049-0.178,0.023-0.354,0.046
	c1.269-0.017,1.777,0.157,2.854,0.21l0.021-0.033c1.13,0.145,2.44,0.227,3.738,0.356c-0.127,0.006-0.245,0.02-0.367,0.033
	l0.411-0.029c0.014,0.001,0.027,0.003,0.041,0.005c-0.191,0.031-0.533,0.053-0.38,0.097c-0.347,0.011-0.505-0.061-0.572-0.022
	c0.471,0.032-0.146,0.102,0.313,0.156l-0.295,0.006c-0.06,0.028,0.401-0.028,0.329,0.023l0.083-0.074
	c0.239,0.014,0.37,0.031,0.454,0.057c0.224-0.024,0.369-0.132,0.904-0.071h-0.147c0.436,0.011,0.266,0.056,0.356,0.071l-0.096-0.003
	l0.366,0.049c-0.278-0.034-0.739,0.013-0.498,0.016c0.519,0.037-0.135-0.023,0.256-0.02c0.242,0.004,0.173,0.042,0.161,0.064
	l0.435,0.011c-0.016,0.034-0.287-0.011-0.112,0.03c0,0,0.137-0.005,0.274-0.01c0.137-0.006,0.274-0.008,0.274-0.008
	c0.098,0.093,0.597-0.011,0.843,0.084c-0.395,0.001,0.033,0.031-0.03,0.056c0,0,0.24,0.011,0.481,0.022
	c0.24,0.016,0.481,0.031,0.481,0.031c0.091,0.019-0.255,0.009-0.108,0.015c0.18,0.037,0.299,0,0.396,0.008
	c0.082,0.03,0.718,0.051,0.687,0.107c0.406,0.062,0.413,0.026,0.511,0.014c0.063,0.01,0.127,0.021,0.191,0.032
	c-0.096-0.007-0.167-0.011-0.035,0.02l0.266,0.02c0.09,0.015,0.18,0.031,0.27,0.046c-0.055,0.009-0.134,0.013-0.269-0.004
	c1.384,0.179,2.229,0.41,3.331,0.599c0.229,0.046,0.459,0.093,0.689,0.142c-0.075-0.008-0.161-0.018-0.219-0.017
	c0.127,0.014,0.244,0.029,0.355,0.045c0.496,0.107,0.996,0.223,1.496,0.346c0.098,0.025,0.199,0.05,0.308,0.075
	c2.224,0.557,4.451,1.252,6.482,2.004c-0.453-0.164-0.232-0.173,0.103-0.029c0.874,0.489,1.61,0.611,2.492,1.12
	c1.336,0.576,2.471,1.259,3.584,1.968c0.544,0.422,1.057,0.883,1.516,1.384c0.465,0.531,0.864,1.104,1.148,1.708
	c0.271,0.573,0.432,1.174,0.456,1.769c-0.005-0.253,0.072-0.102,0.072,0.162c-0.043,0.199-0.077,0.38-0.091,0.557
	c-0.039,0.174-0.066,0.342-0.091,0.514c-0.043,0.167-0.092,0.336-0.146,0.51c-0.065,0.17-0.158,0.342-0.26,0.52
	c-0.317,0.682-0.792,1.252-1.299,1.765c-0.132,0.125-0.249,0.261-0.389,0.378l-0.404,0.363c-0.135,0.121-0.28,0.233-0.418,0.354
	l-0.208,0.181c-0.069,0.061-0.145,0.117-0.216,0.176L55.93,19.86c-0.192,0.112-0.225,0.17-0.413,0.308l-0.002-0.013
	c-0.235,0.145-0.492,0.311-0.722,0.464c-0.235,0.146-0.45,0.271-0.593,0.341l0.005,0.051c-0.286,0.167-0.164,0.056-0.454,0.235
	l-0.002-0.025l-0.332,0.22c-0.003-0.047-0.206,0.067-0.453,0.183c-0.245,0.119-0.523,0.259-0.65,0.298
	c-0.186,0.089-0.451,0.217-0.745,0.348c0.004-0.006,0.012-0.014,0.026-0.025c-0.196,0.085-0.27,0.122-0.282,0.137
	c-0.249,0.107-0.508,0.21-0.748,0.293c-0.009,0.001-0.021,0.003-0.034,0.006c0.021-0.01,0.043-0.021,0.061-0.028
	c-0.032,0.013-0.063,0.023-0.096,0.036c-0.23,0.058-0.873,0.28-1.307,0.41c-0.035,0.012-0.072,0.024-0.108,0.036
	c-0.376,0.101-0.748,0.198-1.135,0.329c-0.049,0.039,0.223-0.048,0.29-0.055c-0.224,0.069-0.456,0.139-0.695,0.208
	c-0.049,0.01-0.095,0.018-0.141,0.027c-0.197,0.032-0.384,0.074-0.807,0.189l0.168-0.079c-0.27,0.09-0.383,0.151-0.842,0.226
	c-0.089-0.027,0.376-0.126,0.589-0.198c-0.312,0.071-1.095,0.264-0.846,0.25c-0.372,0.093-0.517,0.081-0.722,0.11
	c-0.004,0.013,0.356-0.042,0.142,0.024c-0.515,0.09-1.307,0.229-1.935,0.338c0.004-0.012-0.043-0.022,0.011-0.037
	c-0.495,0.14-0.459,0.029-1.151,0.153c-1.854,0.306-4.28,0.598-6.147,0.673c-0.201,0.041-0.45,0.07-0.723,0.094
	c-0.273,0.022-0.57,0.032-0.868,0.049l-0.065-0.08l-0.496,0.042c-0.202-0.019,0.382-0.027,0.023-0.047l-0.187,0.055
	c-0.039-0.029-1.275-0.006-0.443-0.073c0,0-0.482,0.005-0.964,0.009c-0.482-0.005-0.965-0.01-0.965-0.01
	c-0.426-0.009-0.25,0.07-0.722,0.036c-0.095-0.027,0.17-0.011,0.133-0.042c-1.412-0.101-1.642,0.106-2.96-0.007l0.112-0.003
	c-0.112,0.003-0.275-0.004-0.411-0.011s-0.244-0.012-0.247-0.006c0.163,0.095,0.239-0.027,0.639,0.05
	c-0.039,0.066-0.504,0.001-0.481,0.056c-0.308-0.047-0.492-0.021-0.762-0.037c-0.455-0.083-1.116-0.116-1.456-0.202
	c-0.226-0.004-0.483,0.035-0.966-0.017c-0.339-0.094,0.088-0.042-0.38-0.116l-0.08,0.029c-0.383-0.059-0.321-0.062-0.305-0.078
	c-0.41-0.058-0.35,0.008-0.861-0.088l0.293,0c-0.383-0.035-0.536-0.069-1.063-0.156c0.015-0.021,0.226,0.014,0.381,0.045
	c-0.277-0.104-0.495-0.053-0.649-0.084c0.041,0.024,0.406,0.091,0.221,0.101c-0.261-0.05-0.568-0.033-0.746-0.116l0.292,0.012
	c-0.552-0.064-0.301-0.003-0.923-0.131c0.034,0.003,0.02-0.01,0.035-0.016c-0.407-0.017-0.912-0.173-1.493-0.297l0.112,0.012
	c-0.238-0.034-0.375-0.027-0.5-0.06c0.325,0.1,0.234,0.087,0.255,0.133c-0.423-0.164-0.685-0.077-1.39-0.285
	c0.017-0.018,0.194-0.003,0.386,0.065c0.26-0.009,0.303-0.059,0.743,0.011c-0.251-0.043-0.541-0.102-0.528-0.12l-0.09,0.038
	c-0.163-0.037-0.292-0.069-0.415-0.1c-0.08,0.023,0.315,0.144-0.07,0.077c-0.431-0.09-0.21-0.122-0.283-0.111
	c-0.591-0.127-0.26,0.003-0.817-0.164c0.058,0.011,0.17,0.028,0.217,0.046c-0.397-0.13-0.988-0.27-1.085-0.374
	c0.064,0.001,0.082-0.018,0.231,0.032l-0.009,0.009c0.418,0.067-0.244-0.066-0.232-0.108c-0.098,0-0.551-0.15-0.769-0.229
	l0.066,0.07c-0.879-0.136,0.071-0.067-0.755-0.326c-0.528-0.152,0.191,0.081-0.138,0c-0.174-0.065-0.29-0.119-0.428-0.177
	c-0.138-0.056-0.296-0.118-0.552-0.208c-0.135-0.072-0.413-0.206-0.418-0.264c-0.316-0.094-0.91-0.407-1.104-0.43
	c0.501,0.256,0.532,0.176,1.118,0.479l-0.191-0.019c-0.211-0.086-0.451-0.184-0.676-0.275c-0.225-0.089-0.432-0.177-0.568-0.255
	c0.054,0.036,0.074,0.06,0.033,0.053c-0.299-0.129-0.495-0.201-0.689-0.277c-0.191-0.08-0.376-0.168-0.653-0.318
	c-0.052-0.08,0.273,0.097,0.514,0.216c-0.173-0.11-0.267-0.159-0.387-0.219c-0.119-0.062-0.271-0.123-0.538-0.289
	c-0.005-0.026,0.087,0.026,0.19,0.086c0.104,0.058,0.223,0.117,0.264,0.117c0,0-0.039-0.02-0.098-0.048
	c-0.059-0.029-0.138-0.066-0.213-0.109C9.153,20.853,9,20.77,9,20.77c0.004-0.001,0.003-0.005,0.004-0.007
	c-0.061,0.005-0.175-0.062-0.322-0.154c-0.147-0.09-0.316-0.222-0.503-0.325c-0.107-0.066-0.202-0.125-0.289-0.177
	c-0.085-0.054-0.161-0.103-0.23-0.147c-0.14-0.087-0.254-0.151-0.358-0.206c-0.213-0.106-0.365-0.197-0.604-0.346
	c-0.106-0.107-0.13-0.148-0.069-0.122c0.175,0.176,0.155,0.131,0.234,0.17c-0.135-0.103-0.272-0.228-0.349-0.322
	c-0.074-0.095-0.097-0.15-0.019-0.098c-0.409-0.34,0.119,0.155-0.137-0.046c0,0-0.136-0.123-0.272-0.246
	c-0.069-0.06-0.133-0.125-0.18-0.175c-0.047-0.049-0.078-0.082-0.078-0.082c0.034,0.086,0.209,0.277-0.074,0.024
	c-0.115-0.111-0.198-0.195-0.289-0.29c-0.086-0.098-0.173-0.211-0.307-0.371c0.052,0.035-0.042-0.133,0.155,0.106
	c-0.06-0.081-0.138-0.181-0.216-0.27c-0.077-0.089-0.139-0.176-0.189-0.214c0.234,0.389-0.45-0.59-0.303-0.284L4.41,16.78
	c0.051,0.09,0.076,0.088,0.146,0.223c-0.014-0.139-0.203-0.308-0.271-0.451c-0.029-0.073-0.082-0.206-0.128-0.323
	c-0.023-0.059-0.045-0.114-0.06-0.157c-0.011-0.044-0.016-0.076-0.014-0.086c-0.052-0.13-0.155-0.46-0.134-0.529
	c-0.048-0.201-0.036-0.009-0.064-0.064c0,0-0.031-0.175-0.063-0.35C3.8,14.957,3.807,14.867,3.8,14.801
	c-0.004-0.066-0.007-0.111-0.007-0.111c0.027-0.04,0.104-0.101,0.122,0.002C3.894,14.563,3.87,14.54,3.85,14.5
	c-0.01-0.02-0.02-0.044-0.028-0.089c-0.002-0.045-0.001-0.109,0.006-0.21c0.043,0.23,0.076-0.522,0.123-0.186
	c0.017-0.111,0.075-0.32,0.119-0.547c0.016-0.114,0.057-0.228,0.089-0.337c0.033-0.108,0.062-0.211,0.084-0.296
	c0.025-0.226-0.139,0.358-0.176,0.323c0.036-0.121,0.065-0.228,0.091-0.325c0.023-0.098,0.062-0.178,0.086-0.256
	c0.055-0.152,0.085-0.278,0.127-0.392c0.045-0.111,0.089-0.216,0.146-0.333c0.028-0.059,0.06-0.121,0.097-0.189
	c0.042-0.065,0.093-0.134,0.15-0.211l-0.127,0.157c0.26-0.407,0.222-0.367,0.369-0.612c-0.035,0.141,0.45-0.34,1.016-0.894
	c0.023-0.073-0.352,0.276-0.294,0.151c0,0,0.092-0.097,0.183-0.193C6.008,9.971,6.106,9.88,6.106,9.88
	c0.032-0.022-0.005,0.024-0.052,0.075C6.227,9.79,6.401,9.651,6.548,9.548c0.15-0.102,0.262-0.181,0.295-0.25
	c0,0,0.108-0.059,0.216-0.117C7.113,9.15,7.167,9.123,7.21,9.104C7.251,9.084,7.28,9.071,7.28,9.071s-0.045,0.02-0.089,0.041
	c-0.046,0.02-0.088,0.043-0.088,0.043C7.137,9.09,7.574,8.776,7.658,8.703c0.44-0.332,0.629-0.412,0.901-0.541
	C8.466,8.192,8.232,8.269,8.601,8.039c0.045,0.085,0.807-0.424,0.823-0.367C9.579,7.59,9.868,7.474,9.87,7.43v0.065
	c0-0.045,0.141-0.143,0.339-0.252c0.2-0.106,0.456-0.227,0.675-0.338c-0.026,0.075,0.092,0.012,0.253-0.059
	c0.16-0.072,0.358-0.161,0.477-0.157c0.028-0.051,0.225-0.146,0.424-0.232c0.2-0.084,0.4-0.166,0.43-0.211
	c0.352-0.14,0.341-0.061,0.439-0.073c0,0,0.038-0.022,0.076-0.045c0.039-0.021,0.078-0.042,0.078-0.042
	c0.193-0.026,0.86-0.269,1.272-0.368l0.354-0.181l0.147-0.016c0.055-0.035,0.363-0.144,0.164-0.106c0,0,0.051-0.015,0.102-0.03
	c0.051-0.014,0.102-0.027,0.102-0.027c-0.004-0.074,0.281-0.102,0.683-0.249c0.098-0.016,0.078,0.008-0.009,0.042
	c0.204-0.058,0.126,0.003,0.244-0.006c-0.151,0.019,0.706-0.319,0.144-0.206c-0.047-0.019,0.272-0.123,0.478-0.163l0.14,0.03
	l0.226-0.129c0.315-0.094,0.464-0.078,0.723-0.133c-0.264,0.065-0.559,0.257,0.123,0.097c-0.355,0.093-0.525,0.164-0.705,0.227
	c0.141-0.034,0.212-0.046,0.001,0.037c0.524-0.149,0.167-0.081,0.691-0.213c-0.016,0.063,0.136,0.046,0.599-0.041L18.188,4.69
	c0.015-0.011,0.036-0.022,0.063-0.031c-0.132,0.024-0.171,0.024-0.204,0.009c0.092-0.02,0.486-0.171,0.643-0.192
	c-0.407,0.003,0.953-0.262,0.613-0.245c0.058-0.029,0.429-0.11,0.472-0.088c-0.218,0.066-0.131,0.065,0.002,0.055
	c0.134-0.008,0.314-0.025,0.281,0.001c0.163-0.046-0.357,0.022-0.138-0.04c0.265-0.053,0.466-0.053,0.618-0.062l-0.109,0.031
	l0.414-0.05c0.062-0.04-0.405,0.025-0.03-0.059c0.102-0.009,0.479-0.085,0.471-0.06c-0.174,0.069-0.034,0.096-0.354,0.163
	c0.266-0.052,1.118-0.191,0.765-0.19l0.32-0.049c-0.204,0.008-0.773,0.055-0.132-0.056l-0.004,0.012l0.44-0.114l0.2,0.002
	c-0.008-0.014,0.061-0.037,0.228-0.058c0.045,0.011,0.203-0.003,0.193,0.021c0.481-0.068,0.438-0.092,0.5-0.118
	c0.269-0.042,0.372-0.038,0.25,0.009c0.371-0.035,1.017-0.116,1.271-0.115c0.494-0.074-0.104-0.003,0.184-0.07
	c0.22,0.03,0.63,0.002,1.088-0.045c0.367-0.035,0.765-0.073,1.117-0.107c0.017,0.004,0.041,0.009,0.082,0.014
	c0.312-0.02,0.547-0.081,0.847-0.107c0.051,0.009,0.015,0.023-0.247,0.045l0.434-0.031c0.299,0.033-0.716,0.073-0.264,0.116
	c0.188-0.01,0.351-0.034,0.512-0.059c0.442-0.008,0.461-0.032,0.465-0.061c0.12-0.01,0.251-0.015,0.399-0.01
	c-0.191,0.068,0.441-0.034,0.3,0.039c-0.118,0.026-0.277,0.024-0.44,0.034l0.101,0.009c0.681-0.01,0.618-0.041,0.628-0.078
	c0.091-0.004,0.184-0.011,0.25-0.019c-0.088,0.01-0.172,0.013-0.247,0.012c0.011-0.019,0.054-0.039,0.234-0.059
	c0.65-0.026,0.514,0.041,0.552,0.067c0.102,0.011,0.429-0.002,0.6-0.02c-0.396,0.042-0.734-0.032-0.552-0.073
	c0.287,0.068,0.966-0.004,1.143-0.034c-0.931-0.065-0.644,0.002-1.52-0.068c-0.046,0.01-0.071,0.025-0.113,0.04
	c-0.334-0.014-0.326,0.013-0.924-0.043c-0.075,0.017-0.088,0.052-0.255,0.068c0.02-0.031,0.24-0.077-0.192-0.073l-0.046,0.044
	c-0.054-0.003-0.13-0.004-0.164-0.007c0.019,0.007,0.015,0.012-0.005,0.017c-0.031-0.003-0.097,0-0.237,0.014
	c0.237-0.057-0.075-0.066,0.524-0.111c-0.332-0.016-0.59,0.003-0.826,0.034c-0.032-0.001-0.069-0.002-0.118-0.002l-0.021,0.021
	c-0.056,0.009-0.111,0.018-0.167,0.027C28.053,2.987,27.995,2.988,27.865,3c0.211-0.055-0.066-0.069,0.467-0.1
	c-0.64-0.056-0.977,0.085-1.469,0.139c0.051-0.008,0.056-0.02,0.106-0.028c-0.106,0.028-0.297,0.037-0.442,0.049
	c-0.002,0-0.003,0-0.005,0c0.097-0.028,0.156-0.053,0.244-0.076c0,0-0.025,0.004-0.064,0.011c0.005-0.003,0.004-0.005-0.005-0.007
	c0,0-0.132,0.006-0.265,0.017c-0.132,0.01-0.264,0.02-0.264,0.02c-0.011-0.003-0.014-0.003-0.014-0.005
	c-0.051,0.008-0.1,0.015-0.146,0.02c0.018-0.003,0.037-0.006,0.062-0.009l-0.153,0.016c-0.034,0.001-0.065,0-0.082-0.006
	c0.154-0.039,0.215-0.072,0.319-0.103l-0.551,0.1c0.059-0.033-0.462-0.016-0.068-0.065c0,0-0.205,0.018-0.41,0.036
	c-0.205,0.022-0.41,0.044-0.41,0.044L24.64,3.001c-0.195,0.029-0.2,0.041,0.035,0.026c-0.281,0.013-1.233,0.216-1.097,0.091
	c-0.638,0.125-0.872,0.122-1.645,0.255c0.59-0.134-0.693,0.026-0.063-0.085c-0.374,0.025-0.443,0.099-0.732,0.148
	c-0.277,0.013-0.164-0.06,0.129-0.122l-0.344,0.074l0.004-0.012l-0.296,0.08c-0.323,0.02-0.076-0.047-0.407-0.002L20.16,3.516
	l-0.228,0.006c0.087,0.01-0.106,0.051-0.345,0.093l0.003-0.012l-0.288,0.062c0.281-0.083-0.267,0.038-0.142-0.023
	c-0.248,0.043-0.253,0.044-0.7,0.136l0.086,0.02c-0.578,0.139-0.035-0.049-0.508,0.043l0.038,0.034
	c-0.692,0.072-1.143,0.274-1.649,0.352c0.283-0.076,0.201-0.105,0.198-0.092c-0.214,0.054-0.496,0.124-0.779,0.195
	c-0.282,0.077-0.564,0.161-0.778,0.241c-0.176-0.013-0.221-0.028-0.68,0.076c-0.328,0.098-0.375,0.117-0.473,0.181
	c-0.325,0.064-0.907,0.286-0.936,0.25c-0.062,0.056-0.285,0.084-0.45,0.167l-0.042-0.005l0.04,0.03
	c-0.294,0.045-0.522,0.146-0.753,0.239c-0.229,0.096-0.461,0.189-0.75,0.262l0.092-0.047l-0.228,0.105
	c-0.043-0.002,0.048-0.049,0.051-0.075c0,0-0.271,0.103-0.543,0.205c-0.137,0.049-0.27,0.108-0.37,0.149
	c-0.102,0.042-0.168,0.07-0.168,0.07l0.222-0.062c-0.224,0.1-0.359,0.2-0.626,0.286c0.402-0.239-0.356,0.149-0.44,0.145l0.22-0.12
	C8.926,6.574,8.926,6.574,8.968,6.6C8.575,6.8,8.66,6.656,8.31,6.872c0,0,0.065-0.033,0.131-0.062c0.066-0.03,0.133-0.06,0.133-0.06
	c0.088-0.014-0.089,0.1-0.262,0.188c-0.044,0.015-0.174,0.062-0.045-0.01c-0.301,0.176-0.78,0.388-0.903,0.485
	c-0.171,0.082-0.13,0.026-0.047-0.034C7,7.578,6.927,7.618,6.852,7.658c-0.074,0.04-0.151,0.076-0.458,0.294L6.392,7.926
	L6.189,8.086c0,0-0.084,0.039-0.169,0.078c-0.085,0.038-0.168,0.08-0.168,0.08s0.03-0.014,0.064-0.024
	c0.031-0.012,0.063-0.023,0.063-0.023C5.775,8.334,5.661,8.441,5.417,8.594L5.493,8.5C5.353,8.605,5.239,8.68,5.142,8.749
	c-0.098,0.069-0.179,0.127-0.26,0.185c-0.08,0.057-0.16,0.115-0.25,0.186C4.54,9.188,4.443,9.277,4.327,9.399
	C4.289,9.425,4.36,9.348,4.396,9.308c-0.422,0.457-0.402,0.254-0.792,0.753c0.019-0.036-0.04,0.003-0.029-0.021l-0.184,0.22
	l-0.019-0.047c0,0-0.03,0.051-0.055,0.108c-0.024,0.056-0.05,0.112-0.05,0.112l-0.15,0.104l-0.055,0.1
	c-0.065,0.045-0.13,0.102-0.193,0.167c-0.065,0.065-0.118,0.147-0.179,0.228c-0.059,0.082-0.119,0.167-0.184,0.251
	c-0.032,0.042-0.065,0.084-0.101,0.125c-0.031,0.043-0.062,0.087-0.097,0.129l0.086-0.033c-0.054,0.125-0.114,0.251-0.179,0.378
	c-0.032,0.064-0.068,0.126-0.1,0.193c-0.029,0.068-0.059,0.137-0.089,0.206c-0.06,0.139-0.129,0.277-0.188,0.422
	c-0.053,0.149-0.106,0.3-0.16,0.454c-0.062,0.151-0.086,0.316-0.127,0.477l-0.055,0.245c-0.021,0.082-0.02,0.167-0.029,0.25
	c-0.013,0.168-0.033,0.337-0.031,0.505c0.01,0.168,0.023,0.335,0.041,0.5l-0.047-0.019C1.433,15.116,1.45,15.254,1.494,15.386z
	 M11.098,22.761l0.02,0.005c0.015,0.007,0.029,0.015,0.046,0.022C11.142,22.778,11.12,22.77,11.098,22.761z M12.134,23.158
	c-0.228-0.069-0.482-0.17-0.758-0.283C11.6,22.96,11.882,23.056,12.134,23.158z M10.994,22.688c0.024,0.024,0.065,0.048,0.118,0.075
	c-0.153-0.042-0.259-0.056-0.349-0.093c0.273,0.129,0.191,0.111,0.203,0.157c-0.174-0.103-0.323-0.139-0.502-0.185
	c-0.178-0.051-0.386-0.111-0.678-0.256c0.019-0.017,0.174,0.019,0.329,0.111c0.192,0.018,0.258-0.001,0.49,0.054
	c0.048,0.026,0.08,0.048,0.09,0.063C10.663,22.578,10.693,22.56,10.994,22.688z M10.331,22.417c0.082,0.038,0.156,0.073,0.218,0.104
	C10.411,22.471,10.311,22.426,10.331,22.417z M27.177,3.103c0.01-0.004,0.02-0.008,0.027-0.012c0.002,0.003,0.008,0.005,0.021,0.008
	c-0.014,0.001-0.027,0.003-0.041,0.004C27.181,3.103,27.18,3.103,27.177,3.103z M27.537,3.191c-0.005-0.016,0.074-0.02,0.17-0.028
	C27.684,3.172,27.613,3.181,27.537,3.191z M29.061,3.03l-0.005,0.004c-0.008,0-0.015,0-0.022,0
	C29.044,3.032,29.052,3.031,29.061,3.03z M11.884,5.956c-0.002,0.005-0.002,0.008-0.003,0.012c-0.099,0.036-0.216,0.078-0.312,0.138
	l-0.047,0.001l0.046,0.024c-0.219,0.061-0.405,0.134-0.581,0.215C11.128,6.244,11.546,6.08,11.884,5.956z M2.155,14.435
	c0.008-0.112,0.017-0.235,0.029-0.415c0.015,0.054,0.059-0.105,0.042,0.161c0.006-0.043,0.011-0.091,0.016-0.142
	c0.009-0.05,0.019-0.102,0.028-0.152c0.017-0.1,0.025-0.193,0.019-0.248c-0.052,0.189-0.029,0.03-0.008-0.144
	c0.034-0.171,0.085-0.354,0.012-0.22l0.149-0.371c-0.027,0.086-0.009,0.104-0.055,0.229c0.042-0.046,0.062-0.123,0.077-0.208
	c0.019-0.082,0.041-0.169,0.066-0.234c0.031-0.063,0.088-0.176,0.138-0.277c0.046-0.103,0.111-0.181,0.125-0.19
	c0.051-0.116,0.212-0.381,0.266-0.415c0.101-0.16-0.02-0.031-0.003-0.085c0,0,0.094-0.131,0.188-0.263
	c0.047-0.066,0.094-0.132,0.129-0.181c0.036-0.049,0.063-0.079,0.063-0.079c0.046-0.008,0.144,0.001,0.091,0.082
	c0.134-0.203-0.013-0.12,0.227-0.402c-0.046,0.1,0.04,0.014,0.119-0.062c0.082-0.074,0.163-0.132,0.081-0.001
	c0.089-0.061,0.236-0.198,0.391-0.352c0.037-0.039,0.076-0.078,0.114-0.117c0.041-0.037,0.081-0.074,0.12-0.11
	c0.079-0.072,0.151-0.141,0.211-0.199c0.123-0.171-0.285,0.221-0.301,0.172c0.172-0.159,0.298-0.287,0.399-0.397
	C4.988,9.708,5.075,9.628,5.15,9.546c0.076-0.08,0.148-0.155,0.235-0.235c0.085-0.083,0.191-0.166,0.339-0.26L5.568,9.145
	C5.91,8.873,5.873,8.905,6.06,8.726C5.992,8.838,6.554,8.574,7.164,8.2C7.183,8.173,7.089,8.21,6.999,8.243
	c-0.088,0.033-0.17,0.066-0.132,0.015c0,0,0.1-0.066,0.204-0.125c0.102-0.062,0.205-0.122,0.205-0.122
	C7.31,7.998,7.269,8.032,7.218,8.068C7.4,7.954,7.582,7.871,7.729,7.803C7.877,7.738,7.991,7.689,8.03,7.631l0.425-0.124
	L8.285,7.553c0.04-0.054,0.465-0.28,0.553-0.327C9.272,6.992,9.441,6.93,9.704,6.862C9.617,6.874,9.398,6.908,9.751,6.748
	c0.033,0.088,0.762-0.287,0.77-0.235c0.146-0.058,0.415-0.13,0.419-0.173l-0.002,0.028c-0.066,0.031-0.131,0.064-0.195,0.097
	c-0.248,0.132-0.495,0.264-0.814,0.37l0.1-0.059c0,0-0.062,0.032-0.124,0.068C9.844,6.88,9.783,6.916,9.783,6.916
	C9.736,6.92,9.832,6.858,9.834,6.832c0,0-0.292,0.148-0.584,0.296C9.103,7.2,8.959,7.278,8.853,7.34
	C8.745,7.4,8.674,7.44,8.674,7.44l0.238-0.101c-0.237,0.14-0.379,0.265-0.665,0.4c0.212-0.156,0.116-0.104-0.042-0.008
	c-0.156,0.1-0.376,0.242-0.425,0.245l0.23-0.164C7.687,8.021,7.687,8.021,7.736,8.038C7.528,8.176,7.447,8.208,7.372,8.243
	C7.297,8.276,7.228,8.311,7.051,8.461l0.27-0.188C7.414,8.237,7.24,8.401,7.06,8.526c-0.046,0.025-0.183,0.1-0.05-0.001
	C6.851,8.64,6.656,8.792,6.484,8.928C6.312,9.064,6.158,9.177,6.1,9.245C5.931,9.378,5.965,9.309,6.045,9.224
	C5.44,9.821,5.74,9.459,5.167,10.095l-0.006-0.026c0,0-0.186,0.228-0.181,0.232l-0.308,0.29l0.12-0.097
	c-0.087,0.11-0.158,0.2-0.232,0.294c-0.068,0.1-0.14,0.204-0.24,0.335l0.049-0.128c-0.108,0.168-0.208,0.292-0.278,0.408
	c-0.073,0.116-0.135,0.214-0.195,0.31c-0.131,0.188-0.222,0.398-0.355,0.759c-0.027,0.046,0.011-0.068,0.03-0.127
	c-0.065,0.167-0.096,0.287-0.126,0.378c-0.031,0.091-0.059,0.154-0.086,0.217c-0.025,0.063-0.057,0.126-0.08,0.221
	c-0.02,0.096-0.038,0.221-0.056,0.403c-0.003-0.046-0.031,0.03-0.036,0c0,0-0.01,0.083-0.019,0.166
	c-0.007,0.041-0.003,0.083-0.004,0.115c0,0.031,0,0.052,0,0.052L3.119,13.87l0.05,0.278L3.11,14.351c0,0,0.004,0.032,0.008,0.065
	c0.008,0.032,0.015,0.064,0.015,0.064c-0.031,0.178-0.031,0.398-0.007,0.629c0.019,0.115,0.039,0.234,0.059,0.355
	c0.02,0.121,0.028,0.247,0.055,0.366l0.031-0.095c0.217,0.58,0.483,1.214,0.849,1.837c0.369,0.618,0.849,1.197,1.379,1.678
	l-0.051,0.016l0.477,0.354c0.212,0.238-0.168-0.097-0.11-0.014c0.243,0.204,0.309,0.227,0.379,0.264
	c0.071,0.036,0.151,0.082,0.441,0.302c0.275,0.253-0.123-0.052-0.271-0.149c0.271,0.211,0.625,0.44,0.953,0.663
	c0.332,0.217,0.649,0.407,0.845,0.548c0.012,0.001,0.042,0.009,0.022-0.006c0.202,0.103,0.429,0.232,0.66,0.366
	c0.23,0.138,0.474,0.256,0.693,0.372c-0.021,0.014-0.131-0.039-0.243-0.093c0.157,0.085,0.367,0.209,0.514,0.26l-0.184-0.05
	c0.184,0.102,0.475,0.228,0.708,0.335l-0.089,0.027c-0.137-0.059-0.245-0.105-0.348-0.15c-0.074,0.012,0.251,0.178-0.077,0.067
	c-0.367-0.133-0.164-0.14-0.231-0.138c-0.497-0.2-0.23-0.031-0.689-0.268c0.049,0.017,0.145,0.049,0.183,0.074
	c-0.161-0.091-0.37-0.18-0.542-0.272c-0.17-0.092-0.31-0.175-0.34-0.233c0.057,0.01,0.076-0.005,0.197,0.064l-0.011,0.008
	c0.356,0.125-0.209-0.102-0.181-0.139c-0.086-0.016-0.459-0.212-0.628-0.324l0.041,0.077c-0.742-0.262,0.081-0.059-0.591-0.422
	c-0.425-0.231,0.148,0.108-0.119-0.022c-0.271-0.185-0.359-0.274-0.763-0.527c-0.099-0.092-0.306-0.267-0.292-0.323
	c-0.062-0.038-0.139-0.087-0.216-0.146c-0.076-0.062-0.157-0.128-0.236-0.191c-0.156-0.127-0.305-0.24-0.384-0.273
	c0.177,0.171,0.283,0.235,0.393,0.309c0.112,0.073,0.223,0.161,0.441,0.351l-0.162-0.052c-0.162-0.117-0.34-0.259-0.51-0.386
	c-0.172-0.125-0.317-0.256-0.413-0.355c0.035,0.044,0.045,0.071,0.012,0.056c-0.44-0.359-0.584-0.447-0.953-0.857
	c-0.017-0.082,0.197,0.157,0.366,0.32c-0.11-0.14-0.174-0.206-0.258-0.289C3.851,18.32,3.761,18.213,3.59,18
	c0.014-0.048,0.233,0.283,0.304,0.305l-0.395-0.453c0.004,0,0.004-0.003,0.007-0.005c-0.055-0.013-0.117-0.109-0.197-0.235
	c-0.076-0.128-0.184-0.278-0.274-0.435c-0.103-0.188-0.201-0.328-0.267-0.451c-0.065-0.123-0.122-0.22-0.176-0.306
	c-0.117-0.169-0.183-0.306-0.285-0.527c-0.02-0.128-0.016-0.168,0.018-0.121c0.034,0.21,0.046,0.168,0.085,0.233
	c-0.109-0.273-0.083-0.627-0.029-0.475c-0.103-0.439-0.006,0.168-0.077-0.1c0,0-0.007-0.038-0.018-0.096
	c-0.009-0.058-0.027-0.134-0.035-0.211c-0.008-0.155-0.017-0.31-0.017-0.31c-0.03,0.074-0.024,0.297-0.071-0.026
	c-0.006-0.069-0.011-0.128-0.016-0.185C2.145,14.545,2.151,14.491,2.155,14.435z"/>
</svg>
