<svg xmlns="http://www.w3.org/2000/svg" viewBox="0 0 62.241 25.938">
<path d="M1.057,13.22l0.06,0.209l0.06,0.21l0.031,0.105l0.041,0.102c0.055,0.136,0.109,0.272,0.165,0.409
	c0.06,0.134,0.134,0.262,0.201,0.394l0.104,0.196l0.12,0.186c0.305,0.511,0.703,0.955,1.106,1.391
	c0.839,0.84,1.808,1.534,2.795,2.116c0.25,0.14,0.493,0.291,0.745,0.417c0.251,0.128,0.501,0.254,0.747,0.379
	c0.503,0.227,0.993,0.456,1.481,0.638c1.947,0.757,3.354,1.192,4.698,1.62c1.19,0.374,2.34,0.717,3.816,1.084
	c-2.905-0.022-5.121-0.074-6.459-0.095l-2.076,0.097c1.85,0.139,5.489,0.244,9.621,0.25c0.775,0.16,1.393,0.254,1.881,0.382
	c0.592,0.144,2.063,0.246,3.087,0.402c-0.089,0.019-0.179,0.038-0.268,0.057c0.344,0.054,1.025,0.168,1.369,0.213
	c0.343,0.05,0.252,0.07,0.163,0.09c-0.18,0.041-0.358,0.08,0.238,0.2c0.358,0.056,0.718,0.112,1.08,0.168
	c0.363,0.05,0.728,0.1,1.095,0.15c0.367,0.048,0.736,0.1,1.108,0.145c0.372,0.042,0.746,0.084,1.122,0.127
	c0.748,0.049,1.49,0.081,2.227,0.111c0.737,0.035,1.469,0.054,2.196,0.071c0.087-0.037,0.188-0.073,0.393-0.094
	c0.433,0.007,0.864,0.008,1.295,0.006c0.263-0.079,0.182-0.183,0.358-0.236c0.014-0.262,1.826-0.42,1.406-0.682
	c-0.168-0.08-2.652-0.225-3.756-0.432c-0.255-0.055,0.35-0.101,0.61-0.176c-1.452-0.095-1.529-0.2-0.927-0.246
	c-0.341-0.03-0.681-0.061-0.681-0.061c0.086-0.024,0.349-0.1,0.349-0.1c-0.821-0.086-1.664-0.183-2.516-0.287
	c2.896-0.057,5.609-0.167,7.637-0.284c1.741-0.164,3.497-0.359,5.279-0.6c0.979-0.133,1.954-0.279,2.921-0.445
	c0.968-0.163,1.93-0.344,2.885-0.549c1.909-0.41,3.798-0.896,5.629-1.562c0.914-0.336,1.816-0.71,2.679-1.171
	c0.862-0.459,1.695-0.998,2.408-1.694c0.354-0.349,0.673-0.741,0.922-1.183c0.253-0.439,0.416-0.938,0.47-1.449
	c0.026-0.257,0.019-0.515-0.007-0.771c-0.035-0.255-0.088-0.507-0.167-0.75c-0.163-0.487-0.389-0.929-0.641-1.365
	c-0.368-0.627-0.946-1.378-1.699-2.099c-0.182-0.186-0.389-0.354-0.591-0.536c-0.205-0.178-0.426-0.343-0.644-0.519
	C56.996,7.6,56.771,7.43,56.536,7.271c-0.238-0.153-0.471-0.318-0.715-0.462c-0.968-0.597-1.983-1.103-2.916-1.518
	c-0.47-0.198-0.913-0.392-1.326-0.546c-0.41-0.165-0.788-0.299-1.114-0.418c0,0,0.128,0.044,0.369,0.127
	c0.242,0.078,0.59,0.215,1.036,0.382c0.883,0.35,2.145,0.87,3.565,1.69c0.711,0.406,1.454,0.901,2.191,1.49
	c0.732,0.593,1.467,1.283,2.086,2.121c0.316,0.414,0.589,0.871,0.836,1.349c0.111,0.247,0.23,0.488,0.319,0.757
	c0.089,0.266,0.15,0.544,0.184,0.829c0.063,0.569-0.011,1.163-0.223,1.701c-0.205,0.541-0.532,1.02-0.904,1.441
	c-0.753,0.843-1.689,1.457-2.633,1.971c-0.947,0.516-1.926,0.916-2.881,1.266c-1.917,0.688-3.759,1.144-5.341,1.492
	c-1.584,0.343-2.915,0.571-3.847,0.724c-0.466,0.075-0.833,0.133-1.083,0.169c-0.25,0.037-0.383,0.057-0.383,0.057
	c0.31-0.04,0.619-0.08,0.922-0.119c0,0,0.28-0.044,0.771-0.12c0.49-0.08,1.19-0.197,2.028-0.351
	c1.673-0.317,3.902-0.791,6.077-1.494c1.088-0.348,2.159-0.761,3.135-1.228c0.973-0.47,1.85-0.999,2.531-1.567
	c0.688-0.559,1.166-1.164,1.43-1.633c0.091-0.157,0.158-0.296,0.208-0.413c-0.239,0.557-0.591,1.047-0.989,1.469
	c-0.486,0.517-1.038,0.95-1.622,1.331c-1.171,0.764-2.464,1.345-3.854,1.855c-1.724,0.617-3.748,1.102-5.523,1.475
	c-1.451,0.303-2.8,0.492-4.192,0.675c0,0-0.671,0.097-1.341,0.193c-0.336,0.044-0.672,0.089-0.924,0.123
	c-0.252,0.031-0.42,0.052-0.42,0.052c-0.261,0.038-0.541,0.078-0.827,0.119c0.01,0,0.029-0.001,0.036-0.001
	c0.563-0.015,2.406-0.161,4.901-0.531c1.247-0.186,2.657-0.427,4.146-0.754c1.489-0.33,3.059-0.738,4.61-1.296
	c1.547-0.56,3.094-1.249,4.431-2.276c0.659-0.522,1.273-1.131,1.699-1.892c0.213-0.377,0.375-0.789,0.467-1.212
	c0.093-0.424,0.113-0.857,0.071-1.266c-0.042-0.41-0.142-0.795-0.274-1.145c-0.136-0.34-0.271-0.644-0.432-0.932
	c-0.311-0.574-0.653-1.067-0.994-1.476C59.151,8.65,58.526,8.122,58.146,7.8c-0.62-0.498-1.263-0.924-1.92-1.312
	c-0.334-0.181-0.661-0.375-1.004-0.536c-0.169-0.084-0.339-0.168-0.51-0.251c-0.173-0.077-0.346-0.155-0.52-0.233
	c-1.392-0.618-2.862-1.12-4.486-1.612c-1.084-0.333-2-0.617-2.854-0.779c-0.09,0.011-0.519-0.062-0.948-0.135
	c-2.199-0.464-4.414-0.898-6.142-1.003c-0.603-0.053-1.73-0.284-2.748-0.472c-1.017-0.193-1.921-0.343-2.053-0.304
	c-0.483,0.143-0.548,0.158-0.85,0.123C33.961,1.268,33.751,1.237,33.4,1.2c-0.351-0.037-0.842-0.081-1.556-0.103
	c-0.173-0.008-0.541,0.016-0.952,0.037c-0.412,0.026-0.867,0.051-1.213,0.044c-1.169-0.043-1.928-0.017-2.728,0.031
	c-0.8,0.05-1.642,0.123-2.979,0.239c-1.981,0.203-3.187,0.325-4.339,0.465c-1.149,0.146-2.247,0.31-3.966,0.769
	c-0.208,0.054-1.664,0.395-3.042,0.813c-0.69,0.206-1.361,0.428-1.858,0.602c-0.498,0.174-0.821,0.298-0.821,0.298
	c-2.05,0.702-3.643,1.48-5.04,2.356C4.211,7.192,3.562,7.66,2.954,8.2C2.35,8.742,1.77,9.349,1.312,10.14
	c-0.107,0.24-0.19,0.497-0.264,0.761c-0.064,0.268-0.115,0.544-0.131,0.829c-0.021,0.288,0.009,0.568,0.029,0.852
	c0.015,0.142,0.047,0.283,0.07,0.425C1.029,13.078,1.038,13.15,1.057,13.22z M60.881,14.916c0.015-0.035,0.028-0.068,0.039-0.098
	C60.907,14.851,60.894,14.884,60.881,14.916z M60.646,11.416c0.037,0.083,0.089,0.2,0.153,0.341
	c0.129,0.279,0.273,0.694,0.337,1.122c0.069,0.429,0.052,0.872-0.007,1.193c-0.056,0.323-0.131,0.527-0.131,0.527
	c0.176-0.54,0.225-1.133,0.135-1.703c-0.04-0.286-0.116-0.566-0.214-0.835c-0.047-0.138-0.105-0.262-0.162-0.39
	c-0.058-0.127-0.109-0.258-0.178-0.38C60.58,11.291,60.604,11.336,60.646,11.416z M40.928,21.907
	c-1.125,0.124-2.964,0.301-5.191,0.448c-1.679,0.125-3.618,0.248-5.847,0.351c-0.045-0.005-0.091-0.011-0.136-0.017
	c2.309-0.101,4.389-0.227,5.982-0.334c2.616-0.195,4.607-0.401,6.099-0.561C42.464,21.726,42.052,21.781,40.928,21.907z
	 M1.793,11.83c0.013-0.096,0.014-0.192,0.035-0.288c0.064-0.383,0.195-0.766,0.391-1.128C2.606,9.684,3.205,9.03,3.878,8.464
	c0.734-0.628,1.551-1.148,2.394-1.607c0.845-0.458,1.721-0.854,2.619-1.21c0.669-0.267,1.331-0.504,1.966-0.712
	c1.722-0.568,3.432-0.991,5.112-1.33c1.681-0.337,3.335-0.586,4.964-0.772c3.26-0.369,6.422-0.489,9.567-0.437
	c1.574,0.035,3.147,0.085,4.727,0.189c1.58,0.1,3.168,0.228,4.775,0.419c3.21,0.38,6.51,0.934,9.9,1.955
	c1.702,0.527,3.382,1.174,4.957,2.026c1.564,0.855,3.046,1.913,4.171,3.278c0.148,0.165,0.267,0.35,0.401,0.524
	c0.124,0.181,0.243,0.365,0.356,0.553c0.103,0.192,0.219,0.379,0.303,0.58c0.095,0.199,0.183,0.393,0.242,0.594
	c0.13,0.4,0.181,0.817,0.148,1.228c-0.032,0.411-0.159,0.812-0.348,1.187c-0.387,0.748-1.02,1.374-1.718,1.893
	c-0.703,0.521-1.476,0.953-2.273,1.325c-1.598,0.747-3.282,1.283-4.963,1.728c-0.841,0.222-1.684,0.419-2.525,0.594
	c-0.841,0.179-1.68,0.335-2.514,0.478c-3.339,0.568-6.599,0.916-9.694,1.161c-2.756,0.217-5.384,0.349-7.842,0.434
	c-0.538-0.071-1.076-0.144-1.613-0.219c-0.955-0.131-1.906-0.262-2.84-0.39c-0.931-0.136-1.849-0.25-2.732-0.365
	c-0.379-0.047-0.884-0.111-1.4-0.176c-0.515-0.066-1.044-0.124-1.462-0.187c-0.419-0.058-1.325-0.288-1.653-0.375
	c-0.597-0.043-0.535,0.073-0.803,0.109c-1.274-0.334-3.269-0.909-4.885-1.466c-1.62-0.549-2.868-1.061-2.857-0.879
	c-0.238-0.106-0.453-0.202-0.65-0.29c-0.193-0.093-0.37-0.176-0.536-0.252c-0.336-0.146-0.613-0.291-0.9-0.426
	c-0.564-0.283-1.148-0.574-1.982-1.235c-0.545-0.441-1.093-0.955-1.539-1.571c-0.447-0.614-0.783-1.333-0.907-2.112
	c-0.045-0.193-0.039-0.393-0.056-0.591C1.781,12.019,1.791,11.927,1.793,11.83z"/>
</svg>
