<svg xmlns="http://www.w3.org/2000/svg" width="24" height="24"><path d="M12.594 21c1.553 0 3.533-.43 4.477-.802l-.426-1.319c-.549.172-2.315.745-3.99.745-5.208 0-7.98-2.751-7.98-7.624 0-4.787 2.833-7.653 7.614-7.653 4.843 0 7.127 3.21 7.127 6.42 0 3.268-.365 4.73-1.919 4.73-.913 0-1.4-.717-1.4-1.52V7.5h-1.615v.803h-.091c-.213-.631-1.401-1.176-2.924-1.032-2.284.229-4.02 2.006-4.02 4.586 0 2.723 1.37 4.815 4.02 4.901 1.736.057 2.65-.745 3.015-1.576h.092c.182 1.232 1.827 1.662 2.893 1.662 3.228 0 3.533-3.268 3.533-6.048C21 6.87 18.076 3 12.38 3 6.504 3 3 6.354 3 11.943 3 17.733 6.38 21 12.594 21Zm-.883-5.704c-1.98 0-2.68-1.69-2.68-3.525 0-1.663 1.005-3.096 2.74-3.096 1.828 0 2.803.688 2.803 3.096 0 2.379-.823 3.525-2.863 3.525Z"/></svg>