<svg xmlns="http://www.w3.org/2000/svg"
	 viewBox="0 0 2000 2000">
	<path
		d="M1000 400c81.07 0 159.63 15.84 233.5 47.09 35.52 15.02 69.79 33.63 101.86 55.29a606.03 606.03 0 0 1 88.9 73.35 604.763 604.763 0 0 1 73.35 88.9c21.67 32.07 40.27 66.34 55.29 101.86 31.25 73.87 47.09 152.44 47.09 233.5s-15.84 159.63-47.09 233.5c-15.02 35.52-33.63 69.79-55.29 101.86a606.03 606.03 0 0 1-73.35 88.9 604.763 604.763 0 0 1-88.9 73.35c-32.07 21.67-66.34 40.27-101.86 55.29-73.87 31.25-152.44 47.09-233.5 47.09s-159.63-15.84-233.5-47.09c-35.52-15.02-69.79-33.63-101.86-55.29a606.03 606.03 0 0 1-88.9-73.35 604.763 604.763 0 0 1-73.35-88.9c-21.67-32.07-40.27-66.34-55.29-101.86-31.26-73.86-47.1-152.42-47.1-233.49s15.84-159.63 47.09-233.5c15.02-35.52 33.63-69.79 55.29-101.86a606.03 606.03 0 0 1 73.35-88.9 604.763 604.763 0 0 1 88.9-73.35c32.07-21.67 66.34-40.27 101.86-55.29C840.37 415.84 918.93 400 1000 400m0-150c-414.21 0-750 335.79-750 750s335.79 750 750 750 750-335.79 750-750-335.79-750-750-750z"/>
</svg>