<svg xmlns="http://www.w3.org/2000/svg" viewBox="0 0 24 24"><path fill-rule="evenodd" d="M3.25 12a8.75 8.75 0 1 1 17.5 0 8.75 8.75 0 0 1-17.5 0zM12 4.75a7.25 7.25 0 1 0 0 14.5 7.25 7.25 0 0 0 0-14.5zm.25 4c-.787 0-1.425.638-1.425 1.425a.92.92 0 0 0 .069.3c.04.113.088.223.147.36a26.094 26.094 0 0 1 .173.415H12.5a.75.75 0 0 1 0 1.5h-.953c.002.047.003.095.003.144 0 .617-.236 1.168-.511 1.606h3.386a.75.75 0 0 1 0 1.5H9.35a.75.75 0 0 1-.452-1.349l.007-.005a4.417 4.417 0 0 0 .596-.581c.328-.39.549-.806.549-1.171 0-.05-.002-.097-.004-.144H9.5a.75.75 0 0 1 0-1.5h.088a5.875 5.875 0 0 1-.106-.27 2.382 2.382 0 0 1-.157-.805 2.925 2.925 0 0 1 5.637-1.097.75.75 0 0 1-1.39.563 1.426 1.426 0 0 0-1.322-.891zm-3.35 5.9.45.6-.45-.6z"/></svg>