<svg xmlns="http://www.w3.org/2000/svg" viewBox="0 0 24 24"><path d="M12.75 9.333c0 .521-.102.977-.327 1.354a1.89 1.89 0 0 1-.893.774c-.545.234-1.183.227-1.544.222l-.12-.001v-1.5h.123c.414.001.715.002.948-.099a.395.395 0 0 0 .199-.166c.05-.083.114-.253.114-.584V7.2H8.8V4h3.95v5.333zm-4.8 0c0 .521-.102.977-.327 1.354a1.89 1.89 0 0 1-.893.774c-.545.234-1.183.227-1.544.222l-.12-.001v-1.5h.123c.414.001.715.002.948-.099a.394.394 0 0 0 .198-.166c.05-.083.115-.253.115-.584V7.2H4V4h3.95v5.333zM13 20H4v-1.5h9V20zm7-4H4v-1.5h16V16z"/></svg>