<svg xmlns="http://www.w3.org/2000/svg" viewBox="0 0 24 24"><path d="m4 13 .67.336.003-.005.017-.032.077-.138c.07-.122.18-.302.328-.52.298-.435.75-1.017 1.36-1.598C7.672 9.883 9.496 8.75 12 8.75c2.502 0 4.326 1.132 5.545 2.293.61.581 1.061 1.163 1.359 1.599a8.29 8.29 0 0 1 .422.689l.003.005L20 13l.671-.336-.001-.003-.003-.005-.008-.015-.027-.052a9.752 9.752 0 0 0-.489-.794c-.343-.501-.86-1.169-1.563-1.838C17.173 8.617 14.997 7.25 12 7.25c-2.997 0-5.173 1.368-6.58 2.707-.702.669-1.22 1.337-1.562 1.839a9.765 9.765 0 0 0-.516.845l-.008.015-.003.005v.003L4 13Zm8 3a3.5 3.5 0 1 0 0-7 3.5 3.5 0 0 0 0 7Z"/></svg>