<svg xmlns="http://www.w3.org/2000/svg" width="24" height="24" viewBox="0 0 24 24" class="feather feather-sun"><path d="M11.614 0.057 C 11.377 0.131,11.212 0.261,11.109 0.453 C 11.023 0.614,11.020 0.665,11.008 1.908 C 11.000 2.720,11.011 3.254,11.038 3.352 C 11.144 3.747,11.432 3.961,11.896 3.991 C 12.381 4.022,12.699 3.882,12.880 3.558 L 12.980 3.380 12.980 2.000 C 12.980 0.650,12.978 0.616,12.891 0.453 C 12.842 0.362,12.746 0.247,12.678 0.199 C 12.414 0.010,11.957 -0.050,11.614 0.057 M3.980 3.207 C 3.542 3.371,3.159 3.849,3.161 4.229 C 3.163 4.539,3.283 4.699,4.212 5.626 C 4.778 6.190,5.164 6.544,5.277 6.600 C 5.629 6.777,5.994 6.688,6.341 6.341 C 6.688 5.994,6.777 5.629,6.600 5.277 C 6.481 5.040,4.800 3.360,4.582 3.261 C 4.384 3.170,4.137 3.148,3.980 3.207 M19.540 3.207 C 19.307 3.294,19.092 3.481,18.295 4.286 C 17.802 4.785,17.456 5.169,17.401 5.277 C 17.223 5.629,17.312 5.994,17.659 6.341 C 18.006 6.688,18.371 6.777,18.723 6.599 C 18.939 6.490,20.509 4.947,20.688 4.667 C 20.935 4.283,20.866 3.902,20.482 3.519 C 20.185 3.223,19.820 3.102,19.540 3.207 M11.380 6.043 C 8.784 6.299,6.676 8.219,6.115 10.840 C 5.984 11.450,5.984 12.558,6.114 13.160 C 6.639 15.588,8.417 17.365,10.840 17.885 C 11.446 18.015,12.554 18.015,13.160 17.885 C 14.397 17.620,15.412 17.068,16.269 16.195 C 17.109 15.340,17.626 14.369,17.885 13.160 C 18.015 12.554,18.015 11.446,17.885 10.840 C 17.626 9.631,17.109 8.660,16.269 7.805 C 14.978 6.490,13.230 5.860,11.380 6.043 M12.605 8.058 C 14.074 8.280,15.310 9.324,15.797 10.755 C 15.897 11.050,16.000 11.680,16.000 12.000 C 16.000 12.322,15.897 12.951,15.796 13.245 C 15.321 14.632,14.195 15.628,12.773 15.917 C 10.563 16.368,8.396 14.845,8.058 12.605 C 7.986 12.121,7.986 11.879,8.058 11.395 C 8.314 9.698,9.675 8.324,11.358 8.061 C 11.816 7.990,12.144 7.989,12.605 8.058 M0.614 11.057 C 0.377 11.131,0.212 11.261,0.109 11.453 C 0.035 11.592,0.020 11.684,0.020 12.000 C 0.020 12.331,0.033 12.403,0.120 12.558 C 0.230 12.755,0.414 12.898,0.635 12.959 C 0.826 13.012,3.174 13.012,3.365 12.959 C 3.586 12.898,3.770 12.755,3.880 12.558 C 3.967 12.402,3.980 12.332,3.979 12.000 C 3.978 11.687,3.962 11.591,3.890 11.453 C 3.786 11.256,3.623 11.131,3.371 11.055 C 3.117 10.979,0.859 10.981,0.614 11.057 M20.614 11.057 C 20.377 11.131,20.212 11.261,20.109 11.453 C 20.035 11.592,20.020 11.684,20.020 12.000 C 20.020 12.331,20.033 12.403,20.120 12.558 C 20.230 12.755,20.414 12.898,20.635 12.959 C 20.826 13.012,23.174 13.012,23.365 12.959 C 23.586 12.898,23.770 12.755,23.880 12.558 C 23.967 12.402,23.980 12.332,23.979 12.000 C 23.978 11.687,23.962 11.591,23.890 11.453 C 23.786 11.256,23.623 11.131,23.371 11.055 C 23.117 10.979,20.859 10.981,20.614 11.057 M5.260 17.406 C 5.015 17.533,3.343 19.219,3.243 19.440 C 3.078 19.805,3.171 20.142,3.537 20.498 C 3.919 20.872,4.286 20.933,4.669 20.687 C 4.947 20.508,6.490 18.938,6.599 18.723 C 6.777 18.371,6.688 18.006,6.341 17.659 C 6.001 17.319,5.607 17.227,5.260 17.406 M17.986 17.405 C 17.617 17.599,17.311 18.033,17.311 18.360 C 17.311 18.684,17.427 18.839,18.394 19.804 C 19.389 20.798,19.495 20.871,19.864 20.830 C 20.119 20.801,20.456 20.563,20.660 20.266 C 20.804 20.055,20.820 20.008,20.820 19.785 C 20.820 19.576,20.801 19.508,20.692 19.339 C 20.515 19.064,18.942 17.511,18.732 17.405 C 18.512 17.294,18.196 17.294,17.986 17.405 M11.614 20.057 C 11.377 20.131,11.212 20.261,11.109 20.453 C 11.023 20.614,11.020 20.665,11.008 21.908 C 11.000 22.720,11.011 23.254,11.038 23.352 C 11.144 23.747,11.432 23.961,11.896 23.991 C 12.381 24.022,12.699 23.882,12.880 23.558 L 12.980 23.380 12.980 22.000 C 12.980 20.650,12.978 20.616,12.891 20.453 C 12.842 20.362,12.746 20.247,12.678 20.199 C 12.414 20.010,11.957 19.950,11.614 20.057 " stroke="none" fill="black" fill-rule="evenodd"></path></svg>