<svg xmlns="http://www.w3.org/2000/svg" viewBox="0 0 24 24"><path d="M11.340 2.023 C 10.422 2.115,9.894 2.213,9.280 2.409 C 7.819 2.873,6.659 3.836,6.104 5.045 C 5.919 5.447,5.723 6.079,5.696 6.354 C 5.671 6.625,5.754 6.791,5.965 6.888 C 6.127 6.963,8.786 7.258,8.956 7.221 C 9.151 7.178,9.306 6.955,9.396 6.585 C 9.626 5.642,10.488 5.037,11.600 5.037 C 12.265 5.037,12.643 5.167,13.027 5.530 C 13.446 5.927,13.558 6.331,13.559 7.450 C 13.560 8.092,13.551 8.200,13.500 8.200 C 13.330 8.200,11.416 8.417,10.855 8.500 C 8.794 8.805,7.573 9.312,6.618 10.260 C 5.541 11.330,5.044 12.862,5.244 14.500 C 5.504 16.630,6.761 17.927,8.831 18.204 C 9.269 18.263,10.329 18.229,10.820 18.141 C 11.905 17.946,12.786 17.470,13.724 16.570 C 13.936 16.367,14.119 16.200,14.130 16.200 C 14.141 16.200,14.317 16.435,14.521 16.721 C 14.982 17.369,15.669 18.052,15.930 18.123 C 16.195 18.194,16.350 18.098,17.289 17.280 C 17.756 16.873,18.264 16.431,18.419 16.297 C 18.574 16.164,18.725 16.003,18.756 15.939 C 18.848 15.750,18.760 15.531,18.381 15.006 C 18.195 14.748,17.972 14.385,17.886 14.199 C 17.576 13.530,17.590 13.737,17.559 9.620 C 17.530 5.674,17.532 5.720,17.317 5.019 C 16.753 3.178,14.876 2.079,12.200 2.022 C 11.815 2.014,11.428 2.015,11.340 2.023 M13.560 11.430 C 13.560 12.092,13.541 12.495,13.498 12.760 C 13.249 14.298,12.269 15.364,11.096 15.370 C 10.495 15.373,10.038 15.144,9.730 14.686 C 9.464 14.290,9.381 13.967,9.381 13.320 C 9.380 12.704,9.424 12.476,9.630 12.040 C 9.734 11.820,9.848 11.664,10.056 11.456 C 10.665 10.846,11.758 10.496,13.090 10.484 L 13.560 10.480 13.560 11.430 M20.540 17.205 C 19.953 17.278,19.250 17.530,18.890 17.795 C 18.716 17.923,18.667 18.062,18.779 18.105 C 18.812 18.118,19.183 18.097,19.603 18.059 C 20.412 17.985,21.205 17.994,21.420 18.078 C 21.486 18.104,21.581 18.163,21.630 18.210 C 21.829 18.396,21.709 19.146,21.312 20.197 C 20.999 21.027,21.002 21.014,21.048 21.070 C 21.130 21.168,21.251 21.116,21.500 20.877 C 21.932 20.463,22.258 19.910,22.500 19.187 C 22.734 18.488,22.816 17.733,22.683 17.486 C 22.550 17.237,21.446 17.092,20.540 17.205 M1.280 17.680 C 1.220 17.793,1.268 17.864,1.608 18.164 C 3.933 20.215,6.879 21.498,10.200 21.906 C 11.014 22.006,12.866 22.006,13.680 21.906 C 15.870 21.637,17.994 20.966,19.620 20.029 C 20.004 19.808,20.597 19.412,20.730 19.288 C 20.943 19.089,20.825 18.760,20.542 18.760 C 20.475 18.760,20.174 18.858,19.873 18.977 C 18.464 19.535,16.883 19.963,15.340 20.203 C 13.561 20.481,11.499 20.515,9.700 20.298 C 7.021 19.974,4.374 19.144,2.113 17.918 C 1.501 17.587,1.353 17.544,1.280 17.680 " stroke="none" fill-rule="evenodd" ></path></svg>
