<svg xmlns="http://www.w3.org/2000/svg" viewBox="0 0 24 24"><path d="M2.000 11.860 L 2.000 18.000 5.170 18.000 C 8.572 18.000,8.753 17.991,9.519 17.795 C 10.994 17.416,11.947 16.513,12.228 15.227 C 12.330 14.761,12.311 13.951,12.186 13.471 C 11.964 12.615,11.459 11.960,10.740 11.593 C 10.542 11.492,10.311 11.388,10.228 11.361 L 10.075 11.312 10.388 11.130 C 10.800 10.891,11.265 10.422,11.434 10.078 C 11.503 9.936,11.598 9.667,11.645 9.481 C 11.719 9.186,11.728 9.066,11.709 8.561 C 11.693 8.118,11.668 7.914,11.600 7.700 C 11.322 6.815,10.711 6.245,9.720 5.945 C 9.012 5.730,8.812 5.720,5.265 5.720 L 2.000 5.720 2.000 11.860 M15.049 7.130 L 15.060 7.740 17.550 7.750 L 20.040 7.761 20.040 7.140 L 20.040 6.520 17.539 6.520 L 15.038 6.520 15.049 7.130 M7.831 7.841 C 8.372 7.929,8.780 8.177,8.972 8.535 C 9.050 8.681,9.060 8.760,9.060 9.220 C 9.060 9.727,9.057 9.745,8.936 9.960 C 8.783 10.232,8.515 10.442,8.164 10.565 C 7.908 10.655,7.850 10.658,6.310 10.672 L 4.720 10.686 4.720 9.243 L 4.720 7.800 6.150 7.800 C 6.936 7.800,7.693 7.819,7.831 7.841 M16.980 8.882 C 15.507 9.081,14.147 10.071,13.564 11.370 C 13.037 12.545,12.955 13.968,13.343 15.205 C 13.902 16.984,15.234 18.024,17.192 18.209 C 18.320 18.315,19.491 18.044,20.305 17.490 C 20.568 17.310,21.002 16.873,21.187 16.600 C 21.351 16.359,21.611 15.842,21.735 15.510 L 21.836 15.240 20.762 15.240 L 19.688 15.240 19.567 15.453 C 19.247 16.021,18.511 16.400,17.729 16.400 C 16.442 16.400,15.696 15.705,15.574 14.390 L 15.549 14.120 18.774 14.120 L 22.000 14.120 22.000 13.689 C 22.000 12.890,21.877 12.222,21.597 11.499 C 21.370 10.916,21.089 10.485,20.642 10.036 C 20.059 9.451,19.425 9.100,18.660 8.940 C 18.279 8.861,17.372 8.829,16.980 8.882 M18.290 10.786 C 18.715 10.912,19.022 11.170,19.252 11.593 C 19.363 11.795,19.520 12.333,19.520 12.506 L 19.520 12.600 17.540 12.600 C 15.644 12.600,15.560 12.597,15.560 12.526 C 15.560 12.391,15.714 11.849,15.800 11.679 C 15.982 11.324,16.489 10.898,16.857 10.793 C 17.279 10.672,17.893 10.669,18.290 10.786 M8.151 12.561 C 8.857 12.676,9.343 13.046,9.508 13.593 C 9.609 13.930,9.605 14.632,9.500 14.917 C 9.341 15.350,8.897 15.704,8.340 15.841 C 8.204 15.875,7.593 15.896,6.430 15.909 L 4.720 15.927 4.720 14.223 L 4.720 12.520 6.310 12.520 C 7.198 12.520,8.011 12.539,8.151 12.561 " stroke="none" fill-rule="evenodd" ></path></svg>
