<svg xmlns="http://www.w3.org/2000/svg" xml:space="preserve" viewBox="0 0 1230.9 1230.9"><path d="M1062.5 300 665.1 70.6c-30.7-17.7-68.6-17.7-99.3 0L175.9 295.7l-7.4 4.3c-30.7 17.7-49.7 50.5-49.7 86v458.8c0 35.5 18.9 68.3 49.7 86L558.3 1156l7.4 4.3c30.7 17.7 68.6 17.7 99.3 0l7.4-4.3 389.9-225.1c30.7-17.7 49.7-50.5 49.7-86V386c.1-35.5-18.8-68.3-49.5-86zm-64.6 121.7v414.6l-23.4 13.5-99.2 57.2-175.6 101.4-27.1 15.7V592.9c0-6.5-3.4-12.4-9-15.7L290.1 361.7l202.8-117.1 99.1-57.2 23.4-13.5 23.4 13.5 167.8 96.9 167.8 96.9 23.4 13.5v27z"/></svg>