<svg xmlns="http://www.w3.org/2000/svg" viewBox="0 0 24 24"><path d="M6.746 2.039 C 6.181 2.142,5.606 2.396,5.167 2.736 C 4.768 3.046,2.633 5.237,2.486 5.489 C 2.184 6.004,2.042 6.487,2.011 7.110 C 1.969 7.951,2.150 8.610,2.612 9.300 C 2.785 9.558,5.044 11.861,5.698 12.445 C 6.126 12.829,6.661 13.131,7.140 13.261 C 7.510 13.362,8.393 13.385,8.791 13.304 C 9.378 13.185,9.906 12.927,10.373 12.531 C 10.509 12.415,10.629 12.321,10.641 12.321 C 10.652 12.320,10.893 12.553,11.177 12.837 L 11.694 13.355 11.537 13.541 C 11.151 13.999,10.954 14.345,10.776 14.880 C 10.669 15.202,10.663 15.258,10.662 15.940 C 10.661 16.651,10.662 16.665,10.792 17.040 C 11.049 17.783,11.141 17.899,12.800 19.574 C 13.625 20.407,14.417 21.178,14.560 21.288 C 15.505 22.011,16.838 22.196,17.948 21.757 C 18.591 21.504,18.766 21.362,20.121 20.004 C 21.413 18.708,21.537 18.559,21.744 18.046 C 21.944 17.551,21.980 17.338,21.977 16.680 C 21.975 16.125,21.963 16.023,21.867 15.708 C 21.615 14.886,21.473 14.704,19.725 12.956 C 18.166 11.398,17.973 11.233,17.385 10.958 C 16.923 10.743,16.650 10.679,16.080 10.654 C 15.673 10.636,15.509 10.647,15.195 10.712 C 14.614 10.832,13.994 11.144,13.571 11.527 C 13.478 11.611,13.388 11.680,13.370 11.680 C 13.353 11.680,13.107 11.447,12.823 11.163 L 12.306 10.645 12.463 10.459 C 12.853 9.997,13.050 9.648,13.220 9.120 C 13.311 8.840,13.334 8.684,13.350 8.235 C 13.373 7.607,13.331 7.306,13.154 6.816 C 12.929 6.194,12.764 5.993,11.126 4.347 C 10.298 3.515,9.514 2.754,9.385 2.656 C 9.080 2.425,8.651 2.221,8.255 2.117 C 7.900 2.024,7.068 1.981,6.746 2.039 M7.860 4.491 C 8.005 4.566,8.438 4.974,9.448 5.987 C 11.011 7.556,11.018 7.565,11.010 8.068 C 11.005 8.387,10.925 8.615,10.741 8.832 L 10.629 8.964 10.285 8.628 C 9.889 8.241,9.679 8.120,9.357 8.090 C 8.997 8.058,8.710 8.166,8.436 8.438 C 8.158 8.715,8.060 8.969,8.090 9.339 C 8.118 9.688,8.208 9.849,8.610 10.266 L 8.963 10.631 8.814 10.755 C 8.523 10.995,8.057 11.067,7.657 10.935 C 7.482 10.876,7.300 10.710,6.011 9.426 C 4.951 8.372,4.538 7.935,4.476 7.802 C 4.356 7.547,4.335 7.227,4.419 6.937 C 4.485 6.708,4.521 6.667,5.514 5.668 C 6.078 5.100,6.600 4.598,6.673 4.552 C 7.025 4.334,7.506 4.309,7.860 4.491 M16.420 13.096 C 16.576 13.170,16.940 13.513,18.065 14.645 C 19.645 16.236,19.640 16.230,19.640 16.700 C 19.640 17.154,19.605 17.203,18.464 18.352 C 17.259 19.566,17.182 19.621,16.680 19.619 C 16.153 19.617,16.152 19.616,14.573 18.028 C 13.003 16.449,12.991 16.434,12.991 15.944 C 12.991 15.620,13.070 15.392,13.258 15.169 L 13.369 15.037 13.735 15.390 C 14.144 15.785,14.308 15.879,14.638 15.909 C 15.011 15.943,15.286 15.840,15.563 15.563 C 15.840 15.286,15.943 15.011,15.909 14.638 C 15.879 14.308,15.785 14.144,15.392 13.737 L 15.041 13.373 15.130 13.295 C 15.390 13.067,15.564 13.004,15.940 13.002 C 16.154 13.001,16.267 13.023,16.420 13.096 " stroke="none" fill-rule="evenodd" ></path></svg>
