<svg xmlns="http://www.w3.org/2000/svg" viewBox="0 0 24 24"><path d="M11.740 2.043 C 11.674 2.063,9.505 3.488,6.920 5.210 C 3.494 7.492,2.196 8.377,2.130 8.475 C 2.081 8.550,2.023 8.676,2.001 8.755 C 1.946 8.952,1.946 15.048,2.001 15.245 C 2.023 15.324,2.081 15.450,2.130 15.525 C 2.196 15.623,3.472 16.495,6.820 18.727 C 9.350 20.414,11.509 21.841,11.618 21.897 C 11.879 22.033,12.120 22.033,12.382 21.898 C 12.491 21.842,14.650 20.416,17.180 18.728 C 20.527 16.496,21.804 15.623,21.870 15.525 C 21.919 15.450,21.977 15.324,21.999 15.245 C 22.054 15.048,22.054 8.952,21.999 8.755 C 21.977 8.676,21.919 8.550,21.870 8.475 C 21.804 8.377,20.507 7.492,17.080 5.210 C 14.495 3.489,12.317 2.062,12.240 2.040 C 12.074 1.993,11.904 1.994,11.740 2.043 M11.102 8.469 C 11.092 8.496,10.257 9.069,9.246 9.742 L 7.409 10.967 5.898 9.959 L 4.388 8.951 7.744 6.723 L 11.100 4.496 11.110 6.458 C 11.116 7.537,11.112 8.442,11.102 8.469 M19.095 8.609 L 19.609 8.953 18.100 9.960 L 16.591 10.967 14.736 9.733 L 12.882 8.500 12.881 6.491 L 12.880 4.483 15.730 6.374 C 17.297 7.414,18.812 8.420,19.095 8.609 M13.520 10.987 C 14.334 11.529,15.000 11.987,15.000 12.004 C 15.000 12.022,14.325 12.487,13.500 13.039 L 12.001 14.042 10.498 13.038 C 9.671 12.486,9.001 12.018,9.008 11.997 C 9.024 11.947,11.927 10.006,11.990 10.003 C 12.018 10.001,12.706 10.444,13.520 10.987 M4.815 11.300 C 5.377 11.674,5.838 11.989,5.838 12.000 C 5.838 12.020,3.823 13.368,3.756 13.393 C 3.735 13.401,3.720 12.805,3.720 12.000 C 3.720 11.195,3.735 10.599,3.756 10.607 C 3.775 10.614,4.252 10.926,4.815 11.300 M20.280 12.003 C 20.280 12.807,20.265 13.401,20.244 13.393 C 20.177 13.368,18.162 12.020,18.162 12.000 C 18.162 11.976,20.208 10.606,20.250 10.603 C 20.267 10.601,20.280 11.231,20.280 12.003 M9.290 14.297 L 11.120 15.523 11.120 17.521 L 11.120 19.518 10.310 18.986 C 9.865 18.694,8.350 17.688,6.945 16.751 L 4.390 15.047 5.885 14.046 C 6.707 13.496,7.398 13.051,7.420 13.058 C 7.442 13.066,8.284 13.623,9.290 14.297 M18.105 14.043 L 19.610 15.047 17.055 16.751 C 15.650 17.688,14.136 18.694,13.690 18.986 L 12.880 19.518 12.880 17.519 L 12.880 15.520 14.730 14.283 C 15.748 13.602,16.585 13.044,16.590 13.043 C 16.596 13.041,17.278 13.492,18.105 14.043 " stroke="none" fill-rule="evenodd" ></path></svg>
