<svg xmlns="http://www.w3.org/2000/svg" viewBox="0 0 24 24"><path d="M14.354 2.190 C 14.224 2.329,13.949 2.815,13.323 4.013 L 12.469 5.646 12.205 5.823 L 11.941 6.000 8.870 6.000 L 5.800 6.000 5.800 8.500 L 5.800 11.000 7.492 11.000 L 9.183 11.000 9.330 11.176 L 9.477 11.352 7.638 14.865 L 5.800 18.378 5.800 20.189 L 5.800 22.000 7.635 22.000 L 9.469 22.000 9.646 21.810 C 9.776 21.671,10.050 21.186,10.673 19.996 L 11.522 18.372 11.792 18.186 L 12.061 18.000 15.131 18.000 L 18.200 18.000 18.200 15.500 L 18.200 13.000 16.508 13.000 L 14.817 13.000 14.670 12.824 L 14.522 12.648 16.361 9.134 L 18.200 5.620 18.200 3.810 L 18.200 2.000 16.365 2.000 L 14.531 2.000 14.354 2.190 " stroke="none" fill-rule="evenodd" ></path></svg>
