<svg xmlns="http://www.w3.org/2000/svg" viewBox="0 0 24 24"><path d="M11.120 2.039 C 8.020 2.349,5.361 3.939,3.659 6.500 C 1.048 10.428,1.568 15.667,4.900 19.022 C 5.878 20.007,6.984 20.750,8.220 21.254 C 11.958 22.779,16.203 21.920,19.062 19.062 C 23.445 14.678,22.834 7.442,17.778 3.853 C 16.479 2.930,15.094 2.370,13.493 2.119 C 12.909 2.027,11.660 1.985,11.120 2.039 M13.420 3.597 C 14.619 3.808,15.668 4.220,16.656 4.866 C 17.051 5.125,17.572 5.522,17.621 5.601 C 17.675 5.689,17.114 6.305,16.545 6.783 C 15.749 7.451,14.713 8.076,13.704 8.499 C 13.466 8.599,13.250 8.680,13.223 8.680 C 13.196 8.680,12.997 8.370,12.781 7.990 C 12.103 6.802,11.104 5.241,10.348 4.192 C 10.179 3.957,10.040 3.748,10.040 3.728 C 10.040 3.692,10.586 3.584,11.100 3.520 C 11.588 3.459,12.881 3.502,13.420 3.597 M8.678 4.717 C 9.088 5.295,10.012 6.691,10.428 7.360 C 10.819 7.989,11.520 9.178,11.520 9.212 C 11.520 9.243,10.279 9.536,9.560 9.675 C 7.863 10.003,6.227 10.186,4.308 10.264 L 3.636 10.291 3.662 10.175 C 4.014 8.631,4.732 7.284,5.820 6.129 C 6.192 5.734,6.761 5.257,7.269 4.914 C 7.604 4.688,8.269 4.322,8.348 4.321 C 8.375 4.320,8.523 4.498,8.678 4.717 M18.884 6.970 C 19.542 7.864,20.046 8.949,20.301 10.024 C 20.419 10.520,20.520 11.268,20.520 11.647 L 20.520 11.930 20.390 11.903 C 20.112 11.845,18.956 11.682,18.480 11.633 C 17.918 11.576,15.706 11.562,15.020 11.612 L 14.580 11.644 14.463 11.352 C 14.399 11.191,14.234 10.817,14.096 10.520 L 13.845 9.980 14.032 9.903 C 14.957 9.522,16.386 8.677,17.159 8.054 C 17.573 7.720,18.249 7.071,18.440 6.824 C 18.517 6.725,18.594 6.642,18.610 6.642 C 18.627 6.641,18.750 6.788,18.884 6.970 M12.593 11.264 C 12.776 11.651,12.919 11.973,12.912 11.979 C 12.906 11.984,12.774 12.030,12.620 12.080 C 11.199 12.541,9.698 13.398,8.480 14.442 C 7.507 15.276,6.502 16.410,5.846 17.414 L 5.646 17.720 5.420 17.450 C 5.074 17.037,4.632 16.352,4.367 15.820 C 3.801 14.681,3.533 13.639,3.491 12.417 L 3.469 11.773 4.351 11.747 C 6.285 11.688,8.347 11.449,10.088 11.080 C 10.690 10.952,12.042 10.611,12.074 10.579 C 12.085 10.569,12.131 10.560,12.177 10.560 C 12.246 10.560,12.318 10.682,12.593 11.264 M18.696 12.999 C 19.333 13.096,19.689 13.167,20.130 13.285 C 20.407 13.360,20.437 13.378,20.421 13.454 C 20.411 13.501,20.349 13.769,20.282 14.049 C 19.899 15.667,18.965 17.233,17.720 18.345 C 17.369 18.658,16.803 19.099,16.784 19.074 C 16.777 19.066,16.732 18.853,16.683 18.600 C 16.417 17.232,15.976 15.572,15.481 14.080 C 15.310 13.563,15.157 13.111,15.142 13.074 C 15.119 13.019,15.164 13.002,15.447 12.965 C 16.009 12.890,16.069 12.888,17.120 12.901 C 17.903 12.911,18.269 12.934,18.696 12.999 M13.602 13.630 C 13.810 14.174,14.180 15.269,14.383 15.938 C 14.808 17.342,15.379 19.801,15.296 19.877 C 15.234 19.934,14.636 20.148,14.240 20.256 C 12.239 20.798,10.130 20.595,8.260 19.682 C 7.753 19.434,6.914 18.918,6.805 18.786 C 6.772 18.746,6.810 18.651,6.962 18.396 C 8.113 16.466,10.239 14.725,12.660 13.729 C 13.205 13.505,13.448 13.410,13.487 13.404 C 13.502 13.402,13.554 13.503,13.602 13.630 " stroke="none" fill-rule="evenodd" ></path></svg>
