<svg xmlns="http://www.w3.org/2000/svg" viewBox="0 0 24 24"><path d="M5.780 4.066 C 4.658 4.802,3.348 5.661,2.869 5.974 L 1.999 6.544 4.019 8.159 C 5.131 9.048,6.040 9.786,6.040 9.800 C 6.040 9.814,5.131 10.551,4.021 11.439 L 2.002 13.054 2.131 13.141 C 2.650 13.490,7.805 16.844,7.848 16.861 C 7.881 16.874,8.723 16.196,9.939 15.181 C 11.058 14.245,11.986 13.480,11.999 13.480 C 12.013 13.480,12.941 14.246,14.061 15.181 C 15.283 16.203,16.119 16.874,16.152 16.861 C 16.195 16.844,21.348 13.491,21.869 13.141 L 21.998 13.054 19.979 11.439 C 18.869 10.551,17.960 9.814,17.960 9.800 C 17.960 9.786,18.869 9.049,19.979 8.160 C 21.090 7.272,21.995 6.542,21.989 6.537 C 21.933 6.485,16.142 2.720,16.119 2.720 C 16.102 2.720,15.173 3.485,14.054 4.420 C 12.935 5.355,12.011 6.120,12.000 6.120 C 11.989 6.119,11.064 5.355,9.945 4.420 C 8.826 3.485,7.890 2.722,7.865 2.724 C 7.840 2.726,6.902 3.330,5.780 4.066 M14.983 7.978 L 17.926 9.795 17.773 9.894 C 17.258 10.228,12.029 13.440,12.000 13.440 C 11.971 13.440,6.723 10.217,6.227 9.894 L 6.074 9.795 9.007 7.980 C 10.620 6.982,11.962 6.164,11.990 6.163 C 12.017 6.161,13.364 6.978,14.983 7.978 M9.962 15.900 C 8.836 16.835,7.898 17.600,7.877 17.600 C 7.857 17.600,7.601 17.444,7.310 17.254 C 7.018 17.063,6.631 16.811,6.450 16.694 L 6.120 16.480 6.121 17.130 L 6.123 17.780 9.027 19.520 C 10.624 20.477,11.955 21.266,11.984 21.273 C 12.014 21.280,13.361 20.491,14.979 19.521 L 17.920 17.756 17.920 17.116 C 17.920 16.614,17.909 16.482,17.870 16.505 C 17.843 16.522,17.460 16.769,17.020 17.055 C 16.580 17.341,16.190 17.576,16.153 17.578 C 16.100 17.580,14.526 16.297,12.117 14.290 L 12.010 14.201 9.962 15.900 " stroke="none" fill-rule="evenodd" ></path></svg>
