<svg xmlns="http://www.w3.org/2000/svg" viewBox="0 0 24 24"><path d="M18.920 2.083 C 16.969 2.286,16.793 2.292,12.420 2.310 C 8.501 2.326,5.593 2.282,3.710 2.177 L 3.280 2.153 3.280 2.729 L 3.280 3.305 3.670 3.377 C 5.143 3.649,5.561 3.769,5.755 3.975 C 5.890 4.119,5.996 4.409,6.042 4.764 C 6.103 5.237,6.139 15.806,6.087 17.987 C 6.049 19.574,6.042 19.685,5.961 19.867 C 5.764 20.312,5.519 20.428,4.240 20.679 L 3.300 20.864 3.289 21.432 L 3.278 22.000 3.409 22.000 C 3.481 22.000,4.386 21.972,5.420 21.937 C 6.947 21.885,8.273 21.877,12.480 21.891 C 15.471 21.902,18.148 21.930,18.814 21.957 C 19.449 21.984,19.975 21.998,19.984 21.989 C 19.993 21.980,20.064 21.407,20.142 20.716 C 20.220 20.025,20.378 18.709,20.493 17.790 L 20.702 16.120 20.199 16.120 L 19.696 16.120 19.201 17.250 C 18.390 19.104,18.234 19.378,17.733 19.838 C 17.322 20.215,16.846 20.418,16.140 20.518 C 15.978 20.542,14.798 20.559,13.334 20.559 C 10.604 20.560,10.424 20.549,9.980 20.345 C 9.569 20.157,9.281 19.754,9.199 19.253 C 9.177 19.119,9.160 17.662,9.160 15.830 L 9.160 12.640 9.250 12.641 C 10.991 12.665,13.131 12.726,13.353 12.758 C 13.906 12.838,14.194 13.033,14.422 13.485 C 14.483 13.605,14.615 14.063,14.736 14.576 L 14.944 15.460 15.532 15.471 L 16.120 15.482 16.120 15.351 C 16.120 15.279,16.101 14.482,16.078 13.580 C 16.041 12.115,16.045 11.754,16.118 10.196 C 16.163 9.236,16.200 8.422,16.200 8.385 C 16.200 8.325,16.139 8.319,15.613 8.329 L 15.025 8.340 14.813 9.220 C 14.538 10.365,14.467 10.591,14.322 10.791 C 14.020 11.208,13.433 11.297,10.650 11.347 L 9.160 11.373 9.160 7.628 C 9.160 4.864,9.172 3.857,9.207 3.782 C 9.236 3.717,9.306 3.664,9.397 3.637 C 9.493 3.609,10.640 3.599,12.901 3.608 L 16.262 3.620 16.521 3.750 C 17.265 4.123,17.620 4.797,18.125 6.790 L 18.340 7.640 18.867 7.640 L 19.394 7.640 19.416 7.430 C 19.428 7.315,19.448 6.986,19.460 6.700 C 19.513 5.501,19.686 2.774,19.743 2.230 C 19.765 2.023,19.760 2.001,19.694 2.005 C 19.653 2.008,19.305 2.043,18.920 2.083 " stroke="none" fill-rule="evenodd" ></path></svg>
