<svg xmlns="http://www.w3.org/2000/svg" viewBox="0 0 24 24"><path d="M11.300 2.024 C 10.211 2.135,9.244 2.351,8.461 2.657 C 3.855 4.458,1.244 9.172,2.200 13.961 C 2.948 17.708,5.824 20.733,9.574 21.718 C 9.819 21.783,10.105 21.848,10.210 21.862 L 10.400 21.889 10.400 18.405 L 10.400 14.920 9.160 14.920 L 7.920 14.920 7.920 13.460 L 7.920 12.000 9.160 12.000 L 10.400 12.000 10.400 10.749 C 10.400 9.040,10.470 8.550,10.816 7.820 C 11.148 7.120,11.637 6.631,12.342 6.295 C 12.976 5.993,13.272 5.940,14.340 5.940 C 15.021 5.940,15.408 5.960,15.830 6.016 L 16.400 6.093 16.400 7.346 L 16.400 8.600 15.667 8.600 C 14.858 8.600,14.557 8.640,14.273 8.784 C 13.984 8.930,13.812 9.102,13.681 9.378 C 13.518 9.720,13.482 10.028,13.481 11.090 L 13.480 12.000 14.880 12.000 L 16.280 12.000 16.278 12.090 C 16.277 12.139,16.191 12.792,16.087 13.540 L 15.897 14.900 14.749 14.911 L 13.600 14.921 13.600 18.405 L 13.600 21.889 13.790 21.862 C 13.895 21.848,14.181 21.783,14.426 21.718 C 17.615 20.880,20.214 18.549,21.360 15.500 C 22.471 12.546,22.110 9.220,20.394 6.596 C 18.803 4.163,16.298 2.542,13.472 2.117 C 12.963 2.040,11.678 1.985,11.300 2.024 " stroke="none" fill-rule="evenodd" ></path></svg>
