<svg xmlns="http://www.w3.org/2000/svg" viewBox="0 0 24 24"><path d="M2.000 3.652 L 2.000 5.315 2.170 5.336 C 2.264 5.347,2.610 5.365,2.940 5.377 C 4.629 5.434,6.696 5.900,8.361 6.598 C 9.083 6.901,10.174 7.465,10.821 7.870 C 12.744 9.074,14.421 10.684,15.767 12.620 C 17.433 15.016,18.528 18.253,18.623 21.060 C 18.635 21.390,18.653 21.737,18.664 21.830 L 18.685 22.000 20.349 22.000 L 22.013 22.000 21.988 21.290 C 21.727 13.871,17.378 7.224,10.662 3.977 C 8.172 2.773,5.557 2.132,2.670 2.015 L 2.000 1.989 2.000 3.652 M2.000 10.334 L 2.000 11.989 2.490 12.016 C 3.092 12.050,3.865 12.165,4.429 12.303 C 6.357 12.777,8.224 13.921,9.517 15.420 C 11.028 17.172,11.854 19.213,11.984 21.510 L 12.011 22.000 13.672 22.000 L 15.332 22.000 15.308 21.330 C 15.220 18.928,14.367 16.425,12.939 14.377 C 11.930 12.930,10.555 11.626,9.037 10.678 C 8.438 10.304,7.278 9.736,6.597 9.484 C 5.323 9.012,3.571 8.681,2.350 8.680 L 2.000 8.680 2.000 10.334 M3.960 17.062 C 3.537 17.152,3.064 17.415,2.739 17.739 C 1.759 18.720,1.760 20.278,2.742 21.264 C 3.710 22.237,5.288 22.236,6.262 21.262 C 7.237 20.287,7.237 18.703,6.262 17.740 C 5.649 17.135,4.795 16.884,3.960 17.062 " stroke="none" fill-rule="evenodd" ></path></svg>
