<svg xmlns="http://www.w3.org/2000/svg" viewBox="0 0 24 24"><path d="M7.300 2.038 C 7.256 2.056,7.184 2.111,7.140 2.159 C 7.061 2.247,7.060 2.312,7.049 6.180 L 7.039 10.112 7.141 10.234 C 7.328 10.456,7.967 10.605,8.199 10.480 C 8.240 10.459,8.462 10.219,8.693 9.947 C 9.428 9.084,9.968 8.635,10.740 8.249 C 12.103 7.566,13.673 7.501,15.096 8.067 C 16.336 8.561,17.306 9.455,17.911 10.664 C 18.283 11.407,18.448 12.125,18.451 13.020 C 18.455 14.460,17.967 15.682,16.971 16.722 C 15.957 17.781,14.597 18.360,13.125 18.360 C 12.254 18.360,11.428 18.166,10.713 17.794 L 10.395 17.629 10.410 15.124 C 10.428 12.343,10.419 12.437,10.707 11.860 C 11.237 10.799,12.270 10.234,13.439 10.365 C 14.582 10.492,15.553 11.351,15.783 12.438 C 16.123 14.043,15.075 15.538,13.451 15.764 C 13.141 15.807,13.072 15.802,12.450 15.691 L 12.080 15.625 11.958 15.742 C 11.878 15.818,11.809 15.951,11.754 16.130 C 11.657 16.449,11.677 16.640,11.819 16.752 C 12.073 16.952,13.191 17.048,13.820 16.924 C 14.628 16.765,15.328 16.385,15.909 15.788 C 16.611 15.069,16.981 14.224,17.030 13.231 C 17.122 11.374,15.900 9.713,14.080 9.222 C 13.911 9.176,13.610 9.145,13.220 9.132 C 12.715 9.116,12.562 9.126,12.253 9.194 C 10.915 9.490,9.779 10.499,9.366 11.760 C 9.198 12.273,9.191 12.373,9.165 14.519 L 9.140 16.619 8.934 16.336 C 8.654 15.951,8.386 15.482,8.203 15.056 C 8.112 14.845,8.008 14.670,7.946 14.624 C 7.851 14.553,7.824 14.551,7.611 14.598 C 7.300 14.667,7.007 14.821,6.951 14.943 C 6.897 15.062,6.955 15.252,7.219 15.820 C 7.827 17.127,8.903 18.229,10.214 18.887 C 11.924 19.745,13.833 19.814,15.642 19.082 C 17.437 18.356,18.887 16.753,19.417 14.909 C 19.634 14.155,19.660 13.954,19.660 13.040 C 19.660 12.291,19.648 12.124,19.567 11.745 C 18.793 8.129,15.341 5.880,11.729 6.640 C 10.581 6.881,9.530 7.449,8.390 8.443 L 8.200 8.608 8.200 5.924 L 8.200 3.240 12.738 3.240 C 15.979 3.240,17.304 3.227,17.374 3.196 C 17.499 3.139,17.563 2.996,17.589 2.720 C 17.612 2.462,17.548 2.188,17.438 2.078 C 17.362 2.002,17.263 2.000,12.370 2.003 C 9.626 2.004,7.344 2.020,7.300 2.038 M12.300 4.186 C 11.489 4.283,10.796 4.436,10.186 4.655 C 9.969 4.732,9.767 4.828,9.737 4.868 C 9.586 5.067,9.808 5.693,10.083 5.841 C 10.124 5.863,10.318 5.820,10.643 5.716 C 12.207 5.215,13.794 5.169,15.304 5.580 C 16.349 5.865,17.344 6.392,18.316 7.177 C 18.546 7.363,18.728 7.480,18.785 7.480 C 18.893 7.480,19.157 7.257,19.327 7.024 C 19.499 6.788,19.479 6.689,19.210 6.434 C 18.275 5.549,16.798 4.768,15.403 4.423 C 14.592 4.222,14.023 4.158,13.121 4.166 C 12.735 4.169,12.366 4.178,12.300 4.186 M11.878 11.867 C 11.690 12.036,11.586 12.214,11.618 12.312 C 11.630 12.350,11.810 12.551,12.019 12.759 L 12.399 13.137 11.999 13.543 C 11.517 14.033,11.506 14.077,11.794 14.366 C 11.975 14.546,12.062 14.584,12.240 14.562 C 12.273 14.558,12.471 14.384,12.681 14.177 L 13.062 13.800 13.401 14.143 C 13.824 14.570,13.911 14.622,14.090 14.547 C 14.239 14.485,14.478 14.232,14.485 14.129 C 14.495 13.977,14.460 13.926,14.097 13.559 C 13.890 13.350,13.720 13.162,13.720 13.142 C 13.720 13.121,13.902 12.920,14.123 12.695 C 14.589 12.221,14.590 12.214,14.280 11.910 C 13.978 11.615,13.911 11.630,13.429 12.110 L 13.037 12.500 12.669 12.110 C 12.231 11.647,12.149 11.622,11.878 11.867 M4.586 13.977 C 4.344 14.042,4.227 14.155,4.231 14.317 C 4.236 14.503,4.356 15.055,4.485 15.491 C 5.628 19.339,9.178 22.000,13.170 22.000 C 15.128 22.000,17.111 21.346,18.628 20.200 C 19.054 19.879,19.682 19.311,19.744 19.192 C 19.810 19.065,19.776 18.949,19.610 18.730 C 19.479 18.558,19.181 18.360,19.052 18.360 C 18.994 18.360,18.842 18.469,18.630 18.665 C 17.255 19.935,15.634 20.646,13.750 20.806 C 11.948 20.959,9.978 20.375,8.460 19.238 C 6.909 18.076,5.867 16.432,5.458 14.505 C 5.347 13.978,5.299 13.919,4.986 13.923 C 4.873 13.924,4.693 13.949,4.586 13.977 " stroke="none" fill-rule="evenodd" ></path></svg>
