<svg xmlns="http://www.w3.org/2000/svg" viewBox="0 0 24 24"><path d="M6.420 2.047 C 6.116 2.105,5.726 2.310,5.511 2.525 C 5.298 2.738,5.106 3.103,5.041 3.417 C 5.012 3.556,5.002 6.397,5.009 12.400 L 5.020 21.180 5.133 21.409 C 5.472 22.101,6.383 22.212,6.945 21.631 C 7.057 21.515,8.118 20.295,9.303 18.920 C 10.487 17.545,11.617 16.235,11.813 16.010 L 12.170 15.600 13.958 15.600 C 15.848 15.600,16.070 15.583,16.425 15.416 C 16.656 15.307,16.951 15.013,17.076 14.769 C 17.238 14.450,17.363 13.882,18.324 9.080 L 19.297 4.220 19.299 3.640 C 19.300 3.083,19.295 3.050,19.184 2.810 C 18.990 2.388,18.616 2.129,18.080 2.042 C 17.742 1.988,6.707 1.992,6.420 2.047 M16.707 4.303 C 16.769 4.348,16.855 4.455,16.897 4.540 L 16.974 4.695 16.744 5.917 C 16.617 6.590,16.497 7.195,16.476 7.263 C 16.436 7.392,16.248 7.593,16.080 7.685 C 16.000 7.729,15.523 7.744,13.680 7.760 C 11.644 7.778,11.366 7.788,11.260 7.846 C 10.965 8.008,10.880 8.220,10.881 8.789 C 10.882 9.120,10.899 9.257,10.955 9.382 C 11.045 9.579,11.232 9.743,11.431 9.798 C 11.524 9.824,12.288 9.840,13.452 9.840 C 15.501 9.840,15.447 9.834,15.654 10.080 C 15.710 10.147,15.767 10.260,15.780 10.331 C 15.803 10.463,15.358 12.856,15.285 12.991 C 15.224 13.103,15.029 13.272,14.907 13.317 C 14.835 13.345,14.223 13.360,13.187 13.361 C 12.228 13.362,11.508 13.379,11.401 13.403 C 11.152 13.460,11.013 13.578,10.586 14.093 C 10.382 14.339,9.542 15.350,8.718 16.340 L 7.220 18.140 7.208 11.480 C 7.200 6.953,7.210 4.774,7.238 4.675 C 7.286 4.509,7.447 4.332,7.620 4.256 C 7.718 4.212,8.557 4.204,12.167 4.211 C 16.570 4.220,16.595 4.220,16.707 4.303 " stroke="none" fill-rule="evenodd" ></path></svg>
