<svg xmlns="http://www.w3.org/2000/svg" viewBox="0 0 24 24"><path d="M11.120 2.039 C 9.316 2.220,7.707 2.807,6.280 3.806 C 2.898 6.174,1.321 10.328,2.280 14.340 C 3.051 17.567,5.404 20.213,8.535 21.378 C 8.993 21.549,9.166 21.545,9.374 21.359 L 9.500 21.247 9.512 20.278 L 9.524 19.309 9.352 19.337 C 8.621 19.454,8.294 19.454,7.761 19.335 C 7.101 19.187,6.503 18.732,6.242 18.178 C 6.170 18.025,6.051 17.773,5.978 17.619 C 5.769 17.179,5.479 16.827,5.086 16.539 C 4.896 16.400,4.717 16.247,4.688 16.200 C 4.448 15.806,5.370 15.808,5.943 16.202 C 6.223 16.395,6.412 16.599,6.659 16.974 C 7.139 17.702,7.669 18.014,8.422 18.008 C 8.739 18.006,9.103 17.934,9.396 17.817 C 9.531 17.763,9.545 17.741,9.587 17.522 C 9.644 17.222,9.799 16.881,9.999 16.617 L 10.154 16.411 9.920 16.386 C 9.336 16.325,8.480 16.093,7.968 15.858 C 6.379 15.126,5.588 13.606,5.650 11.400 C 5.667 10.792,5.684 10.653,5.777 10.342 C 5.911 9.896,6.179 9.372,6.438 9.050 L 6.637 8.803 6.554 8.491 C 6.491 8.258,6.469 8.054,6.467 7.680 C 6.464 7.165,6.503 6.899,6.651 6.429 C 6.754 6.103,6.790 6.086,7.252 6.157 C 7.787 6.239,8.454 6.520,9.176 6.967 L 9.497 7.167 9.979 7.064 C 11.398 6.761,12.865 6.775,14.240 7.106 L 14.500 7.168 14.823 6.968 C 15.288 6.680,15.832 6.415,16.232 6.281 C 16.586 6.163,17.141 6.089,17.228 6.149 C 17.304 6.202,17.478 6.861,17.524 7.275 C 17.572 7.708,17.545 8.084,17.435 8.518 L 17.359 8.815 17.455 8.918 C 17.755 9.240,18.103 9.903,18.250 10.432 C 18.325 10.702,18.336 10.847,18.337 11.600 C 18.338 12.272,18.323 12.538,18.267 12.815 C 18.058 13.852,17.703 14.544,17.073 15.142 C 16.409 15.773,15.541 16.148,14.285 16.346 L 13.849 16.415 14.000 16.618 C 14.191 16.874,14.295 17.081,14.383 17.382 C 14.443 17.587,14.456 17.873,14.476 19.427 L 14.500 21.234 14.597 21.337 C 14.732 21.480,14.955 21.535,15.170 21.478 C 15.454 21.402,16.195 21.088,16.640 20.854 C 19.206 19.507,21.081 17.089,21.736 14.280 C 22.053 12.926,22.080 11.465,21.815 10.103 C 21.073 6.292,18.165 3.221,14.430 2.303 C 13.446 2.062,12.028 1.948,11.120 2.039 " stroke="none" fill-rule="evenodd" ></path></svg>
