<svg xmlns="http://www.w3.org/2000/svg" viewBox="0 0 24 24"><path d="M11.300 3.046 C 10.155 3.172,9.059 3.731,8.139 4.658 C 7.508 5.294,7.221 5.766,6.848 6.782 C 6.502 7.724,6.420 8.237,6.421 9.440 C 6.422 10.646,6.546 11.490,6.863 12.436 C 7.292 13.719,8.163 14.720,9.383 15.332 C 10.462 15.873,12.246 16.056,13.343 15.738 C 14.033 15.538,14.476 15.277,15.034 14.743 C 15.429 14.364,15.672 14.058,15.908 13.643 L 16.080 13.342 16.080 14.481 C 16.080 15.107,16.060 15.782,16.036 15.980 C 15.934 16.815,15.632 17.692,15.238 18.292 C 14.689 19.128,13.806 19.571,12.464 19.683 C 11.463 19.766,10.533 19.617,9.820 19.260 C 9.398 19.049,9.158 18.853,8.857 18.476 C 8.574 18.122,8.458 17.892,8.371 17.510 L 8.301 17.200 7.545 17.200 L 6.789 17.200 6.814 17.478 C 6.863 18.004,7.118 18.658,7.462 19.144 C 7.958 19.843,9.112 20.584,10.003 20.775 C 10.753 20.936,11.210 20.980,12.140 20.979 C 13.583 20.977,14.338 20.807,15.240 20.280 C 15.841 19.929,16.451 19.326,16.816 18.722 C 17.294 17.933,17.608 16.427,17.478 15.557 C 17.432 15.248,17.420 14.111,17.410 9.290 L 17.399 3.400 16.639 3.400 L 15.880 3.400 15.880 4.390 L 15.880 5.380 15.760 5.127 C 15.671 4.938,15.528 4.759,15.190 4.413 C 14.662 3.871,14.384 3.662,13.874 3.424 C 13.116 3.070,12.244 2.942,11.300 3.046 M13.060 4.317 C 13.483 4.424,14.277 4.824,14.607 5.097 C 15.113 5.514,15.572 6.245,15.866 7.100 C 16.033 7.586,16.173 8.674,16.175 9.500 C 16.177 10.251,16.129 10.622,15.954 11.216 C 15.764 11.862,15.255 12.833,14.927 13.175 C 14.610 13.506,14.008 13.986,13.728 14.132 C 13.142 14.438,12.441 14.555,11.620 14.483 C 10.841 14.415,10.470 14.287,9.815 13.860 C 9.214 13.469,8.979 13.192,8.509 12.320 C 8.055 11.479,7.939 10.890,7.942 9.460 C 7.944 8.771,7.962 8.467,8.027 8.060 C 8.237 6.748,8.918 5.591,9.880 4.913 C 10.372 4.566,10.946 4.328,11.500 4.242 C 11.872 4.184,12.690 4.223,13.060 4.317 " stroke="none" fill-rule="evenodd" ></path></svg>
