<svg xmlns="http://www.w3.org/2000/svg" viewBox="0 0 24 24"><path d="M11.120 2.042 C 9.194 2.227,7.408 2.941,5.840 4.153 C 5.432 4.469,4.538 5.351,4.233 5.740 C 3.170 7.095,2.518 8.515,2.203 10.160 C 1.980 11.328,1.980 12.672,2.203 13.840 C 2.517 15.482,3.167 16.898,4.232 18.260 C 4.555 18.672,5.525 19.617,5.964 19.948 C 7.087 20.791,8.334 21.383,9.687 21.716 C 11.244 22.100,13.004 22.092,14.634 21.695 C 18.023 20.869,20.446 18.435,21.296 15.000 C 21.667 13.502,21.731 11.969,21.477 10.650 L 21.391 10.200 16.695 10.200 L 11.999 10.200 12.010 12.050 L 12.020 13.900 14.772 13.910 L 17.524 13.921 17.497 14.070 C 17.411 14.546,17.108 15.279,16.797 15.760 C 16.032 16.945,14.923 17.678,13.400 18.006 C 13.040 18.083,12.857 18.096,12.120 18.098 C 11.160 18.100,10.907 18.064,10.162 17.816 C 8.401 17.230,6.999 15.834,6.367 14.035 C 6.115 13.319,6.060 12.950,6.061 12.000 C 6.062 11.265,6.075 11.084,6.149 10.753 C 6.274 10.199,6.412 9.803,6.659 9.300 C 7.269 8.052,8.185 7.129,9.432 6.504 C 11.414 5.510,13.893 5.754,15.570 7.108 L 15.890 7.366 16.435 6.832 C 16.735 6.538,17.372 5.917,17.851 5.452 L 18.722 4.606 18.442 4.364 C 17.019 3.139,15.393 2.393,13.549 2.117 C 12.935 2.025,11.693 1.987,11.120 2.042 " stroke="none" fill-rule="evenodd" ></path></svg>
