<svg xmlns="http://www.w3.org/2000/svg" viewBox="0 0 24 24"><path d="M8.940 3.025 C 8.309 3.046,7.506 3.117,7.148 3.183 C 5.280 3.530,3.940 4.667,3.378 6.384 C 3.056 7.365,3.000 8.202,3.000 12.000 C 3.000 15.797,3.059 16.669,3.381 17.631 C 3.966 19.380,5.328 20.510,7.246 20.838 C 7.964 20.960,9.123 21.000,12.000 21.000 C 14.861 21.000,16.036 20.960,16.739 20.840 C 18.985 20.456,20.455 18.990,20.838 16.754 C 20.960 16.036,21.000 14.877,21.000 12.000 C 21.000 8.202,20.944 7.365,20.622 6.384 C 20.213 5.133,19.368 4.162,18.220 3.619 C 17.602 3.327,16.961 3.166,16.060 3.077 C 15.648 3.036,9.877 2.994,8.940 3.025 M16.180 4.717 C 17.289 4.878,18.006 5.232,18.543 5.880 C 18.786 6.174,19.059 6.743,19.157 7.160 C 19.334 7.912,19.340 8.076,19.340 12.000 C 19.340 14.825,19.327 15.833,19.289 16.120 C 19.095 17.547,18.549 18.422,17.554 18.901 C 16.805 19.261,16.439 19.309,13.990 19.367 C 11.672 19.422,8.310 19.365,7.646 19.260 C 5.890 18.982,4.986 18.032,4.717 16.180 C 4.652 15.732,4.618 9.486,4.676 8.497 C 4.743 7.341,4.907 6.703,5.286 6.116 C 5.860 5.228,6.807 4.777,8.299 4.682 C 9.102 4.630,15.793 4.660,16.180 4.717 M16.495 6.161 C 16.258 6.234,15.992 6.451,15.870 6.670 C 15.622 7.113,15.702 7.622,16.073 7.970 C 16.615 8.476,17.427 8.334,17.757 7.674 C 18.109 6.970,17.651 6.180,16.865 6.136 C 16.730 6.129,16.564 6.140,16.495 6.161 M11.060 7.479 C 9.543 7.807,8.317 8.824,7.730 10.240 C 6.804 12.478,7.769 15.048,9.939 16.121 C 10.488 16.393,10.985 16.538,11.587 16.603 C 12.577 16.709,13.703 16.415,14.610 15.813 C 14.981 15.566,15.566 14.981,15.813 14.610 C 16.415 13.703,16.709 12.577,16.603 11.587 C 16.484 10.481,16.032 9.516,15.280 8.760 C 14.692 8.170,13.953 7.739,13.171 7.532 C 12.626 7.388,11.600 7.362,11.060 7.479 M12.756 9.097 C 13.093 9.189,13.595 9.447,13.873 9.671 C 14.554 10.219,15.000 11.140,15.000 12.000 C 15.000 12.781,14.641 13.603,14.052 14.173 C 12.969 15.220,11.223 15.275,10.080 14.297 C 9.624 13.907,9.214 13.247,9.075 12.680 C 9.006 12.398,9.005 11.605,9.074 11.320 C 9.153 10.994,9.488 10.330,9.695 10.088 C 10.164 9.543,10.818 9.164,11.503 9.040 C 11.770 8.991,12.491 9.024,12.756 9.097 " stroke="none" fill-rule="evenodd" ></path></svg>
