<svg viewBox="0 0 24 24" xmlns="http://www.w3.org/2000/svg"><path d="M11.060 1.544 C 10.994 1.553,10.724 1.589,10.460 1.624 C 8.317 1.908,6.168 2.993,4.561 4.601 C 2.913 6.250,1.898 8.327,1.579 10.702 C 1.502 11.277,1.491 12.521,1.557 13.120 C 2.063 17.655,5.384 21.324,9.844 22.276 C 11.179 22.560,12.821 22.560,14.156 22.276 C 18.242 21.404,21.401 18.245,22.276 14.156 C 22.560 12.827,22.560 11.175,22.276 9.844 C 21.520 6.300,19.016 3.404,15.620 2.145 C 15.073 1.942,14.177 1.713,13.560 1.617 C 13.161 1.555,11.361 1.502,11.060 1.544 M9.954 7.804 C 10.500 7.889,11.091 8.125,11.580 8.451 C 11.937 8.690,12.506 9.293,12.757 9.697 C 12.894 9.918,13.266 10.725,13.768 11.890 C 14.205 12.903,14.627 13.856,14.706 14.006 C 14.911 14.396,15.118 14.614,15.427 14.766 C 15.649 14.876,15.745 14.898,16.050 14.913 C 16.609 14.940,17.043 14.810,17.377 14.517 C 17.662 14.267,17.822 13.737,17.723 13.369 C 17.622 12.996,17.349 12.819,16.320 12.459 C 15.221 12.074,14.742 11.821,14.364 11.421 C 13.608 10.622,13.696 9.094,14.538 8.374 C 14.966 8.009,15.480 7.842,16.182 7.841 C 16.897 7.840,17.366 8.013,17.804 8.441 C 18.048 8.680,18.280 9.013,18.280 9.125 C 18.280 9.173,18.136 9.269,17.812 9.437 C 17.555 9.571,17.331 9.680,17.314 9.680 C 17.297 9.680,17.198 9.588,17.093 9.477 C 16.988 9.365,16.821 9.225,16.721 9.167 C 16.559 9.071,16.500 9.060,16.157 9.060 C 15.800 9.060,15.760 9.068,15.578 9.181 C 15.096 9.479,14.974 10.140,15.327 10.542 C 15.513 10.754,15.643 10.815,16.600 11.140 C 17.670 11.503,18.120 11.725,18.463 12.060 C 18.888 12.475,19.054 12.917,19.057 13.640 C 19.058 14.006,19.041 14.157,18.971 14.380 C 18.704 15.227,17.984 15.870,17.018 16.122 C 16.612 16.229,15.877 16.238,15.440 16.143 C 14.597 15.960,13.981 15.445,13.511 14.529 C 13.390 14.293,12.936 13.288,12.503 12.296 C 11.641 10.325,11.530 10.128,11.060 9.748 C 10.118 8.986,8.797 8.872,7.733 9.461 C 7.333 9.682,6.825 10.209,6.608 10.629 C 6.152 11.507,6.152 12.491,6.607 13.371 C 6.851 13.844,7.371 14.358,7.840 14.592 C 8.980 15.159,10.275 14.981,11.162 14.133 C 11.336 13.967,11.552 13.715,11.642 13.573 C 11.751 13.400,11.826 13.319,11.870 13.328 C 11.938 13.341,12.478 14.512,12.479 14.650 C 12.480 14.750,11.895 15.317,11.567 15.535 C 9.854 16.674,7.626 16.462,6.185 15.021 C 5.109 13.945,4.693 12.422,5.065 10.924 C 5.232 10.253,5.665 9.502,6.183 8.983 C 7.170 7.996,8.508 7.578,9.954 7.804 " stroke="none" fill-rule="evenodd" ></path></svg>
