<svg xmlns="http://www.w3.org/2000/svg" viewBox="0 0 24 24"><path d="M3.940 3.056 C 3.852 3.084,3.725 3.135,3.659 3.170 C 3.469 3.269,3.181 3.602,3.097 3.821 C 3.022 4.015,3.020 4.230,3.020 12.000 C 3.020 19.784,3.022 19.985,3.097 20.180 C 3.198 20.442,3.509 20.767,3.772 20.886 L 3.980 20.980 12.000 20.980 L 20.020 20.980 20.228 20.886 C 20.491 20.767,20.802 20.442,20.903 20.180 C 20.978 19.985,20.980 19.784,20.980 12.000 C 20.980 4.216,20.978 4.015,20.903 3.820 C 20.802 3.558,20.491 3.233,20.228 3.114 L 20.020 3.020 12.060 3.012 C 5.719 3.006,4.067 3.015,3.940 3.056 M7.650 5.629 C 8.439 5.999,8.769 6.953,8.375 7.731 C 8.237 8.002,7.927 8.303,7.649 8.432 C 7.446 8.528,7.372 8.540,7.000 8.540 C 6.617 8.540,6.559 8.530,6.341 8.423 C 5.402 7.963,5.174 6.711,5.893 5.967 C 6.234 5.614,6.598 5.471,7.090 5.496 C 7.326 5.509,7.460 5.540,7.650 5.629 M16.109 9.637 C 16.917 9.804,17.521 10.246,17.859 10.918 C 18.028 11.255,18.108 11.490,18.210 11.960 C 18.289 12.322,18.294 12.484,18.309 15.350 L 18.325 18.360 17.002 18.360 L 15.680 18.360 15.680 16.009 C 15.680 13.593,15.661 13.205,15.518 12.744 C 15.417 12.416,15.167 12.128,14.871 11.998 C 14.699 11.922,14.589 11.905,14.280 11.904 C 13.836 11.904,13.639 11.953,13.375 12.131 C 13.011 12.375,12.810 12.760,12.721 13.380 C 12.699 13.540,12.681 14.666,12.681 16.010 L 12.680 18.360 11.360 18.360 L 10.040 18.360 10.040 14.060 L 10.040 9.760 11.300 9.760 L 12.560 9.760 12.560 10.340 C 12.560 10.659,12.574 10.920,12.591 10.920 C 12.608 10.920,12.657 10.854,12.701 10.774 C 12.809 10.572,13.197 10.187,13.462 10.017 C 13.742 9.838,13.988 9.732,14.340 9.639 C 14.735 9.534,15.606 9.533,16.109 9.637 M8.320 14.060 L 8.320 18.360 7.000 18.360 L 5.680 18.360 5.680 14.060 L 5.680 9.760 7.000 9.760 L 8.320 9.760 8.320 14.060 " stroke="none" fill-rule="evenodd" ></path></svg>
