<svg xmlns="http://www.w3.org/2000/svg" x="0px" y="0px" viewBox="0 0 24 24" xml:space="preserve"><path d="M3.260 4.139 C 2.714 4.407,2.279 4.856,2.083 5.352 C 2.000 5.562,2.000 5.579,2.000 12.000 L 2.000 18.437 2.084 18.662 C 2.291 19.214,2.760 19.681,3.270 19.842 C 3.531 19.924,3.641 19.928,6.720 19.961 C 8.469 19.980,12.271 19.997,15.168 19.998 C 20.430 20.000,20.437 20.000,20.662 19.916 C 21.215 19.709,21.682 19.239,21.841 18.730 C 21.922 18.471,21.928 18.341,21.964 15.600 C 21.985 14.027,21.998 11.101,21.991 9.098 L 21.980 5.456 21.830 5.153 C 21.573 4.633,21.076 4.242,20.520 4.122 C 20.259 4.066,13.507 4.004,7.440 4.002 L 3.540 4.001 3.260 4.139 M20.000 7.151 L 20.000 8.302 18.350 9.318 C 17.442 9.876,15.642 10.979,14.350 11.768 L 11.999 13.203 9.650 11.768 C 8.357 10.979,6.558 9.876,5.650 9.318 L 4.000 8.302 4.000 7.151 L 4.000 6.000 12.000 6.000 L 20.000 6.000 20.000 7.151 M5.826 11.425 C 6.812 12.033,8.605 13.132,9.810 13.866 L 11.999 15.203 14.190 13.866 C 15.394 13.131,17.188 12.033,18.174 11.425 C 19.161 10.817,19.976 10.320,19.984 10.320 C 19.993 10.320,20.000 12.048,20.000 14.160 L 20.000 18.000 12.000 18.000 L 4.000 18.000 4.000 14.160 C 4.000 12.048,4.007 10.320,4.016 10.320 C 4.024 10.320,4.839 10.817,5.826 11.425 " stroke="none" fill-rule="evenodd" fill="black"></path></svg>
