<svg xmlns="http://www.w3.org/2000/svg" viewBox="0 0 24 24"><path d="M10.460 0.043 C 7.969 0.153,5.876 0.496,4.569 1.006 C 3.964 1.243,3.510 1.558,2.917 2.154 C 1.655 3.425,1.004 4.992,0.837 7.162 C 0.781 7.890,0.810 12.435,0.878 13.460 C 1.159 17.748,1.985 20.192,3.711 21.846 C 4.604 22.701,5.588 23.181,7.180 23.535 C 8.484 23.826,9.480 23.952,10.740 23.987 C 12.619 24.039,14.367 23.766,15.824 23.193 L 16.240 23.029 16.238 22.705 C 16.236 22.262,16.172 21.079,16.149 21.056 C 16.139 21.046,15.998 21.074,15.835 21.118 C 14.838 21.390,13.874 21.522,12.680 21.548 C 10.778 21.591,9.523 21.404,8.671 20.953 C 8.135 20.669,7.631 20.063,7.416 19.444 C 7.307 19.130,7.201 18.496,7.200 18.155 L 7.200 17.931 7.430 17.984 C 8.551 18.247,10.365 18.486,11.864 18.567 C 13.155 18.637,14.773 18.548,16.700 18.299 C 17.416 18.206,17.913 18.094,18.585 17.874 C 20.521 17.240,22.135 15.990,22.605 14.763 C 22.936 13.898,23.249 10.130,23.187 7.760 C 23.154 6.511,23.038 5.785,22.721 4.829 C 22.144 3.095,20.946 1.656,19.593 1.073 C 17.807 0.303,14.076 -0.118,10.460 0.043 M9.531 4.195 C 9.702 4.240,10.008 4.363,10.211 4.467 C 10.768 4.753,11.152 5.157,11.620 5.949 C 11.818 6.285,11.989 6.559,12.000 6.559 C 12.011 6.559,12.182 6.285,12.380 5.949 C 12.860 5.137,13.229 4.754,13.824 4.453 C 14.394 4.164,14.703 4.100,15.520 4.101 C 16.306 4.103,16.547 4.153,17.140 4.441 C 18.148 4.930,18.750 5.755,19.052 7.060 C 19.133 7.408,19.136 7.541,19.150 11.010 L 19.164 14.600 17.922 14.600 L 16.680 14.600 16.679 11.390 C 16.677 7.861,16.671 7.764,16.440 7.295 C 16.158 6.721,15.499 6.435,14.730 6.553 C 13.987 6.667,13.578 7.053,13.345 7.857 C 13.269 8.122,13.263 8.270,13.250 10.170 L 13.235 12.200 12.000 12.200 L 10.765 12.200 10.750 10.170 C 10.737 8.270,10.731 8.122,10.655 7.857 C 10.422 7.053,10.013 6.667,9.270 6.553 C 8.497 6.435,7.843 6.718,7.560 7.295 C 7.329 7.764,7.323 7.861,7.321 11.390 L 7.320 14.600 6.078 14.600 L 4.836 14.600 4.850 11.010 C 4.864 7.476,4.866 7.414,4.953 7.031 C 5.315 5.439,6.297 4.419,7.740 4.137 C 8.153 4.056,9.128 4.088,9.531 4.195 " stroke="none" fill-rule="evenodd" ></path></svg>
