<svg xmlns="http://www.w3.org/2000/svg" viewBox="0 0 24 24"><path d="M14.933 4.464 C 14.776 4.542,14.908 4.340,13.103 7.273 C 12.196 8.746,11.603 9.749,11.616 9.785 C 11.636 9.837,15.335 15.865,15.461 16.051 C 15.503 16.113,15.868 15.540,18.219 11.719 C 19.709 9.298,20.936 7.286,20.946 7.248 C 20.960 7.193,20.425 6.911,18.182 5.790 C 15.191 4.296,15.237 4.314,14.933 4.464 M3.117 4.583 L 3.020 4.686 3.009 10.593 C 2.997 17.134,2.980 16.677,3.252 16.988 C 3.430 17.190,8.255 19.604,8.489 19.607 C 8.680 19.610,8.832 19.510,8.930 19.317 C 8.996 19.188,9.000 18.814,9.000 13.190 L 9.000 7.200 6.280 5.840 C 3.300 4.350,3.326 4.360,3.117 4.583 M9.840 11.500 L 9.840 14.360 12.404 15.642 C 13.814 16.347,14.962 16.906,14.954 16.883 C 14.921 16.787,9.897 8.643,9.870 8.641 C 9.854 8.641,9.840 9.927,9.840 11.500 M18.390 13.071 C 16.965 15.386,15.800 17.294,15.800 17.311 C 15.800 17.328,16.803 17.841,18.030 18.452 C 20.109 19.488,20.274 19.563,20.469 19.562 C 20.643 19.560,20.700 19.540,20.817 19.437 C 20.901 19.363,20.967 19.263,20.980 19.187 C 20.993 19.117,20.998 16.765,20.991 13.961 L 20.980 8.862 18.390 13.071 " stroke="none" fill-rule="evenodd" ></path></svg>
