<svg xmlns="http://www.w3.org/2000/svg" viewBox="0 0 24 24"><path d="M7.574 2.557 C 7.407 2.659,7.336 2.866,7.401 3.063 C 7.498 3.358,7.906 3.461,8.121 3.245 C 8.327 3.040,8.327 2.800,8.121 2.595 C 7.982 2.456,7.765 2.441,7.574 2.557 M12.905 3.059 C 12.476 3.212,12.246 3.730,12.422 4.151 C 12.685 4.782,13.560 4.843,13.905 4.254 C 14.044 4.018,14.055 3.695,13.932 3.460 C 13.828 3.260,13.746 3.186,13.519 3.083 C 13.311 2.989,13.123 2.981,12.905 3.059 M9.840 4.956 C 8.570 5.234,7.510 6.059,6.928 7.222 C 6.861 7.356,6.783 7.484,6.753 7.507 C 6.724 7.530,6.565 7.589,6.400 7.638 C 5.156 8.008,4.360 9.058,4.351 10.340 C 4.348 10.792,4.418 11.122,4.601 11.514 C 4.667 11.654,4.720 11.785,4.720 11.805 C 4.720 11.825,4.617 11.964,4.490 12.115 C 4.210 12.448,3.982 12.898,3.872 13.333 C 3.763 13.763,3.785 14.515,3.919 14.940 C 4.214 15.872,4.975 16.652,5.851 16.919 C 6.330 17.065,6.295 17.031,6.352 17.398 C 6.479 18.201,6.846 18.858,7.480 19.416 C 7.781 19.681,8.394 19.996,8.820 20.105 C 9.204 20.203,9.959 20.202,10.340 20.104 C 10.617 20.032,11.124 19.808,11.405 19.633 C 11.569 19.532,11.562 19.530,11.960 19.783 C 12.323 20.014,12.664 20.100,13.200 20.097 C 13.592 20.095,13.707 20.079,13.973 19.987 C 14.675 19.744,15.215 19.237,15.455 18.595 L 15.551 18.340 15.785 18.309 C 16.345 18.235,16.682 18.160,16.986 18.043 C 18.022 17.644,18.827 16.738,19.129 15.634 C 19.206 15.351,19.220 15.206,19.218 14.680 C 19.216 14.111,19.206 14.032,19.103 13.720 C 19.041 13.533,18.932 13.263,18.860 13.120 L 18.729 12.860 18.903 12.663 C 19.246 12.274,19.440 11.774,19.440 11.282 C 19.439 10.954,19.362 10.661,19.180 10.293 C 19.002 9.931,18.631 9.577,18.264 9.417 L 18.011 9.307 17.984 8.925 C 17.950 8.445,17.863 8.015,17.731 7.680 C 17.283 6.541,16.202 5.621,15.032 5.383 C 14.639 5.303,13.867 5.303,13.520 5.383 C 12.987 5.505,12.998 5.506,12.592 5.306 C 11.955 4.992,11.609 4.911,10.840 4.895 C 10.306 4.884,10.115 4.895,9.840 4.956 M5.740 5.607 C 5.328 5.834,5.251 6.346,5.585 6.639 C 5.845 6.867,6.178 6.874,6.436 6.657 C 6.755 6.389,6.681 5.803,6.305 5.625 C 6.149 5.551,5.858 5.541,5.740 5.607 M18.993 7.599 C 18.608 7.808,18.510 8.304,18.782 8.664 C 18.983 8.931,19.395 9.001,19.703 8.821 C 20.128 8.571,20.147 7.920,19.737 7.642 C 19.539 7.508,19.197 7.488,18.993 7.599 M12.911 8.479 C 13.004 8.522,13.175 8.645,13.291 8.752 C 13.406 8.859,13.533 8.959,13.573 8.974 C 13.617 8.990,13.758 8.951,13.928 8.877 C 14.394 8.672,14.949 8.675,15.366 8.884 C 15.569 8.986,15.791 9.260,15.861 9.496 C 16.004 9.977,15.902 10.476,15.448 11.520 C 14.603 13.464,14.498 13.746,14.447 14.223 C 14.405 14.611,14.441 14.758,14.617 14.912 C 14.729 15.011,14.821 15.043,15.146 15.099 C 15.834 15.218,15.966 15.286,16.042 15.566 C 16.087 15.736,16.028 15.929,15.896 16.046 C 15.742 16.182,15.371 16.253,14.961 16.226 C 14.237 16.178,13.754 15.998,13.397 15.642 C 13.003 15.248,12.837 14.749,12.920 14.210 C 12.955 13.992,13.088 13.675,13.621 12.556 C 14.309 11.109,14.400 10.896,14.400 10.728 C 14.400 10.577,14.253 10.440,14.091 10.440 C 13.815 10.440,13.722 10.583,12.678 12.640 C 12.015 13.947,11.669 14.587,11.569 14.690 C 11.375 14.890,11.138 14.978,10.875 14.947 C 10.505 14.903,10.300 14.679,10.335 14.357 C 10.346 14.255,10.587 13.593,10.881 12.857 C 11.452 11.431,11.509 11.214,11.381 10.977 C 11.245 10.724,10.896 10.695,10.705 10.921 C 10.650 10.987,10.306 11.794,9.926 12.750 C 8.940 15.232,8.906 15.310,8.733 15.487 C 8.494 15.732,8.276 15.819,7.900 15.818 C 7.350 15.817,6.899 15.550,6.673 15.091 C 6.460 14.659,6.479 14.492,6.896 13.120 C 7.329 11.696,7.795 10.306,7.997 9.837 C 8.082 9.640,8.224 9.382,8.313 9.265 C 8.609 8.873,9.087 8.635,9.600 8.626 C 9.890 8.621,9.917 8.629,10.420 8.870 C 11.134 9.213,11.191 9.208,11.699 8.759 C 11.831 8.643,12.011 8.515,12.099 8.475 C 12.316 8.376,12.689 8.378,12.911 8.479 M21.336 10.216 C 21.168 10.384,21.157 10.543,21.301 10.714 C 21.610 11.081,22.151 10.736,21.952 10.299 C 21.926 10.241,21.855 10.168,21.794 10.137 C 21.615 10.044,21.486 10.066,21.336 10.216 M2.500 10.835 C 2.304 10.924,2.105 11.142,2.039 11.342 C 1.929 11.677,2.083 12.095,2.392 12.299 C 2.931 12.656,3.678 12.250,3.678 11.600 C 3.678 11.001,3.042 10.588,2.500 10.835 M20.450 12.508 C 20.303 12.537,20.090 12.767,20.059 12.930 C 19.982 13.342,20.469 13.692,20.837 13.489 C 21.369 13.196,21.051 12.390,20.450 12.508 M5.193 17.626 C 4.849 17.847,5.009 18.360,5.421 18.360 C 5.475 18.360,5.577 18.308,5.648 18.244 C 5.755 18.149,5.778 18.099,5.778 17.964 C 5.778 17.663,5.440 17.468,5.193 17.626 M16.420 18.944 C 16.236 19.044,16.037 19.245,15.972 19.396 C 15.894 19.578,15.899 19.924,15.982 20.099 C 16.020 20.178,16.130 20.312,16.228 20.398 C 16.772 20.877,17.595 20.526,17.667 19.785 C 17.693 19.511,17.535 19.193,17.287 19.021 C 17.141 18.920,17.071 18.900,16.827 18.890 C 16.620 18.882,16.507 18.897,16.420 18.944 M11.194 20.538 C 10.761 20.832,10.982 21.520,11.509 21.520 C 11.803 21.520,12.048 21.275,12.048 20.980 C 12.048 20.544,11.558 20.291,11.194 20.538 " stroke="none" fill-rule="evenodd" ></path></svg>
