<svg xmlns="http://www.w3.org/2000/svg" viewBox="0 0 569 546"><path d="M-0.000 272.637 L 0.000 545.292 50.263 545.292 L 100.527 545.292 100.288 272.883 L 100.049 0.474 50.025 0.229 L -0.000 -0.017 -0.000 272.637 M344.426 0.999 C 313.042 3.800,277.819 16.014,251.308 33.289 C 214.208 57.464,185.167 94.061,170.320 135.352 C 161.690 159.351,158.345 178.873,158.332 205.314 C 158.319 229.193,161.149 247.027,168.534 269.611 C 190.294 336.161,246.180 387.588,314.923 404.323 C 331.477 408.353,344.188 409.810,362.738 409.804 C 400.978 409.791,435.367 400.453,467.872 381.253 C 528.955 345.174,568.052 276.511,568.052 205.314 C 568.052 103.720,493.046 17.042,392.474 2.412 C 379.602 0.540,357.012 -0.125,344.426 0.999 " stroke="none"  fill-rule="evenodd"></path></svg>
