<svg xmlns="http://www.w3.org/2000/svg" viewBox="0 0 24 24"><path d="M11.300 2.040 C 9.555 2.193,8.075 2.681,6.837 3.514 C 5.293 4.552,4.278 6.007,3.820 7.840 C 3.664 8.466,3.624 8.823,3.624 9.580 C 3.625 10.173,3.641 10.374,3.715 10.720 C 4.095 12.500,5.054 13.931,6.225 14.468 C 6.478 14.583,6.605 14.569,6.673 14.419 C 6.742 14.269,7.080 12.902,7.080 12.777 C 7.080 12.712,7.003 12.566,6.885 12.405 C 6.332 11.656,6.029 10.675,6.030 9.640 C 6.032 6.977,7.950 4.790,10.697 4.321 C 12.156 4.071,13.593 4.256,14.741 4.841 C 16.142 5.554,17.032 6.752,17.345 8.345 C 17.479 9.025,17.430 10.286,17.235 11.180 C 16.722 13.530,15.183 15.078,13.358 15.080 C 12.701 15.080,12.233 14.908,11.836 14.519 C 11.495 14.186,11.348 13.855,11.327 13.377 C 11.308 12.936,11.359 12.713,11.807 11.300 C 12.242 9.930,12.399 9.303,12.428 8.833 C 12.495 7.736,11.986 7.011,11.060 6.882 C 10.123 6.752,9.267 7.269,8.779 8.260 C 8.495 8.835,8.422 9.181,8.423 9.940 C 8.424 10.622,8.477 10.939,8.692 11.529 L 8.789 11.798 8.013 14.949 C 7.586 16.682,7.210 18.253,7.178 18.440 C 7.040 19.227,7.065 20.529,7.244 21.934 C 7.340 22.686,7.366 22.770,7.490 22.753 C 7.740 22.717,9.216 20.179,9.579 19.160 C 9.638 18.995,9.875 18.167,10.105 17.320 C 10.335 16.473,10.533 15.754,10.544 15.722 C 10.558 15.681,10.584 15.699,10.635 15.782 C 10.741 15.956,11.067 16.266,11.335 16.449 C 12.058 16.943,13.093 17.183,14.081 17.086 C 15.259 16.971,16.197 16.640,17.151 16.002 C 17.588 15.709,18.310 15.029,18.662 14.579 C 20.172 12.645,20.779 9.718,20.144 7.427 C 19.360 4.599,16.884 2.576,13.622 2.097 C 13.129 2.024,11.842 1.993,11.300 2.040 " stroke="none" fill-rule="evenodd" ></path></svg>
