<svg xmlns="http://www.w3.org/2000/svg" viewBox="0 0 24 24"><path d="M3.420 3.056 C 2.960 3.168,2.442 3.563,2.242 3.956 C 2.028 4.375,2.034 4.257,2.051 8.289 C 2.068 12.383,2.062 12.258,2.323 13.315 C 2.504 14.046,2.688 14.545,3.038 15.260 C 4.373 17.985,6.929 19.976,9.943 20.637 C 10.930 20.854,12.324 20.914,13.300 20.782 C 16.059 20.409,18.571 18.895,20.207 16.620 C 21.305 15.093,21.878 13.429,21.999 11.412 C 22.051 10.536,22.053 4.823,22.001 4.505 C 21.884 3.789,21.280 3.174,20.565 3.040 C 20.228 2.977,3.680 2.992,3.420 3.056 M7.930 8.274 C 8.138 8.378,8.502 8.708,10.098 10.240 C 11.153 11.252,12.026 12.080,12.038 12.080 C 12.051 12.080,12.925 11.252,13.980 10.239 C 16.192 8.118,16.165 8.139,16.759 8.142 C 17.060 8.144,17.128 8.159,17.342 8.269 C 17.632 8.418,17.851 8.649,17.994 8.955 C 18.079 9.140,18.098 9.237,18.097 9.500 C 18.095 9.967,17.977 10.202,17.524 10.640 C 14.500 13.569,12.858 15.112,12.653 15.220 C 12.446 15.329,12.391 15.340,12.040 15.340 C 11.689 15.340,11.634 15.329,11.426 15.220 C 11.251 15.128,10.622 14.548,8.717 12.720 C 6.499 10.593,6.223 10.315,6.118 10.100 C 5.965 9.787,5.932 9.490,6.014 9.169 C 6.236 8.305,7.144 7.881,7.930 8.274 " stroke="none" fill-rule="evenodd" ></path></svg>
