<svg xmlns="http://www.w3.org/2000/svg" viewBox="0 0 24 24"><path d="M18.190 3.716 C 17.765 3.856,17.372 4.174,17.155 4.554 C 17.103 4.645,17.032 4.720,16.997 4.720 C 16.963 4.720,16.172 4.540,15.240 4.320 C 14.308 4.100,13.493 3.920,13.430 3.920 C 13.175 3.920,13.149 3.979,12.424 6.280 C 12.053 7.457,11.745 8.425,11.739 8.432 C 11.734 8.439,11.453 8.461,11.116 8.483 C 9.985 8.554,8.854 8.776,7.860 9.121 C 7.402 9.280,6.279 9.802,5.939 10.013 L 5.779 10.113 5.510 9.934 C 5.131 9.681,4.856 9.590,4.397 9.569 C 3.920 9.547,3.644 9.603,3.248 9.801 C 2.138 10.359,1.688 11.724,2.247 12.842 C 2.362 13.072,2.782 13.551,2.987 13.686 C 3.071 13.741,3.073 13.757,3.035 14.062 C 2.985 14.464,3.046 15.072,3.184 15.552 C 3.596 16.978,4.838 18.299,6.594 19.180 C 8.934 20.353,11.910 20.690,14.680 20.096 C 17.677 19.453,19.983 17.772,20.677 15.726 C 20.824 15.292,20.884 14.919,20.885 14.440 C 20.886 14.187,20.875 13.935,20.862 13.880 C 20.841 13.794,20.862 13.764,21.019 13.666 C 21.118 13.604,21.297 13.446,21.415 13.315 C 22.237 12.407,22.174 11.020,21.273 10.161 C 20.865 9.772,20.317 9.560,19.722 9.560 C 19.207 9.561,18.825 9.687,18.393 9.998 L 18.186 10.147 17.941 9.997 C 16.589 9.176,14.712 8.609,12.970 8.495 C 12.745 8.480,12.560 8.457,12.561 8.444 C 12.562 8.404,13.708 4.798,13.725 4.782 C 13.746 4.761,16.766 5.470,16.840 5.514 C 16.876 5.534,16.912 5.642,16.929 5.781 C 16.990 6.259,17.307 6.758,17.730 7.040 C 18.389 7.480,19.267 7.463,19.890 6.997 C 20.152 6.801,20.406 6.472,20.526 6.171 C 20.603 5.978,20.618 5.865,20.619 5.480 C 20.620 5.031,20.617 5.013,20.471 4.709 C 20.274 4.294,19.985 4.006,19.571 3.809 C 19.282 3.671,19.231 3.660,18.840 3.651 C 18.515 3.642,18.368 3.657,18.190 3.716 M19.265 4.512 C 19.505 4.635,19.749 4.931,19.825 5.192 C 20.023 5.872,19.483 6.600,18.780 6.600 C 18.200 6.600,17.676 6.067,17.682 5.483 C 17.686 5.024,17.977 4.624,18.429 4.455 C 18.638 4.377,19.056 4.405,19.265 4.512 M13.816 9.358 C 14.473 9.459,15.420 9.695,15.980 9.897 C 16.517 10.091,17.418 10.539,17.860 10.832 C 19.373 11.838,20.192 13.211,20.106 14.600 C 20.075 15.091,19.992 15.412,19.779 15.869 C 18.732 18.105,15.600 19.599,11.960 19.599 C 7.328 19.599,3.644 17.166,3.814 14.220 C 3.905 12.640,5.051 11.247,7.060 10.275 C 7.997 9.822,9.023 9.517,10.140 9.360 C 10.948 9.246,10.917 9.248,12.140 9.260 C 13.045 9.269,13.367 9.288,13.816 9.358 M4.852 10.451 C 4.977 10.509,5.080 10.570,5.079 10.588 C 5.078 10.606,4.952 10.728,4.798 10.860 C 4.273 11.310,3.745 11.994,3.452 12.606 C 3.369 12.779,3.289 12.920,3.274 12.920 C 3.231 12.920,3.020 12.638,2.915 12.440 C 2.832 12.282,2.820 12.207,2.820 11.820 C 2.820 11.416,2.829 11.363,2.931 11.169 C 3.145 10.764,3.474 10.486,3.877 10.372 C 4.157 10.293,4.582 10.328,4.852 10.451 M20.335 10.452 C 20.629 10.587,20.880 10.827,21.044 11.130 C 21.174 11.369,21.180 11.398,21.180 11.800 C 21.180 12.170,21.167 12.246,21.076 12.440 C 21.018 12.561,20.900 12.740,20.812 12.838 L 20.653 13.016 20.472 12.635 C 20.197 12.054,19.916 11.670,19.357 11.109 L 18.848 10.598 19.014 10.512 C 19.315 10.357,19.486 10.319,19.808 10.336 C 20.025 10.347,20.180 10.382,20.335 10.452 M8.757 11.960 C 8.159 12.062,7.659 12.607,7.611 13.213 C 7.557 13.883,8.007 14.495,8.680 14.664 C 8.900 14.720,8.980 14.723,9.200 14.682 C 9.700 14.590,10.112 14.257,10.282 13.808 C 10.406 13.479,10.380 13.020,10.220 12.704 C 9.948 12.165,9.347 11.860,8.757 11.960 M14.765 11.962 C 14.346 12.048,13.943 12.360,13.762 12.740 C 13.620 13.039,13.603 13.503,13.723 13.820 C 13.984 14.512,14.823 14.877,15.526 14.605 C 16.338 14.290,16.645 13.285,16.155 12.545 C 15.865 12.107,15.271 11.858,14.765 11.962 M8.822 16.685 C 8.556 16.895,8.607 17.144,8.973 17.431 C 9.299 17.688,9.441 17.770,9.800 17.912 C 10.489 18.185,11.577 18.315,12.556 18.242 C 13.208 18.193,13.611 18.116,14.080 17.951 C 14.482 17.809,14.693 17.694,15.027 17.431 C 15.393 17.144,15.444 16.895,15.178 16.685 C 15.003 16.548,14.851 16.574,14.600 16.783 C 14.020 17.264,13.217 17.480,12.000 17.480 C 10.831 17.480,9.993 17.268,9.480 16.842 C 9.155 16.573,9.010 16.538,8.822 16.685 " stroke="none" fill-rule="evenodd" ></path></svg>
