<svg xmlns="http://www.w3.org/2000/svg" viewBox="0 0 24 24"><path d="M6.700 2.099 C 5.527 2.286,4.502 2.815,3.638 3.678 C 2.847 4.470,2.362 5.361,2.114 6.480 C 1.990 7.039,1.982 8.106,2.097 8.660 C 2.186 9.091,2.400 9.723,2.569 10.057 L 2.693 10.300 2.643 10.680 C 2.319 13.167,2.962 15.623,4.465 17.640 C 4.866 18.179,5.781 19.094,6.320 19.495 C 7.763 20.570,9.363 21.187,11.165 21.363 C 11.717 21.416,12.757 21.389,13.331 21.306 C 13.671 21.257,13.688 21.258,13.843 21.346 C 14.252 21.578,15.009 21.823,15.614 21.919 C 16.006 21.981,16.921 21.972,17.321 21.902 C 18.860 21.633,20.193 20.775,21.046 19.503 C 21.458 18.889,21.719 18.273,21.886 17.520 C 22.010 16.961,22.018 15.894,21.903 15.340 C 21.815 14.911,21.604 14.287,21.425 13.923 L 21.295 13.660 21.348 13.360 C 21.429 12.897,21.460 11.529,21.401 10.994 C 21.192 9.088,20.465 7.360,19.264 5.920 C 17.785 4.145,15.714 2.977,13.399 2.613 C 12.778 2.516,11.208 2.514,10.612 2.611 L 10.205 2.677 9.872 2.521 C 9.460 2.328,8.938 2.174,8.440 2.098 C 7.982 2.029,7.139 2.029,6.700 2.099 M12.780 5.861 C 14.446 6.112,15.879 6.964,16.244 7.920 C 16.359 8.222,16.362 8.643,16.250 8.860 C 15.999 9.345,15.341 9.598,14.795 9.420 C 14.610 9.359,14.511 9.280,14.083 8.849 C 13.809 8.575,13.491 8.289,13.375 8.215 C 12.919 7.923,12.417 7.800,11.683 7.800 C 10.550 7.800,9.880 8.215,9.779 8.981 C 9.743 9.253,9.814 9.491,9.989 9.684 C 10.308 10.037,10.682 10.169,12.531 10.579 C 14.155 10.940,14.392 11.003,14.844 11.198 C 15.784 11.603,16.407 12.266,16.686 13.160 C 16.769 13.424,16.780 13.540,16.780 14.120 C 16.780 14.686,16.767 14.824,16.690 15.092 C 16.237 16.653,14.794 17.580,12.607 17.714 C 10.539 17.841,8.804 17.324,7.842 16.294 C 7.442 15.865,7.239 15.443,7.210 14.978 C 7.193 14.713,7.204 14.601,7.260 14.454 C 7.422 14.031,7.797 13.791,8.298 13.791 C 8.802 13.791,8.994 13.916,9.542 14.600 C 10.096 15.293,10.435 15.537,11.105 15.727 C 11.524 15.845,12.404 15.857,12.800 15.749 C 13.380 15.592,13.849 15.252,14.048 14.846 C 14.258 14.414,14.165 13.839,13.837 13.542 C 13.558 13.290,13.332 13.213,11.533 12.763 C 9.343 12.215,8.998 12.098,8.420 11.706 C 7.912 11.362,7.554 10.895,7.374 10.343 C 7.285 10.070,7.266 9.927,7.250 9.420 C 7.234 8.907,7.244 8.769,7.315 8.471 C 7.649 7.071,8.886 6.137,10.768 5.863 C 11.282 5.788,12.289 5.787,12.780 5.861 " stroke="none" fill-rule="evenodd" ></path></svg>
