<svg xmlns="http://www.w3.org/2000/svg" viewBox="0 0 512 512"><path d="M184.416 33.731c-15.567 4.336-28.872 17.843-32.877 33.379-1.752 6.793-1.741 18.313.024 24.255 3.705 12.48 13.442 24.407 24.224 29.671 9.418 4.598 14.551 5.226 42.88 5.243l25.386.014V100.85c0-14.327-.398-27.655-.912-30.507-2.773-15.394-15.242-30.023-30.268-35.51-6.628-2.42-21.637-3.001-28.457-1.102m118.517-.083c-15.456 4.302-26.495 14.81-32.737 31.164-1.776 4.652-1.812 5.884-2.058 70.606-.278 72.839-.347 71.724 5.156 82.98 3.678 7.523 12.785 16.63 20.308 20.308 8.164 3.991 16.017 5.627 24.265 5.054 11.702-.813 20.947-4.932 29.639-13.203 6.244-5.943 9.653-11.29 12.48-19.576l2.254-6.608v-65.706c0-60.155-.127-66.168-1.506-71.157-4.518-16.357-17.721-29.663-33.516-33.777-5.977-1.557-18.835-1.602-24.285-.085m-236.8 118.131c-15.031 4.32-27.307 16.439-32.097 31.688-3.84 12.224-1.602 28.084 5.465 38.724 6.071 9.14 13.481 14.983 24.397 19.235l5.649 2.201 65.871.243c57.312.212 66.619.07 71.625-1.091 17.947-4.162 31.526-17.781 35.796-35.901 4.644-19.704-5.973-42.277-24.218-51.487-10.575-5.338-8.562-5.21-81.2-5.144-59.976.056-66.647.199-71.288 1.532m354.656-.244c-11.77 3.166-24.639 13.63-29.825 24.252-4.598 9.418-5.226 14.551-5.243 42.88l-.014 25.386h25.443c14.327 0 27.655-.398 30.507-.912 2.784-.501 8.135-2.395 11.89-4.208 29.852-14.417 35.452-55.156 10.594-77.083-5.307-4.682-14.518-9.367-21.09-10.727-6.172-1.278-16.702-1.083-22.262.412M71.68 268.536c-8.325 1.394-18.841 6.673-24.91 12.505-9.591 9.217-14.485 20.656-14.48 33.839.014 35.538 36.68 57.821 68.623 41.704 7.233-3.65 16.578-13.11 20.123-20.371 4.598-9.418 5.226-14.551 5.243-42.88l.014-25.386-26.24.116c-14.432.064-27.2.277-28.373.473m115.2.747c-7.958 1.724-15.512 5.746-21.749 11.581-6.737 6.302-10.213 11.642-13.117 20.155l-2.254 6.608v66.133c0 65.838.008 66.16 1.884 72.107 8.385 26.58 35.443 40.293 61.462 31.148 6.095-2.142 12.259-6.208 17.589-11.603 4.835-4.893 7.686-9.492 10.731-17.31l2.201-5.649.243-65.871c.212-57.312.07-66.619-1.091-71.625-3.286-14.169-12.227-25.442-25.179-31.746-10.569-5.144-19.708-6.312-30.72-3.928m119.467-.385c-2.582.413-7.958 2.347-11.947 4.297-24.5 11.979-33.622 42.012-19.896 65.51 3.035 5.195 10.604 13.057 15.751 16.359 2.285 1.467 7.129 3.682 10.764 4.922l6.608 2.254h66.133c65.935 0 66.151-.006 72.107-1.893 11.848-3.754 21.211-11.01 27.286-21.147 14.128-23.572 5.135-53.921-19.606-66.17-10.116-5.008-10.988-5.062-79.787-4.969-34.496.047-64.832.423-67.413.837m-38.4 142.173c0 14.384.398 27.732.912 30.586 2.091 11.609 10.282 23.76 20.662 30.652 14.583 9.682 34.183 10.034 49.679.892 9.931-5.858 18.37-17.096 21.261-28.311 6.185-23.988-7.128-48.288-31.074-56.72-5.255-1.85-7.021-1.97-33.494-2.287l-27.946-.334v25.522" fill-rule="evenodd"/></svg>