<svg xmlns="http://www.w3.org/2000/svg" viewBox="0 0 24 24"><path d="M11.140 2.044 C 10.370 2.138,9.489 2.395,8.863 2.709 C 7.862 3.212,7.015 4.091,6.504 5.160 C 6.026 6.161,5.947 7.190,6.143 9.884 L 6.168 10.229 5.979 10.276 C 5.735 10.337,5.512 10.303,5.040 10.131 C 4.526 9.944,4.258 9.941,3.899 10.117 C 3.409 10.359,3.264 10.745,3.495 11.191 C 3.618 11.427,4.105 11.721,4.641 11.882 C 5.004 11.990,5.393 12.162,5.647 12.324 C 5.894 12.483,6.021 12.729,5.986 12.984 C 5.906 13.567,5.176 14.732,4.405 15.507 C 3.660 16.256,2.906 16.689,1.874 16.960 C 1.400 17.084,1.265 17.167,1.226 17.358 C 1.108 17.949,1.943 18.439,3.580 18.738 C 4.133 18.839,4.134 18.841,4.207 19.311 C 4.262 19.662,4.376 19.964,4.499 20.079 C 4.640 20.211,4.890 20.222,5.500 20.122 C 6.258 19.998,6.668 19.981,7.160 20.055 C 7.711 20.138,8.102 20.330,8.923 20.919 C 10.002 21.693,10.654 21.948,11.660 21.987 C 12.254 22.011,12.741 21.947,13.260 21.777 C 13.718 21.628,14.057 21.439,14.739 20.952 C 15.713 20.258,16.005 20.123,16.708 20.039 C 17.116 19.990,17.445 20.005,18.140 20.102 C 18.360 20.133,18.660 20.159,18.807 20.159 C 19.236 20.160,19.369 19.999,19.498 19.318 C 19.568 18.948,19.643 18.800,19.759 18.800 C 19.914 18.800,20.831 18.597,21.219 18.476 C 22.094 18.204,22.480 17.889,22.480 17.446 C 22.480 17.179,22.373 17.097,21.851 16.960 C 20.923 16.718,20.315 16.400,19.565 15.762 C 18.823 15.131,17.815 13.627,17.735 13.030 C 17.702 12.784,17.802 12.513,17.974 12.383 C 18.179 12.227,18.635 12.017,19.019 11.900 C 19.945 11.620,20.354 11.252,20.311 10.736 C 20.291 10.486,20.208 10.352,19.976 10.193 C 19.584 9.924,19.169 9.902,18.617 10.121 C 18.185 10.293,17.942 10.335,17.726 10.275 L 17.552 10.227 17.576 9.984 C 17.637 9.345,17.688 7.838,17.668 7.243 C 17.633 6.223,17.438 5.505,16.994 4.770 C 16.321 3.655,15.254 2.766,14.080 2.341 C 13.453 2.114,13.001 2.037,12.200 2.020 C 11.793 2.012,11.316 2.022,11.140 2.044 " stroke="none" fill-rule="evenodd" ></path></svg>
