<svg xmlns="http://www.w3.org/2000/svg" viewBox="0 0 24 24"><path d="M13.700 7.655 C 13.196 7.738,12.812 7.874,12.698 8.009 L 12.600 8.126 12.600 12.120 L 12.600 16.113 12.725 16.218 L 12.850 16.324 16.475 16.312 L 20.100 16.299 20.423 16.190 C 20.823 16.055,21.141 15.852,21.483 15.515 C 21.907 15.098,22.082 14.639,22.087 13.940 C 22.090 13.358,21.951 12.903,21.583 12.290 C 21.327 11.865,21.040 11.615,20.626 11.457 C 20.243 11.311,19.515 11.274,19.119 11.380 C 18.650 11.505,18.695 11.519,18.663 11.237 C 18.600 10.683,18.293 9.950,17.887 9.385 C 17.286 8.550,16.415 7.968,15.395 7.720 C 14.961 7.614,14.138 7.583,13.700 7.655 M11.734 8.284 L 11.609 8.362 11.583 9.331 C 11.569 9.864,11.544 10.993,11.528 11.840 L 11.498 13.380 11.466 11.820 C 11.449 10.962,11.423 9.936,11.407 9.540 L 11.380 8.820 11.210 8.808 C 11.096 8.799,11.033 8.813,11.020 8.848 C 11.010 8.876,10.977 10.115,10.948 11.600 C 10.900 14.082,10.906 14.986,10.979 15.857 L 11.006 16.180 11.160 16.255 C 11.313 16.330,11.315 16.329,11.457 16.242 C 11.628 16.136,11.644 16.018,11.495 15.951 C 11.395 15.905,11.392 15.893,11.414 15.661 C 11.427 15.529,11.450 15.132,11.466 14.780 C 11.500 14.046,11.511 14.084,11.624 15.294 C 11.697 16.080,11.699 16.090,11.817 16.204 C 11.969 16.353,12.036 16.350,12.186 16.190 L 12.308 16.060 12.356 15.040 C 12.402 14.058,12.399 13.915,12.258 11.200 C 12.178 9.649,12.097 8.340,12.077 8.290 C 12.033 8.179,11.908 8.177,11.734 8.284 M8.548 9.450 C 8.495 9.557,8.467 9.972,8.391 11.800 C 8.308 13.785,8.303 14.122,8.346 14.980 C 8.372 15.508,8.395 15.998,8.397 16.070 C 8.399 16.142,8.421 16.200,8.447 16.200 C 8.473 16.200,8.525 16.228,8.562 16.262 C 8.652 16.343,8.835 16.299,8.880 16.185 C 8.971 15.958,9.005 13.980,8.957 11.730 C 8.910 9.497,8.908 9.459,8.824 9.391 C 8.699 9.288,8.620 9.305,8.548 9.450 M9.384 9.419 C 9.294 9.516,9.292 9.543,9.266 10.649 C 9.206 13.227,9.187 16.082,9.230 16.171 C 9.254 16.220,9.283 16.292,9.295 16.330 C 9.330 16.440,9.500 16.416,9.609 16.286 C 9.702 16.175,9.706 16.139,9.755 15.082 C 9.795 14.213,9.795 13.541,9.755 11.771 C 9.708 9.668,9.709 9.549,9.776 9.512 C 9.842 9.475,9.842 9.469,9.777 9.396 C 9.679 9.288,9.496 9.299,9.384 9.419 M7.689 9.478 L 7.598 9.554 7.547 11.771 C 7.505 13.585,7.505 14.187,7.548 15.084 C 7.597 16.117,7.605 16.184,7.684 16.250 C 7.731 16.288,7.783 16.320,7.800 16.320 C 7.817 16.320,7.869 16.288,7.914 16.250 C 7.989 16.187,8.008 16.074,8.101 15.080 L 8.205 13.980 8.104 11.790 C 8.018 9.946,7.991 9.584,7.936 9.500 C 7.858 9.381,7.811 9.377,7.689 9.478 M10.203 9.511 L 10.093 9.621 10.066 10.701 C 10.052 11.294,10.028 12.766,10.014 13.971 L 9.987 16.162 10.101 16.281 C 10.243 16.430,10.355 16.432,10.492 16.288 L 10.599 16.177 10.652 15.138 C 10.695 14.279,10.695 13.737,10.652 12.000 C 10.623 10.845,10.610 9.822,10.623 9.726 C 10.664 9.415,10.423 9.291,10.203 9.511 M6.866 9.873 C 6.806 9.939,6.800 10.147,6.800 12.023 C 6.799 14.117,6.855 15.983,6.922 16.151 C 6.956 16.235,7.139 16.354,7.177 16.316 C 7.186 16.307,7.241 15.804,7.299 15.197 L 7.405 14.095 7.303 12.025 C 7.246 10.886,7.181 9.920,7.159 9.877 C 7.106 9.780,6.953 9.777,6.866 9.873 M6.146 10.610 C 6.105 10.676,6.064 11.146,5.993 12.351 L 5.897 14.002 5.998 14.994 C 6.076 15.750,6.117 16.011,6.171 16.093 C 6.239 16.195,6.400 16.243,6.400 16.161 C 6.400 16.139,6.446 15.644,6.503 15.060 L 6.605 13.999 6.503 12.329 C 6.446 11.411,6.400 10.628,6.400 10.590 C 6.400 10.485,6.215 10.499,6.146 10.610 M4.515 11.730 C 4.512 11.736,4.462 12.247,4.404 12.867 L 4.298 13.993 4.400 15.087 C 4.499 16.152,4.503 16.180,4.591 16.193 C 4.640 16.200,4.682 16.200,4.684 16.193 C 4.686 16.186,4.736 15.690,4.795 15.092 L 4.902 14.004 4.808 12.952 C 4.695 11.691,4.700 11.720,4.599 11.720 C 4.556 11.720,4.518 11.725,4.515 11.730 M3.715 11.807 C 3.713 11.814,3.663 12.310,3.605 12.910 L 3.499 14.000 3.600 15.090 L 3.701 16.180 3.800 16.180 L 3.899 16.180 4.000 15.090 L 4.101 14.000 4.000 12.910 C 3.901 11.848,3.897 11.820,3.809 11.807 C 3.760 11.800,3.718 11.800,3.715 11.807 M5.198 12.970 L 5.097 14.019 5.247 15.060 C 5.330 15.632,5.398 16.122,5.399 16.150 C 5.400 16.207,5.544 16.219,5.577 16.164 C 5.589 16.145,5.646 15.650,5.702 15.064 L 5.805 13.999 5.706 13.017 C 5.649 12.459,5.586 12.011,5.558 11.978 C 5.532 11.946,5.463 11.920,5.405 11.920 L 5.299 11.920 5.198 12.970 M2.982 12.370 C 2.820 13.548,2.796 13.977,2.843 14.900 C 2.878 15.568,2.905 15.836,2.945 15.878 C 3.058 15.999,3.099 15.847,3.202 14.918 L 3.303 14.001 3.205 13.100 C 3.134 12.453,3.092 12.200,3.056 12.200 C 3.026 12.200,2.995 12.272,2.982 12.370 M2.183 13.090 C 2.084 13.856,2.045 15.043,2.115 15.154 C 2.134 15.184,2.182 15.202,2.222 15.194 C 2.280 15.183,2.308 15.099,2.367 14.760 C 2.407 14.529,2.453 14.260,2.470 14.161 C 2.488 14.061,2.480 13.763,2.453 13.481 C 2.427 13.206,2.404 12.967,2.403 12.950 C 2.401 12.933,2.356 12.920,2.302 12.920 C 2.218 12.920,2.202 12.942,2.183 13.090 " stroke="none" fill-rule="evenodd" ></path></svg>
