<svg xmlns="http://www.w3.org/2000/svg" viewBox="0 0 24 24"><path d="M11.120 2.039 C 8.641 2.287,6.414 3.362,4.761 5.107 C 1.806 8.228,1.158 12.819,3.137 16.623 C 3.620 17.552,4.164 18.288,4.938 19.061 C 5.930 20.051,7.038 20.789,8.272 21.278 C 11.634 22.610,15.313 22.080,18.200 19.845 C 18.637 19.507,19.507 18.637,19.845 18.200 C 21.256 16.378,22.000 14.236,22.000 12.000 C 22.000 7.432,18.842 3.387,14.430 2.303 C 13.446 2.062,12.028 1.948,11.120 2.039 M12.160 7.363 C 13.935 7.496,15.577 7.844,17.080 8.406 C 17.578 8.593,18.712 9.144,18.945 9.313 C 19.265 9.546,19.407 10.034,19.259 10.389 C 19.094 10.785,18.816 10.975,18.400 10.978 C 18.173 10.980,18.105 10.961,17.860 10.828 C 15.934 9.784,13.797 9.265,11.040 9.175 C 9.507 9.124,7.996 9.278,6.620 9.625 C 6.018 9.777,5.873 9.780,5.606 9.643 C 5.138 9.402,4.965 8.836,5.218 8.371 C 5.397 8.042,5.606 7.934,6.440 7.737 C 8.115 7.342,10.121 7.211,12.160 7.363 M11.007 10.759 C 12.996 10.856,14.795 11.275,16.374 12.009 C 16.915 12.260,17.441 12.549,17.627 12.697 C 17.909 12.923,17.994 13.316,17.830 13.641 C 17.625 14.047,17.157 14.180,16.740 13.950 C 15.197 13.101,13.996 12.697,12.240 12.435 C 11.856 12.377,11.397 12.348,10.652 12.332 C 9.188 12.301,8.349 12.388,7.095 12.704 C 6.598 12.829,6.510 12.840,6.364 12.801 C 6.181 12.752,5.945 12.565,5.861 12.403 C 5.664 12.020,5.813 11.556,6.195 11.363 C 6.711 11.103,8.544 10.791,9.820 10.747 C 9.996 10.741,10.167 10.733,10.200 10.729 C 10.233 10.726,10.596 10.739,11.007 10.759 M11.504 14.041 C 12.842 14.148,14.071 14.452,15.200 14.955 C 15.750 15.200,16.291 15.497,16.462 15.647 C 16.712 15.866,16.742 16.233,16.530 16.484 C 16.321 16.733,16.014 16.784,15.719 16.620 C 14.681 16.038,13.759 15.681,12.785 15.481 C 11.172 15.150,9.382 15.177,7.469 15.561 C 6.776 15.701,6.704 15.704,6.519 15.606 C 6.313 15.496,6.200 15.307,6.200 15.072 C 6.200 14.643,6.362 14.516,7.109 14.362 C 8.636 14.048,10.179 13.936,11.504 14.041 " stroke="none" fill-rule="evenodd" ></path></svg>
