<svg xmlns="http://www.w3.org/2000/svg" viewBox="0 0 128 128"><path d="M86.933 39.142 C 83.189 40.252,71.766 44.875,55.040 52.050 C 41.002 58.072,28.244 63.629,26.945 64.287 C 24.021 65.769,23.414 67.391,25.257 68.797 C 26.389 69.661,34.720 72.356,38.435 73.061 C 42.411 73.815,44.563 73.222,49.114 70.116 C 53.846 66.886,71.938 54.868,73.475 53.934 C 75.711 52.574,76.587 52.602,76.587 54.032 C 76.587 54.540,76.008 55.223,73.227 57.999 C 71.379 59.843,66.987 64.049,63.467 67.345 C 59.947 70.641,56.716 73.709,56.287 74.162 C 53.894 76.695,53.773 78.283,55.822 80.252 C 56.804 81.195,76.195 94.324,77.867 95.178 C 81.772 97.171,84.346 96.144,85.774 92.022 C 86.721 89.286,91.578 60.387,93.137 48.213 C 93.763 43.319,93.767 40.801,93.148 39.858 C 92.273 38.525,89.928 38.254,86.933 39.142 " stroke="none" fill-rule="evenodd" ></path></svg>
