<svg xmlns="http://www.w3.org/2000/svg" viewBox="0 0 32 32"><path d="M17.058 0.039 L 16.702 0.058 16.675 11.242 C 16.659 17.394,16.626 22.706,16.599 23.046 C 16.557 23.592,16.529 23.714,16.361 24.067 C 15.833 25.180,15.066 25.968,14.071 26.421 C 13.389 26.731,13.034 26.800,12.107 26.800 C 11.339 26.800,11.246 26.789,10.809 26.646 C 10.308 26.481,9.678 26.132,9.259 25.785 C 8.882 25.474,8.350 24.784,8.108 24.295 C 7.780 23.632,7.680 23.161,7.680 22.269 C 7.680 21.395,7.742 21.091,8.057 20.430 C 8.641 19.204,9.599 18.368,10.882 17.965 C 11.237 17.853,11.378 17.840,12.187 17.844 C 12.847 17.847,13.173 17.871,13.387 17.933 C 13.548 17.980,13.686 18.012,13.694 18.004 C 13.702 17.996,13.724 16.670,13.743 15.057 L 13.777 12.124 13.649 12.089 C 13.578 12.070,13.192 12.026,12.792 11.991 C 10.549 11.796,8.092 12.509,6.199 13.903 C 4.026 15.504,2.670 17.722,2.178 20.480 C 2.064 21.119,2.097 22.965,2.237 23.758 C 2.727 26.549,4.514 29.118,7.004 30.611 C 8.351 31.420,10.001 31.914,11.573 31.981 C 13.326 32.055,14.877 31.746,16.400 31.019 C 17.469 30.508,18.170 30.025,19.023 29.209 C 20.407 27.886,21.339 26.277,21.820 24.381 C 22.131 23.152,22.133 23.101,22.133 16.691 C 22.133 13.465,22.148 10.827,22.167 10.827 C 22.185 10.827,22.455 10.987,22.767 11.183 C 24.347 12.175,26.066 12.823,27.896 13.117 C 28.412 13.199,29.602 13.329,29.880 13.333 C 29.902 13.333,29.920 12.124,29.920 10.646 L 29.920 7.959 29.480 7.896 C 27.857 7.662,26.286 7.094,25.213 6.352 C 24.444 5.821,23.678 5.012,23.158 4.184 C 22.733 3.507,22.288 2.349,22.113 1.467 C 22.044 1.122,21.922 0.217,21.920 0.040 C 21.920 0.002,17.791 0.001,17.058 0.039 " stroke="none" fill-rule="evenodd" ></path></svg>
