<svg xmlns="http://www.w3.org/2000/svg" viewBox="0 0 24 24"><path d="M10.343 2.310 C 10.243 3.296,9.829 4.430,9.261 5.279 C 8.557 6.332,7.533 7.083,6.334 7.426 L 6.080 7.499 6.080 9.050 L 6.080 10.600 7.437 10.600 L 8.794 10.600 8.810 13.810 C 8.828 17.295,8.832 17.371,9.063 18.180 C 9.178 18.584,9.445 19.176,9.644 19.467 C 9.832 19.744,10.301 20.221,10.580 20.420 C 10.910 20.655,11.308 20.847,11.770 20.995 C 12.543 21.242,12.622 21.249,14.930 21.268 L 17.040 21.286 17.040 19.428 L 17.040 17.569 15.950 17.550 C 14.804 17.529,14.594 17.501,14.235 17.317 C 14.004 17.200,13.752 16.933,13.624 16.672 C 13.415 16.245,13.403 16.053,13.401 13.210 L 13.400 10.600 15.140 10.600 L 16.880 10.600 16.880 8.780 L 16.880 6.960 15.140 6.960 L 13.400 6.960 13.400 4.500 L 13.400 2.040 11.886 2.040 L 10.371 2.040 10.343 2.310 " stroke="none" fill-rule="evenodd" ></path></svg>
