<svg xmlns="http://www.w3.org/2000/svg" viewBox="0 0 24 24"><path d="M3.609 4.830 L 2.999 6.460 2.999 13.010 L 3.000 19.560 5.240 19.560 L 7.480 19.560 7.480 20.780 L 7.480 22.000 8.710 22.000 L 9.940 22.000 11.160 20.780 L 12.380 19.560 14.220 19.560 L 16.060 19.560 18.530 17.090 L 21.000 14.620 21.000 8.910 L 21.000 3.200 12.610 3.200 L 4.220 3.200 3.609 4.830 M19.360 9.310 L 19.360 13.820 17.930 15.250 L 16.500 16.680 14.260 16.680 L 12.020 16.680 10.790 17.910 L 9.560 19.140 9.560 17.910 L 9.560 16.680 7.720 16.680 L 5.880 16.680 5.880 10.740 L 5.880 4.800 12.620 4.800 L 19.360 4.800 19.360 9.310 M10.360 10.540 L 10.360 13.000 11.180 13.000 L 12.000 13.000 12.000 10.540 L 12.000 8.080 11.180 8.080 L 10.360 8.080 10.360 10.540 M14.867 8.106 C 14.852 8.121,14.840 9.228,14.840 10.567 L 14.840 13.000 15.680 13.000 L 16.521 13.000 16.510 10.550 L 16.500 8.100 15.697 8.089 C 15.256 8.083,14.883 8.091,14.867 8.106 " stroke="none" fill-rule="evenodd" ></path></svg>
