<svg xmlns="http://www.w3.org/2000/svg" viewBox="0 0 24 24"><path d="M15.640 4.023 C 15.585 4.033,15.432 4.060,15.300 4.083 C 14.741 4.180,14.084 4.471,13.595 4.839 C 12.470 5.687,11.842 7.128,11.997 8.506 C 12.023 8.736,12.055 8.952,12.068 8.986 C 12.089 9.040,12.052 9.044,11.776 9.020 C 9.530 8.825,7.494 8.064,5.742 6.765 C 5.147 6.324,4.462 5.701,4.013 5.194 C 3.574 4.698,3.616 4.697,3.404 5.198 C 3.184 5.714,3.113 6.047,3.091 6.664 C 3.075 7.100,3.086 7.304,3.138 7.562 C 3.359 8.651,3.896 9.487,4.820 10.181 C 4.893 10.236,4.877 10.239,4.640 10.215 C 4.250 10.177,3.689 10.025,3.339 9.863 L 3.028 9.720 3.053 10.090 C 3.120 11.071,3.565 12.010,4.296 12.711 C 4.801 13.196,5.342 13.514,5.969 13.696 L 6.300 13.791 6.120 13.846 C 5.997 13.883,5.711 13.900,5.215 13.900 L 4.491 13.900 4.547 14.060 C 4.798 14.774,5.404 15.541,6.082 16.002 C 6.614 16.363,7.356 16.631,8.014 16.699 L 8.288 16.727 8.005 16.934 C 7.210 17.511,6.070 18.024,5.062 18.258 C 4.327 18.429,3.255 18.512,2.620 18.448 C 2.422 18.428,2.256 18.415,2.251 18.418 C 2.230 18.433,2.981 18.855,3.380 19.052 C 4.581 19.647,5.867 20.022,7.266 20.185 C 8.023 20.273,9.586 20.242,10.360 20.124 C 13.776 19.601,16.522 17.790,18.372 14.840 C 19.531 12.992,20.199 10.686,20.200 8.532 L 20.200 8.043 20.490 7.812 C 21.072 7.347,21.712 6.674,22.081 6.139 C 22.187 5.985,22.198 5.952,22.136 5.973 C 21.124 6.318,20.830 6.407,20.468 6.477 C 20.230 6.523,20.009 6.560,19.977 6.560 C 19.944 6.560,20.067 6.446,20.249 6.308 C 20.821 5.871,21.325 5.211,21.578 4.566 C 21.632 4.428,21.664 4.321,21.648 4.328 C 21.633 4.335,21.377 4.461,21.080 4.606 C 20.528 4.877,20.065 5.051,19.502 5.197 C 19.099 5.302,19.074 5.301,18.957 5.176 C 18.762 4.967,18.223 4.594,17.864 4.419 C 17.348 4.168,16.819 4.040,16.220 4.021 C 15.956 4.012,15.695 4.013,15.640 4.023 " stroke="none" fill-rule="evenodd" ></path></svg>
