<svg xmlns="http://www.w3.org/2000/svg" viewBox="0 0 24 24"><path d="M18.560 3.027 C 16.965 3.184,15.695 3.922,14.749 5.242 C 14.414 5.710,13.897 6.743,13.682 7.374 C 13.593 7.635,13.520 7.855,13.520 7.862 C 13.520 7.869,13.642 7.833,13.790 7.781 C 14.199 7.639,14.638 7.560,15.026 7.560 C 15.893 7.560,16.339 7.912,16.445 8.679 C 16.564 9.537,16.148 10.700,15.146 12.308 C 14.474 13.387,13.869 14.137,13.459 14.397 C 12.894 14.755,12.457 14.342,12.000 13.015 C 11.656 12.018,11.386 10.739,10.917 7.880 C 10.569 5.767,10.458 5.308,10.139 4.679 C 9.770 3.948,9.219 3.467,8.580 3.318 C 8.269 3.246,7.659 3.255,7.383 3.336 C 6.584 3.572,5.581 4.273,4.000 5.700 C 3.513 6.140,1.652 7.791,1.605 7.825 C 1.584 7.841,2.534 9.076,2.569 9.078 C 2.585 9.079,2.846 8.916,3.148 8.716 C 3.764 8.309,4.113 8.120,4.249 8.121 C 4.374 8.122,4.633 8.245,4.790 8.377 C 4.983 8.540,5.345 9.109,5.545 9.564 C 5.863 10.284,6.070 10.971,6.982 14.319 C 7.476 16.135,7.946 17.782,8.026 17.980 C 8.440 19.004,8.881 19.727,9.417 20.262 C 10.080 20.922,10.682 21.113,11.570 20.943 C 13.313 20.610,15.371 18.970,17.683 16.075 C 19.401 13.923,20.529 12.228,21.341 10.580 C 21.937 9.370,22.242 8.463,22.363 7.540 C 22.438 6.968,22.389 5.883,22.262 5.340 C 21.944 3.971,21.119 3.208,19.780 3.044 C 19.443 3.003,18.881 2.995,18.560 3.027 " stroke="none" fill-rule="evenodd" ></path></svg>
