<svg xmlns="http://www.w3.org/2000/svg" viewBox="0 0 24 24"><path d="M10.380 6.245 C 9.848 6.285,9.358 6.379,9.162 6.479 C 8.976 6.574,8.631 6.943,8.647 7.029 C 8.655 7.069,8.730 7.113,8.840 7.142 C 9.128 7.217,9.300 7.302,9.469 7.455 C 9.589 7.563,9.638 7.586,9.673 7.551 C 9.700 7.524,9.720 7.521,9.720 7.544 C 9.720 7.566,9.757 7.759,9.803 7.974 C 9.879 8.332,9.884 8.458,9.865 9.492 C 9.836 11.161,9.792 11.418,9.496 11.679 C 9.358 11.799,9.330 11.807,9.120 11.792 C 8.928 11.778,8.863 11.752,8.704 11.621 C 8.432 11.398,7.806 10.494,7.500 9.880 C 7.395 9.671,7.260 9.428,7.200 9.340 C 6.996 9.043,6.552 8.107,6.413 7.682 C 6.271 7.245,6.105 7.000,5.952 7.000 C 5.912 7.000,5.880 6.983,5.880 6.963 C 5.880 6.942,5.845 6.914,5.802 6.901 C 5.759 6.887,5.713 6.841,5.699 6.798 C 5.675 6.722,5.625 6.720,3.996 6.720 C 2.390 6.720,2.310 6.724,2.158 6.801 C 2.004 6.880,2.000 6.886,2.000 7.096 C 2.000 7.248,2.034 7.386,2.116 7.566 C 2.179 7.705,2.352 8.108,2.500 8.460 C 3.279 10.313,4.444 12.313,5.823 14.163 C 6.195 14.662,6.422 14.921,7.229 15.771 C 7.308 15.854,7.527 16.006,7.716 16.109 C 8.128 16.333,8.263 16.418,8.766 16.770 C 9.219 17.088,9.508 17.216,10.240 17.425 L 10.780 17.580 12.000 17.580 C 13.100 17.580,13.233 17.573,13.352 17.508 C 13.425 17.468,13.494 17.405,13.506 17.368 C 13.518 17.331,13.543 17.264,13.561 17.220 C 13.580 17.176,13.603 16.924,13.613 16.660 C 13.628 16.256,13.650 16.129,13.749 15.860 C 13.905 15.434,13.941 15.369,14.133 15.170 C 14.276 15.021,14.318 15.000,14.470 15.000 C 14.565 15.000,14.709 15.028,14.791 15.061 C 14.981 15.139,15.902 16.081,16.303 16.606 C 16.712 17.144,16.990 17.352,17.580 17.563 C 17.993 17.710,18.212 17.725,19.840 17.712 C 21.384 17.700,21.424 17.698,21.586 17.611 C 21.822 17.485,21.920 17.345,21.920 17.135 C 21.920 16.976,21.829 16.676,21.751 16.580 C 21.734 16.558,21.647 16.432,21.560 16.300 C 21.248 15.829,20.731 15.216,20.160 14.638 C 19.543 14.014,18.993 13.419,18.846 13.217 C 18.731 13.060,18.723 12.707,18.828 12.396 C 18.897 12.190,19.510 11.333,20.526 10.020 C 21.253 9.081,21.912 7.948,22.010 7.467 C 22.072 7.166,22.017 7.059,21.723 6.910 L 21.506 6.800 19.376 6.800 L 17.246 6.800 17.165 6.970 C 17.120 7.064,17.001 7.338,16.899 7.580 C 16.333 8.935,15.232 10.758,14.609 11.373 C 14.340 11.639,14.267 11.689,14.125 11.708 C 13.920 11.736,13.845 11.678,13.714 11.387 C 13.620 11.180,13.620 11.176,13.598 9.040 C 13.572 6.594,13.570 6.575,13.307 6.423 C 12.997 6.245,11.547 6.156,10.380 6.245 " stroke="none" fill-rule="evenodd" ></path></svg>
