<svg xmlns="http://www.w3.org/2000/svg" viewBox="0 0 24 24"><path d="M11.120 2.039 C 8.020 2.349,5.361 3.939,3.659 6.500 C 1.048 10.428,1.568 15.667,4.900 19.022 C 5.878 20.007,6.984 20.750,8.220 21.254 C 11.958 22.779,16.203 21.920,19.062 19.062 C 23.445 14.678,22.834 7.442,17.778 3.853 C 16.479 2.930,15.094 2.370,13.493 2.119 C 12.909 2.027,11.660 1.985,11.120 2.039 M13.260 3.105 C 14.870 3.322,16.455 4.023,17.754 5.095 L 18.047 5.337 17.767 5.384 C 17.612 5.410,17.400 5.474,17.296 5.526 C 16.913 5.715,16.588 6.147,16.482 6.604 C 16.352 7.168,16.548 7.806,17.145 8.771 C 17.827 9.873,18.058 10.593,18.050 11.600 C 18.045 12.290,17.914 12.900,17.505 14.137 C 17.322 14.689,17.022 15.648,16.838 16.268 C 16.653 16.888,16.493 17.387,16.481 17.375 C 16.470 17.364,15.738 15.209,14.855 12.587 C 13.487 8.525,13.259 7.816,13.315 7.796 C 13.351 7.782,13.578 7.758,13.819 7.742 C 14.448 7.701,14.600 7.619,14.600 7.320 C 14.600 7.233,14.562 7.156,14.477 7.071 C 14.358 6.951,14.349 6.949,14.067 6.973 C 12.989 7.065,11.796 7.092,10.850 7.045 C 10.306 7.019,9.731 6.986,9.574 6.973 C 9.304 6.950,9.281 6.955,9.185 7.051 C 9.045 7.191,9.015 7.339,9.093 7.502 C 9.171 7.667,9.294 7.706,9.894 7.757 C 10.132 7.777,10.332 7.800,10.337 7.807 C 10.343 7.814,10.659 8.675,11.040 9.720 L 11.732 11.620 10.757 14.549 C 10.220 16.160,9.769 17.465,9.755 17.449 C 9.704 17.394,6.509 7.838,6.534 7.813 C 6.547 7.799,6.743 7.773,6.969 7.755 C 7.195 7.737,7.441 7.711,7.514 7.698 C 7.706 7.665,7.840 7.517,7.840 7.339 C 7.840 6.987,7.714 6.940,6.934 6.998 C 5.983 7.069,4.520 7.100,4.520 7.049 C 4.520 6.962,5.142 6.173,5.516 5.786 C 7.108 4.138,9.187 3.173,11.460 3.026 C 11.854 3.001,12.789 3.042,13.260 3.105 M20.196 8.316 C 20.537 9.060,20.795 9.985,20.924 10.920 C 20.994 11.427,20.982 12.652,20.903 13.214 C 20.539 15.789,19.118 18.045,16.940 19.507 C 16.478 19.817,16.484 19.873,16.858 18.791 C 17.913 15.731,19.325 11.664,19.410 11.440 C 19.789 10.442,19.998 9.185,19.943 8.240 C 19.913 7.708,19.919 7.710,20.196 8.316 M5.937 14.227 C 7.108 17.435,8.062 20.066,8.057 20.073 C 8.042 20.093,7.823 19.975,7.380 19.708 C 5.523 18.593,4.143 16.859,3.459 14.780 C 3.151 13.843,3.027 13.041,3.029 12.000 C 3.031 10.715,3.193 9.900,3.727 8.468 C 3.750 8.406,3.778 8.364,3.788 8.375 C 3.799 8.385,4.766 11.019,5.937 14.227 M13.569 16.650 C 14.332 18.745,14.944 20.472,14.928 20.488 C 14.913 20.503,14.684 20.578,14.420 20.654 C 13.199 21.004,11.856 21.083,10.593 20.878 C 10.072 20.793,9.481 20.649,9.479 20.606 C 9.477 20.554,12.140 12.840,12.160 12.840 C 12.171 12.841,12.805 14.555,13.569 16.650 " stroke="none" fill-rule="evenodd" ></path></svg>
