<svg xmlns="http://www.w3.org/2000/svg" viewBox="0 0 24 24"><path d="M9.860 2.102 C 9.684 2.132,9.378 2.204,9.180 2.262 C 8.982 2.321,8.656 2.411,8.455 2.463 C 7.523 2.703,6.456 3.261,6.294 3.593 C 6.126 3.940,6.014 3.732,8.415 7.532 C 9.843 9.792,10.677 11.074,10.803 11.204 C 11.134 11.543,11.514 11.647,11.832 11.484 C 12.023 11.387,12.097 11.302,12.205 11.059 C 12.346 10.743,12.342 10.257,12.183 7.820 C 11.956 4.353,11.841 2.710,11.815 2.580 C 11.778 2.390,11.657 2.224,11.487 2.128 C 11.343 2.048,11.278 2.040,10.755 2.044 C 10.439 2.046,10.036 2.072,9.860 2.102 M16.775 7.975 C 16.621 8.045,16.442 8.275,14.931 10.340 C 14.272 11.242,13.709 12.049,13.682 12.133 C 13.613 12.343,13.658 12.594,13.806 12.816 C 14.030 13.155,14.364 13.308,14.729 13.238 C 15.109 13.166,18.656 12.280,19.041 12.161 C 19.481 12.025,19.609 11.920,19.686 11.631 C 19.731 11.461,19.727 11.409,19.645 11.131 C 19.489 10.598,19.295 10.209,18.854 9.543 C 18.416 8.884,17.919 8.329,17.527 8.062 C 17.322 7.923,16.979 7.883,16.775 7.975 M5.300 11.343 C 5.088 11.453,5.006 11.563,4.882 11.908 C 4.711 12.379,4.643 12.823,4.615 13.638 C 4.562 15.186,4.760 15.929,5.265 16.080 C 5.464 16.140,5.617 16.101,7.585 15.481 C 9.527 14.870,10.131 14.668,10.251 14.589 C 10.308 14.552,10.405 14.456,10.466 14.375 C 10.557 14.256,10.581 14.179,10.593 13.958 C 10.611 13.649,10.558 13.451,10.412 13.277 C 10.279 13.120,10.208 13.086,8.980 12.587 C 8.408 12.355,7.657 12.048,7.310 11.905 C 6.528 11.581,5.669 11.280,5.527 11.280 C 5.468 11.280,5.366 11.309,5.300 11.343 M14.419 15.016 C 14.284 15.075,14.076 15.295,13.973 15.491 C 13.931 15.570,13.903 15.714,13.902 15.862 C 13.900 16.081,13.919 16.136,14.096 16.442 C 14.440 17.034,15.635 18.955,16.106 19.672 C 16.524 20.309,16.576 20.371,16.746 20.447 C 16.998 20.558,17.180 20.523,17.535 20.293 C 18.074 19.945,18.993 18.915,19.408 18.196 C 19.511 18.017,19.652 17.715,19.721 17.525 C 19.908 17.012,19.857 16.759,19.518 16.529 C 19.445 16.478,18.374 16.105,17.140 15.699 C 14.822 14.936,14.683 14.901,14.419 15.016 M10.970 15.970 C 10.794 16.068,10.616 16.269,8.909 18.299 C 8.272 19.057,7.754 19.709,7.694 19.830 C 7.581 20.060,7.585 20.198,7.710 20.431 C 7.846 20.683,8.777 21.289,9.260 21.440 C 9.348 21.468,9.582 21.553,9.780 21.629 C 10.479 21.900,11.374 22.053,11.715 21.961 C 11.932 21.903,12.147 21.710,12.201 21.527 C 12.263 21.313,12.305 16.711,12.246 16.500 C 12.106 15.993,11.433 15.713,10.970 15.970 " stroke="none" fill-rule="evenodd" ></path></svg>
