<svg xmlns="http://www.w3.org/2000/svg" viewBox="0 0 24 24"><path d="M9.220 5.003 C 6.689 5.054,4.861 5.152,4.340 5.266 C 3.603 5.427,2.919 5.946,2.626 6.568 C 2.180 7.513,2.043 8.613,2.011 11.495 C 1.990 13.361,2.020 14.246,2.144 15.479 C 2.265 16.676,2.574 17.543,3.049 18.015 C 3.834 18.795,4.489 18.893,9.700 19.004 C 13.013 19.075,17.837 18.970,19.260 18.795 C 19.987 18.706,20.486 18.479,20.931 18.036 C 21.767 17.204,22.034 15.549,21.989 11.495 C 21.957 8.613,21.820 7.513,21.374 6.568 C 21.082 5.949,20.373 5.409,19.660 5.263 C 19.087 5.145,17.376 5.059,14.480 5.000 C 12.357 4.957,11.508 4.958,9.220 5.003 M12.646 10.390 C 14.113 11.155,15.302 11.793,15.286 11.809 C 15.264 11.832,11.014 14.045,10.110 14.505 L 9.920 14.601 9.920 11.801 C 9.920 10.260,9.933 9.000,9.949 9.000 C 9.964 9.000,11.178 9.626,12.646 10.390 " stroke="none" fill-rule="evenodd" ></path></svg>
